<?xml version="1.0" encoding="utf-8"?>
<!-- Generator: Adobe Illustrator 17.1.0, SVG Export Plug-In . SVG Version: 6.00 Build 0)  -->
<!DOCTYPE svg PUBLIC "-//W3C//DTD SVG 1.1//EN" "http://www.w3.org/Graphics/SVG/1.1/DTD/svg11.dtd">
<svg version="1.1" id="bucket-icon-svg" xmlns="http://www.w3.org/2000/svg" xmlns:xlink="http://www.w3.org/1999/xlink" x="0px"
	 y="0px" viewBox="735.8 112.9 465.7 562.6" enable-background="new 735.8 112.9 465.7 562.6" xml:space="preserve"
	 preserveAspectRatio="xMinYMid">
<line fill="none" stroke="#5A5A5A" stroke-width="60" stroke-miterlimit="10" x1="966.2" y1="452.9" x2="966.2" y2="630.5"/>
<g>
	<g>
		<path fill="#01A982" d="M1110.4,295.5c-11.6,22.5-70.8,40.1-142.5,40.1S837.1,318,824.5,295.5h-15.9l30.1,216.8h257.5l30.1-216.8
			H1110.4L1110.4,295.5z"/>
	</g>
	<g>
		<ellipse fill="#01A982" cx="968.7" cy="512.1" rx="129.2" ry="42.4"/>
	</g>
	<path fill="#01A982" d="M1074.5,238.8c-28.3-10-66.6-14.9-106.7-14.9s-77.5,5.9-106.7,14.9c-43.3,14.1-52.4,33.5-52.4,47.6
		s9.3,33.5,52.4,47.6c28.3,10,66.6,14.9,106.7,14.9c40.8,0,78.4-5,106.7-14.9c43.3-14.1,52.4-33.5,52.4-47.6
		C1126.9,272.2,1117.9,253,1074.5,238.8z M967.8,335.6c-80,0-145-21.6-145-48.3c0-26.7,64.9-48.3,145-48.3s145,21.6,145,48.3
		C1112.9,313.8,1047.9,335.6,967.8,335.6z"/>
	<path fill="#01A982" d="M967.8,230.4c-80,0-150.9,30.8-150.9,57.6c0,26.8,70,60.8,150.9,60.8s153.4-35.8,153.4-62.4
		C1121.2,259.7,1047.9,230.4,967.8,230.4z M967.8,321.3c-86.7,0-130.9-23.4-130.9-34.2S881.1,253,967.8,253
		c86.7,0,130.9,23.3,130.9,34.2S1054.5,321.3,967.8,321.3z"/>
	<g>
		<path fill="#01A982" d="M968.7,112.9c-88.4,0-159.1,75-159.1,167.6s71.7,167.5,159.1,167.5s159.2-75,159.2-167.6
			S1056.9,112.9,968.7,112.9z M968.7,425.6c-67.5,0-123.4-51.7-134.2-119.2c-7.5-5.9-11.6-12.5-11.6-19.1c0-5.9,3.4-11.6,10-17.5
			c5-75,64.2-134.2,135.9-134.2c72.5,0,131.7,59.9,135.9,135.9c5,5,8.2,10,8.2,15.9s-3.4,11.6-9.3,16.6
			C1092,373,1036.1,425.6,968.7,425.6z"/>
		<path fill="#01A982" d="M1112.9,287.2c0-5.9-2.5-10.7-8.2-15.9c0,3.4,0.7,5.9,0.7,9.3c0,8.2-0.7,15.9-1.6,23.4
			C1108.7,298.7,1112.9,293,1112.9,287.2z"/>
		<path fill="#01A982" d="M832,269.6c-5.9,5-10,10.7-10,17.5s4.1,13.4,11.6,19.1c-1.6-8.2-2.5-16.6-2.5-25.8
			C832,276.3,832,272.9,832,269.6z"/>
	</g>
</g>
<line fill="none" stroke="#5A5A5A" stroke-width="50" stroke-miterlimit="10" x1="735.8" y1="650.5" x2="1201.5" y2="650.5"/>
</svg>
