<?xml version="1.0" encoding="utf-8"?>
<!-- Generator: Adobe Illustrator 17.1.0, SVG Export Plug-In . SVG Version: 6.00 Build 0)  -->
<!DOCTYPE svg PUBLIC "-//W3C//DTD SVG 1.1//EN" "http://www.w3.org/Graphics/SVG/1.1/DTD/svg11.dtd">
<svg version="1.1" id="bucket-icon-svg" xmlns="http://www.w3.org/2000/svg" xmlns:xlink="http://www.w3.org/1999/xlink" x="0px"
	 y="0px" viewBox="639.8 112.9 404.8 560" enable-background="new 639.8 112.9 404.8 560" xml:space="preserve"
	 preserveAspectRatio="xMinYMid">
<g>
	<g>
		<path fill="#01A982" d="M1022.4,344.3c-14.8,28.6-89.8,50.8-180.6,50.8S675.9,372.9,660,344.3h-20.2l38.1,274.8h326.5l38.1-274.8
			H1022.4L1022.4,344.3z"/>
	</g>
	<g>
		<ellipse fill="#01A982" cx="842.7" cy="619.1" rx="163.8" ry="53.8"/>
	</g>
	<path fill="#01A982" d="M976.8,272.4c-35.9-12.7-84.4-18.9-135.2-18.9s-98.3,7.5-135.2,18.9c-54.9,17.9-66.5,42.4-66.5,60.3
		c0,17.9,11.7,42.4,66.5,60.3c35.9,12.7,84.4,18.9,135.2,18.9c51.7,0,99.4-6.3,135.2-18.9c54.9-17.9,66.5-42.4,66.5-60.3
		S1031.9,290.5,976.8,272.4z M841.6,395.1c-101.4,0-183.8-27.5-183.8-61.3s82.4-61.3,183.8-61.3s183.8,27.5,183.8,61.3
		C1025.5,367.7,943.2,395.1,841.6,395.1z"/>
	<path fill="#01A982" d="M841.6,261.8c-101.4,0-191.3,39-191.3,73s88.7,77.1,191.3,77.1s194.4-45.4,194.4-79.2
		S943.2,261.8,841.6,261.8z M841.6,377.2c-109.8,0-165.9-29.7-165.9-43.3c0-13.7,56-43.3,165.9-43.3s165.9,29.5,165.9,43.3
		S951.6,377.2,841.6,377.2z"/>
	<g>
		<path fill="#01A982" d="M842.7,112.9c-112.1,0-201.7,95.1-201.7,212.4s90.8,212.4,201.7,212.4s201.9-95.1,201.9-212.4
			S954.6,112.9,842.7,112.9z M842.7,509.2c-85.6,0-156.3-65.6-170.2-151.1c-9.5-7.5-14.8-15.9-14.8-24.3c0-7.5,4.3-14.8,12.7-22.2
			c6.3-95.1,81.4-170.2,172.2-170.2c91.9,0,167,76,172.2,172.2c6.3,6.3,10.5,12.7,10.5,20.2c0,7.5-4.3,14.8-11.7,21.1
			C999,442.6,928.2,509.2,842.7,509.2z"/>
		<path fill="#01A982" d="M1025.5,333.9c0-7.5-3.2-13.7-10.5-20.2c0,4.3,1,7.5,1,11.7c0,10.5-1,20.2-2.1,29.7
			C1020.1,348.5,1025.5,341.2,1025.5,333.9z"/>
		<path fill="#01A982" d="M669.3,311.6c-7.5,6.3-12.7,13.7-12.7,22.2c0,8.6,5.2,17,14.8,24.3c-2.1-10.5-3.2-21.1-3.2-32.7
			C669.3,320,669.3,315.8,669.3,311.6z"/>
	</g>
</g>
</svg>
