<?xml version="1.0" encoding="utf-8"?>
<!-- Generator: Adobe Illustrator 17.1.0, SVG Export Plug-In . SVG Version: 6.00 Build 0)  -->
<!DOCTYPE svg PUBLIC "-//W3C//DTD SVG 1.1//EN" "http://www.w3.org/Graphics/SVG/1.1/DTD/svg11.dtd">
<svg version="1.1" id="bucket-icon-svg" xmlns="http://www.w3.org/2000/svg" xmlns:xlink="http://www.w3.org/1999/xlink" x="0px"
	 y="0px" viewBox="362.2 112.9 255 352.8" enable-background="new 362.2 112.9 255 352.8" xml:space="preserve">
<g>
	<g>
		<path fill="#007DBA" d="M603.2,258.7c-9.3,18-56.6,32-113.8,32s-104.5-14-114.5-32h-12.7l24,173.1h205.7l24-173.1L603.2,258.7
			L603.2,258.7z"/>
	</g>
	<g>
		<ellipse fill="#007DBA" cx="490" cy="431.8" rx="103.2" ry="33.9"/>
	</g>
	<path fill="#007DBA" d="M574.5,213.4c-22.6-8-53.2-11.9-85.2-11.9s-61.9,4.7-85.2,11.9c-34.6,11.3-41.9,26.7-41.9,38
		s7.4,26.7,41.9,38c22.6,8,53.2,11.9,85.2,11.9c32.6,0,62.6-4,85.2-11.9c34.6-11.3,41.9-26.7,41.9-38S609.2,224.8,574.5,213.4z
		 M489.3,290.7c-63.9,0-115.8-17.3-115.8-38.6s51.9-38.6,115.8-38.6s115.8,17.3,115.8,38.6C605.2,273.4,553.3,290.7,489.3,290.7z"/>
	<path fill="#007DBA" d="M489.3,206.7c-63.9,0-120.5,24.6-120.5,46s55.9,48.6,120.5,48.6s122.5-28.6,122.5-49.9
		C611.8,230.1,553.3,206.7,489.3,206.7z M489.3,279.4c-69.2,0-104.5-18.7-104.5-27.3c0-8.6,35.3-27.3,104.5-27.3
		s104.5,18.6,104.5,27.3S558.6,279.4,489.3,279.4z"/>
	<g>
		<path fill="#007DBA" d="M490,112.9c-70.6,0-127.1,59.9-127.1,133.8S420.1,380.5,490,380.5s127.2-59.9,127.2-133.8
			S560.5,112.9,490,112.9z M490,362.6c-53.9,0-98.5-41.3-107.2-95.2c-6-4.7-9.3-10-9.3-15.3c0-4.7,2.7-9.3,8-14
			c4-59.9,51.3-107.2,108.5-107.2c57.9,0,105.2,47.9,108.5,108.5c4,4,6.6,8,6.6,12.7c0,4.7-2.7,9.3-7.4,13.3
			C588.5,320.6,543.9,362.6,490,362.6z"/>
		<path fill="#007DBA" d="M605.2,252.1c0-4.7-2-8.6-6.6-12.7c0,2.7,0.6,4.7,0.6,7.4c0,6.6-0.6,12.7-1.3,18.7
			C601.8,261.3,605.2,256.7,605.2,252.1z"/>
		<path fill="#007DBA" d="M380.8,238.1c-4.7,4-8,8.6-8,14s3.3,10.7,9.3,15.3c-1.3-6.6-2-13.3-2-20.6
			C380.8,243.4,380.8,240.7,380.8,238.1z"/>
	</g>
</g>
</svg>
