<?xml version="1.0" encoding="utf-8"?>
<!-- Generator: Adobe Illustrator 17.1.0, SVG Export Plug-In . SVG Version: 6.00 Build 0)  -->
<!DOCTYPE svg PUBLIC "-//W3C//DTD SVG 1.1//EN" "http://www.w3.org/Graphics/SVG/1.1/DTD/svg11.dtd">
<svg version="1.1" id="bucket-icon-svg" xmlns="http://www.w3.org/2000/svg" xmlns:xlink="http://www.w3.org/1999/xlink" x="0px"
	 y="0px" viewBox="488.7 112.9 570.7 626" enable-background="new 488.7 112.9 570.7 626" xml:space="preserve">
<line fill="none" stroke="#5A5A5A" stroke-width="60" stroke-miterlimit="10" x1="771.2" y1="493" x2="771.2" y2="691.5"/>
<g>
	<g>
		<path fill="#007DBA" d="M932.4,317c-13,25.2-79.2,44.8-159.3,44.8S626.9,342.2,612.9,317h-17.8l33.6,242.3h287.9L950.2,317H932.4
			L932.4,317z"/>
	</g>
	<g>
		<ellipse fill="#007DBA" cx="774" cy="559.2" rx="144.4" ry="47.4"/>
	</g>
	<path fill="#007DBA" d="M892.3,253.6c-31.6-11.2-74.5-16.7-119.3-16.7s-86.6,6.6-119.3,16.7c-48.4,15.8-58.6,37.4-58.6,53.2
		c0,15.8,10.4,37.4,58.6,53.2c31.6,11.2,74.5,16.7,119.3,16.7c45.6,0,87.6-5.6,119.3-16.7c48.4-15.8,58.6-37.4,58.6-53.2
		S940.8,269.5,892.3,253.6z M773,361.8c-89.4,0-162.1-24.2-162.1-54c0-29.8,72.6-54,162.1-54s162.1,24.2,162.1,54
		C935.2,337.5,862.6,361.8,773,361.8z"/>
	<path fill="#007DBA" d="M773,244.2c-89.4,0-168.7,34.4-168.7,64.4c0,30,78.2,68,168.7,68s171.5-40,171.5-69.8
		S862.6,244.2,773,244.2z M773,345.9c-96.9,0-146.3-26.2-146.3-38.2c0-12,49.4-38.2,146.3-38.2s146.3,26,146.3,38.2
		C919.3,319.9,870,345.9,773,345.9z"/>
	<g>
		<path fill="#007DBA" d="M774,112.9c-98.8,0-177.9,83.8-177.9,187.3S676.2,487.4,774,487.4s178-83.8,178-187.3
			S872.7,112.9,774,112.9z M774,462.4c-75.4,0-137.9-57.8-150-133.2c-8.4-6.6-13-14-13-21.4c0-6.6,3.8-13,11.2-19.6
			c5.6-83.8,71.8-150,151.9-150c81,0,147.2,67,151.9,151.9c5.6,5.6,9.2,11.2,9.2,17.8s-3.8,13-10.4,18.6
			C911.9,403.6,849.4,462.4,774,462.4z"/>
		<path fill="#007DBA" d="M935.2,307.7c0-6.6-2.8-12-9.2-17.8c0,3.8,0.8,6.6,0.8,10.4c0,9.2-0.8,17.8-1.8,26.2
			C930.5,320.6,935.2,314.2,935.2,307.7z"/>
		<path fill="#007DBA" d="M621.2,288.1c-6.6,5.6-11.2,12-11.2,19.6s4.6,15,13,21.4c-1.8-9.2-2.8-18.6-2.8-28.8
			C621.2,295.6,621.2,291.8,621.2,288.1z"/>
	</g>
</g>
<line fill="none" stroke="#5A5A5A" stroke-width="50" stroke-miterlimit="10" x1="513.7" y1="713.9" x2="1034.3" y2="713.9"/>
</svg>
