<?xml version="1.0" encoding="utf-8"?>
<!-- Generator: Adobe Illustrator 17.1.0, SVG Export Plug-In . SVG Version: 6.00 Build 0)  -->
<!DOCTYPE svg PUBLIC "-//W3C//DTD SVG 1.1//EN" "http://www.w3.org/Graphics/SVG/1.1/DTD/svg11.dtd">
<svg version="1.1" id="Layer_1" xmlns="http://www.w3.org/2000/svg" xmlns:xlink="http://www.w3.org/1999/xlink" x="0px" y="0px"
	 viewBox="16.7 18 68 68" enable-background="new 16.7 18 68 68" xml:space="preserve">
<g>
	<g>
		<defs>
			<rect id="SVGID_1_" x="16.7" y="18" width="68" height="68"/>
		</defs>
		<clipPath id="SVGID_2_">
			<use xlink:href="#SVGID_1_"  overflow="visible"/>
		</clipPath>
		<path clip-path="url(#SVGID_2_)" fill="#009E93" d="M50.7,86c18.8,0,34-15.2,34-34s-15.2-34-34-34s-34,15.2-34,34S31.9,86,50.7,86
			"/>
	</g>
	<g>
		<defs>
			<rect id="SVGID_3_" x="16.7" y="18" width="68" height="68"/>
		</defs>
		<clipPath id="SVGID_4_">
			<use xlink:href="#SVGID_3_"  overflow="visible"/>
		</clipPath>
		<path clip-path="url(#SVGID_4_)" fill="#FFFFFF" d="M66.8,63.8c2.9,0.3,5.7,0.2,8.6-0.1C76,58.1,75,51.8,69,49.5
			c2-1.2,3.3-3.3,3.3-5.7c-0.1-6.1-8-8.7-12.2-4.5c4.2,3.7,2.8,11.3-0.9,14.1C63.4,55,66.1,59.4,66.8,63.8 M55.8,53.4
			c8.3,3.2,9.6,11.8,8.7,19.5c-7.2,1.1-20.7,1.1-27.6,0c-0.8-7.7,0.5-16.2,8.8-19.5c-2.7-1.6-4.6-4.5-4.5-7.9c0.1-5,4.4-9.1,9.7-9
			c5.3,0.1,9.5,4.2,9.5,9.2C60.2,49,58.4,51.8,55.8,53.4 M34.6,63.8c-2.9,0.3-5.7,0.3-8.7-0.1c-0.6-5.6,0.3-11.9,6.3-14.2
			c-2-1.2-3.3-3.3-3.3-5.7c0.1-6.1,8-8.7,12.2-4.5c-4.3,3.9-3.1,11.3,0.9,14.1C38.3,54.8,35.2,59.7,34.6,63.8"/>
	</g>
	<g>
		<defs>
			<rect id="SVGID_5_" x="16.7" y="18" width="68" height="68"/>
		</defs>
		<clipPath id="SVGID_6_">
			<use xlink:href="#SVGID_5_"  overflow="visible"/>
		</clipPath>
		<path clip-path="url(#SVGID_6_)" fill="none" stroke="#FFFFFF" stroke-width="2.8464" stroke-miterlimit="10" d="M66.8,63.8
			c2.9,0.3,5.7,0.2,8.6-0.1C76,58.1,75,51.8,69,49.5c2-1.2,3.3-3.3,3.3-5.7c-0.1-6.1-8-8.7-12.2-4.5c4.2,3.7,2.8,11.3-0.9,14.1
			C63.4,55,66.1,59.4,66.8,63.8z M55.8,53.4c8.3,3.2,9.6,11.8,8.7,19.5c-7.2,1.1-20.7,1.1-27.6,0c-0.8-7.7,0.5-16.2,8.8-19.5
			c-2.7-1.6-4.6-4.5-4.5-7.9c0.1-5,4.4-9.1,9.7-9c5.3,0.1,9.5,4.2,9.5,9.2C60.2,49,58.4,51.8,55.8,53.4z M34.6,63.8
			c-2.9,0.3-5.7,0.3-8.7-0.1c-0.6-5.6,0.3-11.9,6.3-14.2c-2-1.2-3.3-3.3-3.3-5.7c0.1-6.1,8-8.7,12.2-4.5c-4.3,3.9-3.1,11.3,0.9,14.1
			C38.3,54.8,35.2,59.7,34.6,63.8z"/>
	</g>
	<g>
		<defs>
			<rect id="SVGID_7_" x="16.7" y="18" width="68" height="68"/>
		</defs>
		<clipPath id="SVGID_8_">
			<use xlink:href="#SVGID_7_"  overflow="visible"/>
		</clipPath>
		<path clip-path="url(#SVGID_8_)" fill="#009E93" d="M34.8,63.6c-2.9,0.3-5.6,0.3-8.6-0.1c-0.6-5.5,0.3-11.7,6.3-14
			c-2-1.2-3.3-3.2-3.2-5.6c0.1-6,7.9-8.5,12-4.4c-4.2,3.9-3.1,11.1,0.9,13.9C38.4,54.8,35.4,59.6,34.8,63.6"/>
	</g>
	<g>
		<defs>
			<rect id="SVGID_9_" x="16.7" y="18" width="68" height="68"/>
		</defs>
		<clipPath id="SVGID_10_">
			<use xlink:href="#SVGID_9_"  overflow="visible"/>
		</clipPath>
		<path clip-path="url(#SVGID_10_)" fill="#FFFFFF" d="M55.7,53.4c8.2,3.2,9.6,11.6,8.6,19.2c-7.2,1.1-20.5,1.1-27.4,0
			c-0.8-7.6,0.5-16,8.7-19.2c-2.7-1.6-4.5-4.5-4.5-7.8c0.1-5,4.4-9,9.6-8.9c5.3,0.1,9.5,4.1,9.4,9.1C60.2,49,58.4,51.8,55.7,53.4"/>
	</g>
	<g>
		<defs>
			<rect id="SVGID_11_" x="16.7" y="18" width="68" height="68"/>
		</defs>
		<clipPath id="SVGID_12_">
			<use xlink:href="#SVGID_11_"  overflow="visible"/>
		</clipPath>
		<g clip-path="url(#SVGID_12_)">
			<path fill="#009E93" d="M50.5,74c-5.4,0-10.4-0.3-13.7-0.9l-0.4-0.1l0-0.4c-0.7-6.9,0.1-15.7,8.2-19.4c-2.5-1.8-4-4.6-3.9-7.7
				c0.1-5.2,4.5-9.4,10-9.4l0.1,0c2.7,0,5.2,1,7,2.9c1.9,1.8,2.9,4.2,2.9,6.8c0,2.9-1.5,5.7-3.9,7.4c6.4,2.9,9.3,9.8,8.1,19.4l0,0.4
				l-0.4,0.1C61,73.7,55.9,74,50.5,74z M37.4,72.2c3.3,0.5,8,0.8,13.2,0.8c5.1,0,10-0.3,13.4-0.8c0.7-6.7-0.1-15.2-8.4-18.3l-1-0.4
				l0.9-0.5c2.6-1.6,4.2-4.2,4.2-7.1c0-2.3-0.9-4.4-2.6-6c-1.7-1.6-3.9-2.5-6.4-2.6l-0.1,0c-4.9,0-9,3.8-9,8.4c0,3,1.6,5.7,4.2,7.3
				l0.9,0.5l-1,0.4C37.7,57,36.7,65.5,37.4,72.2z"/>
		</g>
	</g>
	<g>
		<defs>
			<rect id="SVGID_13_" x="16.7" y="18" width="68" height="68"/>
		</defs>
		<clipPath id="SVGID_14_">
			<use xlink:href="#SVGID_13_"  overflow="visible"/>
		</clipPath>
		<path clip-path="url(#SVGID_14_)" fill="#009E93" d="M66.6,63.6c2.9,0.3,5.6,0.2,8.5-0.1c0.6-5.5-0.3-11.7-6.3-14
			c2-1.2,3.3-3.2,3.2-5.6c-0.1-6-7.9-8.5-12.1-4.4c4.1,3.7,2.8,11.1-0.9,13.8C63.2,55,65.9,59.3,66.6,63.6"/>
	</g>
</g>
</svg>
