<?xml version="1.0" encoding="utf-8"?>
<!-- Generator: Adobe Illustrator 17.1.0, SVG Export Plug-In . SVG Version: 6.00 Build 0)  -->
<!DOCTYPE svg PUBLIC "-//W3C//DTD SVG 1.1//EN" "http://www.w3.org/Graphics/SVG/1.1/DTD/svg11.dtd">
<svg version="1.1" id="Layer_1" xmlns="http://www.w3.org/2000/svg" xmlns:xlink="http://www.w3.org/1999/xlink" x="0px" y="0px"
	 viewBox="0 5 68 68" enable-background="new 0 5 68 68" xml:space="preserve">
<g>
	<g>
		<g>
			<defs>
				<rect id="SVGID_1_" y="5" width="68" height="68"/>
			</defs>
			<clipPath id="SVGID_2_">
				<use xlink:href="#SVGID_1_"  overflow="visible"/>
			</clipPath>
			<path clip-path="url(#SVGID_2_)" fill="#01405F" d="M34,73c18.8,0,34-15.2,34-34S52.8,5,34,5S0,20.2,0,39S15.2,73,34,73"/>
		</g>
	</g>
	<g>
		<g>
			<defs>
				<rect id="SVGID_3_" y="5" width="68" height="68"/>
			</defs>
			<clipPath id="SVGID_4_">
				<use xlink:href="#SVGID_3_"  overflow="visible"/>
			</clipPath>
			<path clip-path="url(#SVGID_4_)" fill="#FFFFFF" d="M31.4,33.6L55,33.9c0.5,0,1.1,0.6,1.5,0.9L59,37c0.7,0.6,0.3,1.4,0,2.1
				L56.3,44c-0.2,0.4-0.9,0.9-1.4,0.9h-2.1l-2.5-2.3l-2.6,2.2h-1.4l-2.5-2.3l-2.6,2.2h-1.4l-2.5-2.2l-2.6,2.2h-3.5
				c0.9-1.6,1.4-3.5,1.5-5.5c0-0.1,0-0.3,0-0.4h20.6c0.7,0,1.7-0.3,1.8-0.9c0-0.6-1.1-0.9-1.8-0.9l-20.8-0.4
				C32.2,35.5,31.9,34.5,31.4,33.6 M14.3,35.9c-1.7,0-3.1,1.3-3.2,3c0,1.7,1.3,3,3,3.1s3.1-1.3,3.2-3C17.4,37.3,16,35.9,14.3,35.9
				 M19.8,28.2c6.1,0.1,10.9,4.9,10.7,10.9c-0.1,5.9-5.2,10.7-11.3,10.6c-6.1-0.1-10.9-4.9-10.7-10.9C8.7,32.9,13.7,28.2,19.8,28.2"
				/>
		</g>
	</g>
</g>
</svg>
