<?xml version="1.0" encoding="utf-8"?>
<!-- Generator: Adobe Illustrator 17.1.0, SVG Export Plug-In . SVG Version: 6.00 Build 0)  -->
<!DOCTYPE svg PUBLIC "-//W3C//DTD SVG 1.1//EN" "http://www.w3.org/Graphics/SVG/1.1/DTD/svg11.dtd">
<svg version="1.1" id="Layer_1" xmlns="http://www.w3.org/2000/svg" xmlns:xlink="http://www.w3.org/1999/xlink" x="0px" y="0px"
	 viewBox="200 5 560 560" enable-background="new 200 5 560 560" xml:space="preserve">
<g>
	<g>
		<g>
			<g>
				<g>
					<defs>
						<rect id="SVGID_1_" x="200" y="5" width="560" height="560"/>
					</defs>
					<clipPath id="SVGID_2_">
						<use xlink:href="#SVGID_1_"  overflow="visible"/>
					</clipPath>
					<path clip-path="url(#SVGID_2_)" fill="#000000" d="M480,565c154.8,0,280-125.2,280-280S634.8,5,480,5S200,130.2,200,285
						S325.2,565,480,565"/>
				</g>
			</g>
		</g>
	</g>
	<g>
		<g>
			<g>
				<g>
					<defs>
						<rect id="SVGID_3_" x="200" y="5" width="560" height="560"/>
					</defs>
					<clipPath id="SVGID_4_">
						<use xlink:href="#SVGID_3_"  overflow="visible"/>
					</clipPath>
					<g clip-path="url(#SVGID_4_)">
						<path fill="#FFFFFF" d="M482.5,126.1l22.2,17.3c28.8,22.2,59.3,33.8,89.8,33.8c19.8,0,32.9-4.9,32.9-4.9l45.3-19.8l3.3,42.8
							c0,2.5,3.3,51.9-15.6,112.8c-11.5,36.2-28.8,69.2-51.1,97.2c-28.8,36.2-65.9,65.1-109.5,86.5l-16.5,8.2l-16.5-8.2
							c-44.5-21.4-81.5-50.2-109.5-86.5c-22.2-28.8-39.5-60.9-51.1-97.2c-19.8-60.9-15.6-111.2-15.6-112.8l3.3-44.5l45.3,21.4
							c1.6,0.8,14,4.9,32.9,4.9c30.5,0,60.9-11.5,89.8-33.8L482.5,126.1z"/>
						<path fill="#FFFFFF" d="M483.3,504.1l-18.1-9.1c-45.3-22.2-83.2-51.9-111.2-87.3c-23.1-29.6-40.4-62.6-51.9-98.8
							c-17.3-52.7-16.5-97.2-15.6-113.6v-0.8l4.1-50.2l51.1,23.9c1.6,0.8,13.2,4.9,31.3,4.9c29.6,0,59.3-10.7,87.3-32.9l23.1-18.9
							l24.7,18.9c28,21.4,57.6,32.9,87.3,32.9c18.9,0,31.3-4.9,31.3-4.9l50.2-22.2l4.1,49.4c0.8,16.5,0,60.9-15.6,112.8
							c-11.5,37.1-28.8,70-51.9,98.8c-28.8,36.2-65.9,65.9-111.2,87.3L483.3,504.1z M297.2,157.4l-2.5,38.7
							c-0.8,13.2-1.6,58.5,15.6,111.2c10.7,34.6,28,66.7,50.2,95.5c27.2,35.4,63.4,64.2,107.9,85.6l14.8,7.4l14.8-7.4
							C541.8,467,578,438.2,606,402.8c22.2-28,38.7-60.1,50.2-96.4c15.6-51.1,16.5-93.9,15.6-110.4v-0.8l-2.5-37.1l-40.4,17.3
							c-0.8,0-14,4.9-34.6,4.9c-31.3,0-62.6-11.5-92.2-34.6l-19.8-15.6L464.4,145c-29.6,23.1-60.9,34.6-92.2,34.6
							c-19.8,0-32.9-4.1-34.6-5.8L297.2,157.4z"/>
					</g>
				</g>
			</g>
		</g>
	</g>
	<g>
		<g>
			<g>
				<g>
					<defs>
						<rect id="SVGID_5_" x="200" y="5" width="560" height="560"/>
					</defs>
					<clipPath id="SVGID_6_">
						<use xlink:href="#SVGID_5_"  overflow="visible"/>
					</clipPath>
					<path clip-path="url(#SVGID_6_)" fill="#FFFFFF" d="M482.5,117l-4.9,4.1l-23.1,17.3c-27.2,21.4-56,32.1-84.8,32.1
						c-16.5,0-27.2-3.3-29.6-4.1L295.5,145l-10.7-4.9l-0.8,10.7l-3.3,44.5c0,2.5-4.1,53.5,16.5,115.3c11.5,37.1,29.6,70.8,52.7,99.6
						c29.6,37.1,67.5,66.7,112.8,88.9l16.5,8.2l4.1,1.6l4.1-1.6l16.5-8.2c45.3-22.2,83.2-51.9,112.8-88.9
						c23.1-28.8,41.2-62.6,52.7-99.6c19.8-61.8,16.5-113.6,16.5-115.3l-3.3-43.6l-2.5-9.1l-10.7,4.9l-45.3,19.8
						c-0.8,0.8-12.4,4.1-29.6,4.1c-28.8,0-56.8-10.7-84.8-32.1l-23.1-17.3L482.5,117z M482.5,126.1l23.1,17.3
						c28.8,22.2,59.3,33.8,89.8,33.8c19.8,0,32.9-4.9,32.9-4.9l45.3-19.8l3.3,43.6c0,2.5,3.3,51.9-15.6,113.6
						c-11.5,36.2-28.8,69.2-51.9,98c-28.8,36.2-65.9,65.1-110.4,86.5l-16.5,8.2l-16.5-8.2c-44.5-21.4-81.5-50.2-110.4-86.5
						c-22.2-28.8-40.4-61.8-51.9-98c-19.8-60.9-15.6-111.2-15.6-113.6l3.3-44.5l45.3,21.4c1.6,0.8,14,4.9,32.9,4.9
						c30.5,0,60.9-11.5,89.8-33.8L482.5,126.1z"/>
				</g>
			</g>
		</g>
	</g>
	<g>
		<g>
			<g>
				<g>
					<defs>
						<rect id="SVGID_7_" x="200" y="5" width="560" height="560"/>
					</defs>
					<clipPath id="SVGID_8_">
						<use xlink:href="#SVGID_7_"  overflow="visible"/>
					</clipPath>
					<path clip-path="url(#SVGID_8_)" fill="none" stroke="#FFFFFF" stroke-width="0.4744" stroke-miterlimit="10" d="M482.5,117
						l-4.9,4.1l-23.1,17.3c-27.2,21.4-56,32.1-84.8,32.1c-16.5,0-27.2-3.3-29.6-4.1L295.5,145l-10.7-4.9l-0.8,10.7l-3.3,44.5
						c0,2.5-4.1,53.5,16.5,115.3c11.5,37.1,29.6,70.8,52.7,99.6c29.6,37.1,67.5,66.7,112.8,88.9l16.5,8.2l4.1,1.6l4.1-1.6l16.5-8.2
						c45.3-22.2,83.2-51.9,112.8-88.9c23.1-28.8,41.2-62.6,52.7-99.6c19.8-61.8,16.5-113.6,16.5-115.3l-3.3-43.6l-2.5-9.1l-10.7,4.9
						l-45.3,19.8c-0.8,0.8-12.4,4.1-29.6,4.1c-28.8,0-56.8-10.7-84.8-32.1l-23.1-17.3L482.5,117z M482.5,126.1l23.1,17.3
						c28.8,22.2,59.3,33.8,89.8,33.8c19.8,0,32.9-4.9,32.9-4.9l45.3-19.8l3.3,43.6c0,2.5,3.3,51.9-15.6,113.6
						c-11.5,36.2-28.8,69.2-51.9,98c-28.8,36.2-65.9,65.1-110.4,86.5l-16.5,8.2l-16.5-8.2c-44.5-21.4-81.5-50.2-110.4-86.5
						c-22.2-28.8-40.4-61.8-51.9-98c-19.8-60.9-15.6-111.2-15.6-113.6l3.3-44.5l45.3,21.4c1.6,0.8,14,4.9,32.9,4.9
						c30.5,0,60.9-11.5,89.8-33.8L482.5,126.1z"/>
				</g>
			</g>
		</g>
	</g>
	<g>
		<g>
			<g>
				<g>
					<defs>
						<rect id="SVGID_9_" x="200" y="5" width="560" height="560"/>
					</defs>
					<clipPath id="SVGID_10_">
						<use xlink:href="#SVGID_9_"  overflow="visible"/>
					</clipPath>
					<path clip-path="url(#SVGID_10_)" fill="#000000" d="M482.5,315.5v135.1c-57.6-30.5-98-75.8-121.9-135.1L482.5,315.5V185.4
						c43.6,29.6,84.8,36.2,112,36.2c11.5,0,21.4-0.8,29.6-2.5c-0.8,18.1-4.1,46.9-14,78.2c-1.6,5.8-4.1,11.5-6.6,17.3L482.5,315.5z
						 M661.2,196.9l-1.6-23.9l-24.7,10.7c0,0-15.6,6.6-39.5,6.6c-34.6,0-68.4-12.4-99.6-37.1l-13.2-9.1l-12.4,9.1
						c-9.1,7.4-18.1,13.2-28,18.1c-23.1,12.4-47.8,18.9-72.5,18.9c-23.1,0-38.7-5.8-39.5-6.6l-17.3-7.4l-7.4-3.3l-1.6,23.9
						c0,1.6-2.5,38.7,9.1,87.3c1.6,6.6,3.3,14,5.8,21.4c0.8,3.3,2.5,5.8,3.3,9.1c10.7,31.3,26.4,59.3,46.1,84
						c27.2,34.6,62.6,61.8,104.6,82.4l9.1,4.1l9.1-4.1c14-6.6,28-14.8,40.4-23.1c24.7-16.5,46.1-36.2,64.2-59.3
						c19.8-24.7,35.4-53.5,46.1-84c0.8-3.3,2.5-5.8,3.3-9.1C664.5,247.1,661.2,199.4,661.2,196.9"/>
				</g>
			</g>
		</g>
	</g>
</g>
</svg>
