<?xml version="1.0" encoding="utf-8"?>
<!-- Generator: Adobe Illustrator 17.1.0, SVG Export Plug-In . SVG Version: 6.00 Build 0)  -->
<!DOCTYPE svg PUBLIC "-//W3C//DTD SVG 1.1//EN" "http://www.w3.org/Graphics/SVG/1.1/DTD/svg11.dtd">
<svg version="1.1" id="Layer_1" xmlns="http://www.w3.org/2000/svg" xmlns:xlink="http://www.w3.org/1999/xlink" x="0px" y="0px"
	 viewBox="183.5 5 576.5 576.5" enable-background="new 183.5 5 576.5 576.5" xml:space="preserve">
<g>
	<path fill="#425563" d="M480,565c154.8,0,280-125.2,280-280S634.8,5,480,5S200,130.2,200,285S325.2,565,480,565"/>
</g>
<g>
	<path fill="#FFFFFF" d="M633.2,322.9c2.5-1.6,16.5-15.6,18.1-17.3c17.3-15.6,28-37.1,28-61.8c0-46.1-37.9-84-84-84
		c-9.1,0-17.3,1.6-25.5,4.1c-4.9-54.4-51.1-96.4-106.2-96.4c-59.3,0-107.1,47.8-107.1,107.1c0,7.4,0.8,14,2.5,20.6h-19.8
		c-36.2,0-65.9,29.6-65.9,65.9c0,30.5,20.6,55.2,47.8,63.4L633.2,322.9z"/>
</g>
<rect x="343.3" y="207.6" fill="#425563" width="276.7" height="280"/>
<path fill="#FFFFFF" d="M386.1,465.4h-20.6V364.9h20.6V465.4z M419.9,465.4h-20.6V364.9h20.6V465.4z M355.6,476.9h74.9V218.3h-74.9
	V476.9z"/>
<path fill="#FFFFFF" d="M475.9,465.4h-20.6V364.9h20.6V465.4z M509.6,465.4h-20.6V364.9h20.6V465.4z M444.6,476.9h74.9V218.3h-74.9
	V476.9L444.6,476.9z"/>
<path fill="#FFFFFF" d="M565.6,465.4h-20.6V364.9h20.6V465.4z M599.4,465.4h-20.6V364.9h20.6V465.4z M534.4,476.9h74.9V218.3h-74.9
	V476.9z"/>
<g>
	<g>
		<path fill="#425563" d="M590.4,256.2c0,9.9-7.4,18.1-17.3,18.1c-9.9,0-17.3-8.2-17.3-18.1c0-9.9,7.4-18.1,17.3-18.1
			C582.9,238.1,590.4,246.3,590.4,256.2"/>
	</g>
	<g>
		<path fill="#425563" d="M499.8,256.2c0,9.9-7.4,18.1-17.3,18.1c-9.9,0-17.3-8.2-17.3-18.1c0-9.9,7.4-18.1,17.3-18.1
			C491.5,238.1,499.8,246.3,499.8,256.2"/>
	</g>
	<g>
		<path fill="#425563" d="M410,256.2c0,9.9-7.4,18.1-17.3,18.1s-17.3-8.2-17.3-18.1c0-9.9,7.4-18.1,17.3-18.1S410,246.3,410,256.2"
			/>
	</g>
</g>
<path display="none" fill="#FFFFFF" d="M334.2,280.1c-83.2,0-150.7,67.5-150.7,150.7s67.5,150.7,150.7,150.7s150.7-67.5,150.7-150.7
	S416.6,280.1,334.2,280.1z M334.2,565C260.1,565,200,504.9,200,430.8s60.1-134.2,134.2-134.2s134.2,60.1,134.2,134.2
	S407.5,565,334.2,565z"/>
<circle fill="#8B0000" cx="389.5" cy="390.4" r="134.2"/>
<rect x="336.6" y="342.5" fill="#FFFFFF" width="107.9" height="107.9"/>
</svg>
