<?xml version="1.0" encoding="utf-8"?>
<!-- Generator: Adobe Illustrator 17.1.0, SVG Export Plug-In . SVG Version: 6.00 Build 0)  -->
<!DOCTYPE svg PUBLIC "-//W3C//DTD SVG 1.1//EN" "http://www.w3.org/Graphics/SVG/1.1/DTD/svg11.dtd">
<svg version="1.1" id="Layer_1" xmlns="http://www.w3.org/2000/svg" xmlns:xlink="http://www.w3.org/1999/xlink" x="0px" y="0px"
	 viewBox="16.7 18 68 68" enable-background="new 16.7 18 68 68" xml:space="preserve">
<g>
	<g>
		<g>
			<defs>
				<rect id="SVGID_1_" x="16.7" y="18" width="68" height="68"/>
			</defs>
			<clipPath id="SVGID_2_">
				<use xlink:href="#SVGID_1_"  overflow="visible"/>
			</clipPath>
			<path clip-path="url(#SVGID_2_)" fill="#01405F" d="M50.7,86c18.8,0,34-15.2,34-34s-15.2-34-34-34s-34,15.2-34,34
				S31.9,86,50.7,86"/>
		</g>
		<g>
			<defs>
				<rect id="SVGID_3_" x="16.7" y="18" width="68" height="68"/>
			</defs>
			<clipPath id="SVGID_4_">
				<use xlink:href="#SVGID_3_"  overflow="visible"/>
			</clipPath>
			<path clip-path="url(#SVGID_4_)" fill="#FFFFFF" d="M69.3,56.6c0.3-0.2,2-1.9,2.2-2.1c2.1-1.9,3.4-4.5,3.4-7.5
				c0-5.6-4.6-10.2-10.2-10.2c-1.1,0-2.1,0.2-3.1,0.5c-0.6-6.6-6.2-11.7-12.9-11.7c-7.2,0-13,5.8-13,13c0,0.9,0.1,1.7,0.3,2.5h-2.4
				c-4.4,0-8,3.6-8,8c0,3.7,2.5,6.7,5.8,7.7L69.3,56.6z"/>
		</g>
	</g>
	<rect x="26.9" y="47.2" fill="#FFFFFF" width="46.6" height="26.2"/>
	<rect x="28.6" y="44.8" fill="#01405F" width="43.3" height="27"/>
	<rect x="31.4" y="47.7" fill="#FFFFFF" width="37.7" height="21.4"/>
	<g>
		<g>
			<defs>
				<rect id="SVGID_5_" x="16.7" y="18" width="68" height="68"/>
			</defs>
			<clipPath id="SVGID_6_">
				<use xlink:href="#SVGID_5_"  overflow="visible"/>
			</clipPath>
			<path clip-path="url(#SVGID_6_)" fill="#01405F" d="M66.1,56.7c0,0.1,0.1,0.2,0.2,0.2c0.1,0.1,0.1,0.1,0.2,0.2
				c0.1,0,0.2,0.1,0.3,0.1c0.1,0,0.2,0,0.3-0.1c0.1,0,0.2-0.1,0.2-0.2s0.1-0.1,0.2-0.2c0-0.1,0.1-0.2,0.1-0.3s0-0.2-0.1-0.3
				c0-0.1-0.1-0.2-0.2-0.2s-0.2-0.1-0.2-0.2c-0.1,0-0.2-0.1-0.3-0.1c-0.1,0-0.2,0-0.3,0.1c-0.1,0-0.2,0.1-0.2,0.2
				c-0.1,0.1-0.1,0.1-0.2,0.2c0,0.1-0.1,0.2-0.1,0.3S66,56.6,66.1,56.7 M61.8,57.1h3.6v-1h-1.1v-5.3h-1.1l-2,1.6l0.4,0.6
				c0,0,0.1,0.1,0.1,0.1c0.1,0,0.1,0,0.2,0c0,0,0.1,0,0.1,0c0,0,0.1,0,0.1-0.1l0.7-0.6c0,0.2,0,0.3,0,0.5v3.1h-1.2V57.1z M56.7,57.1
				h3.6v-1h-1.1v-5.3h-1.1l-2,1.6l0.4,0.6c0,0,0.1,0.1,0.1,0.1c0.1,0,0.1,0,0.2,0c0,0,0.1,0,0.1,0c0,0,0.1,0,0.1-0.1l0.7-0.6
				c0,0.2,0,0.3,0,0.5v3.1h-1.2L56.7,57.1z M51.6,57.1h3.6v-1h-1.1v-5.3h-1.1l-2,1.6l0.4,0.6c0,0,0.1,0.1,0.1,0.1c0.1,0,0.1,0,0.2,0
				c0,0,0.1,0,0.1,0s0.1,0,0.1-0.1l0.7-0.6c0,0.2,0,0.3,0,0.5v3.1h-1.2V57.1z M48.8,56.7c0,0.1,0.1,0.2,0.2,0.2
				c0.1,0.1,0.1,0.1,0.2,0.2c0.1,0,0.2,0.1,0.3,0.1c0.1,0,0.2,0,0.3-0.1c0.1,0,0.2-0.1,0.2-0.2c0.1-0.1,0.1-0.1,0.2-0.2
				c0-0.1,0.1-0.2,0.1-0.3s0-0.2-0.1-0.3c0-0.1-0.1-0.2-0.2-0.2c-0.1-0.1-0.2-0.1-0.2-0.2c-0.1,0-0.2-0.1-0.3-0.1
				c-0.1,0-0.2,0-0.3,0.1c-0.1,0-0.2,0.1-0.2,0.2c-0.1,0.1-0.1,0.1-0.2,0.2c0,0.1-0.1,0.2-0.1,0.3S48.7,56.6,48.8,56.7 M44.5,57.1
				h3.6v-1H47v-5.3h-1.1l-2,1.6l0.4,0.6c0,0,0.1,0.1,0.1,0.1c0.1,0,0.1,0,0.2,0c0,0,0.1,0,0.1,0c0,0,0.1,0,0.1-0.1l0.7-0.6
				c0,0.2,0,0.3,0,0.5v3.1h-1.2L44.5,57.1z M39.4,57.1H43v-1H42v-5.3h-1.1l-2,1.6l0.4,0.6c0,0,0.1,0.1,0.1,0.1c0.1,0,0.1,0,0.2,0
				c0,0,0.1,0,0.1,0c0,0,0.1,0,0.1-0.1l0.7-0.6c0,0.2,0,0.3,0,0.5v3.1h-1.2V57.1z M34.3,57.1h3.6v-1h-1.1v-5.3h-1.1l-2,1.6l0.4,0.6
				c0,0,0.1,0.1,0.1,0.1c0.1,0,0.1,0,0.2,0c0,0,0.1,0,0.1,0c0,0,0.1,0,0.1-0.1l0.7-0.6c0,0.2,0,0.3,0,0.5v3.1h-1.2L34.3,57.1z"/>
		</g>
		<g>
			<defs>
				<rect id="SVGID_7_" x="16.7" y="18" width="68" height="68"/>
			</defs>
			<clipPath id="SVGID_8_">
				<use xlink:href="#SVGID_7_"  overflow="visible"/>
			</clipPath>
			<path clip-path="url(#SVGID_8_)" fill="#01405F" d="M61.8,66.2h3.6v-1h-1.1v-5.3h-1.1l-2,1.6l0.4,0.6c0,0,0.1,0.1,0.1,0.1
				c0.1,0,0.1,0,0.2,0c0,0,0.1,0,0.1,0c0,0,0.1,0,0.1-0.1l0.7-0.6c0,0.2,0,0.3,0,0.5v3.1h-1.2V66.2z M56.7,66.2h3.6v-1h-1.1v-5.3
				h-1.1l-2,1.6l0.4,0.6c0,0,0.1,0.1,0.1,0.1c0.1,0,0.1,0,0.2,0c0,0,0.1,0,0.1,0c0,0,0.1,0,0.1-0.1l0.7-0.6c0,0.2,0,0.3,0,0.5v3.1
				h-1.2L56.7,66.2z M51.6,66.2h3.6v-1h-1.1v-5.3h-1.1l-2,1.6l0.4,0.6c0,0,0.1,0.1,0.1,0.1c0.1,0,0.1,0,0.2,0c0,0,0.1,0,0.1,0
				c0,0,0.1,0,0.1-0.1l0.7-0.6c0,0.2,0,0.3,0,0.5v3.1h-1.2V66.2z M48.8,65.8c0,0.1,0.1,0.2,0.2,0.2c0.1,0.1,0.1,0.1,0.2,0.2
				c0.1,0,0.2,0.1,0.3,0.1c0.1,0,0.2,0,0.3-0.1c0.1,0,0.2-0.1,0.2-0.2c0.1-0.1,0.1-0.1,0.2-0.2c0-0.1,0.1-0.2,0.1-0.3
				c0-0.1,0-0.2-0.1-0.3c0-0.1-0.1-0.2-0.2-0.2c-0.1-0.1-0.2-0.1-0.2-0.2c-0.1,0-0.2-0.1-0.3-0.1c-0.1,0-0.2,0-0.3,0.1
				c-0.1,0-0.2,0.1-0.2,0.2c-0.1,0.1-0.1,0.1-0.2,0.2c0,0.1-0.1,0.2-0.1,0.3C48.7,65.6,48.7,65.7,48.8,65.8 M44.5,66.2h3.6v-1H47
				v-5.3h-1.1l-2,1.6l0.4,0.6c0,0,0.1,0.1,0.1,0.1c0.1,0,0.1,0,0.2,0c0,0,0.1,0,0.1,0c0,0,0.1,0,0.1-0.1l0.7-0.6c0,0.2,0,0.3,0,0.5
				v3.1h-1.2L44.5,66.2z M39.4,66.2H43v-1H42v-5.3h-1.1l-2,1.6l0.4,0.6c0,0,0.1,0.1,0.1,0.1c0.1,0,0.1,0,0.2,0c0,0,0.1,0,0.1,0
				c0,0,0.1,0,0.1-0.1l0.7-0.6c0,0.2,0,0.3,0,0.5v3.1h-1.2V66.2z M34.3,66.2h3.6v-1h-1.1v-5.3h-1.1l-2,1.6l0.4,0.6
				c0,0,0.1,0.1,0.1,0.1c0.1,0,0.1,0,0.2,0c0,0,0.1,0,0.1,0c0,0,0.1,0,0.1-0.1l0.7-0.6c0,0.2,0,0.3,0,0.5v3.1h-1.2L34.3,66.2z"/>
		</g>
	</g>
</g>
</svg>
