<?xml version="1.0" encoding="utf-8"?>
<!-- Generator: Adobe Illustrator 17.1.0, SVG Export Plug-In . SVG Version: 6.00 Build 0)  -->
<!DOCTYPE svg PUBLIC "-//W3C//DTD SVG 1.1//EN" "http://www.w3.org/Graphics/SVG/1.1/DTD/svg11.dtd">
<svg version="1.1" id="Layer_1" xmlns="http://www.w3.org/2000/svg" xmlns:xlink="http://www.w3.org/1999/xlink" x="0px" y="0px"
	 viewBox="16.7 18 68 68" enable-background="new 16.7 18 68 68" xml:space="preserve">
<g>
	<g>
		<g>
			<path fill="#01405F" d="M50.7,86c18.8,0,34-15.2,34-34s-15.2-34-34-34s-34,15.2-34,34S31.9,86,50.7,86"/>
		</g>
		<g>
			<path fill="#FFFFFF" d="M69.3,56.6c0.3-0.2,2-1.9,2.2-2.1c2.1-1.9,3.4-4.5,3.4-7.5c0-5.6-4.6-10.2-10.2-10.2
				c-1.1,0-2.1,0.2-3.1,0.5c-0.6-6.6-6.2-11.7-12.9-11.7c-7.2,0-13,5.8-13,13c0,0.9,0.1,1.7,0.3,2.5h-2.4c-4.4,0-8,3.6-8,8
				c0,3.7,2.5,6.7,5.8,7.7L69.3,56.6z"/>
		</g>
	</g>
	<rect x="34.1" y="42.6" fill="#01405F" width="33.6" height="34"/>
	<path fill="#FFFFFF" d="M39.3,73.9h-2.5V61.7h2.5V73.9z M43.4,73.9h-2.5V61.7h2.5V73.9z M35.6,75.3h9.1V43.9h-9.1V75.3z"/>
	<path fill="#FFFFFF" d="M50.2,73.9h-2.5V61.7h2.5V73.9z M54.3,73.9h-2.5V61.7h2.5V73.9z M46.4,75.3h9.1V43.9h-9.1V75.3z"/>
	<path fill="#FFFFFF" d="M61.1,73.9h-2.5V61.7h2.5L61.1,73.9z M65.2,73.9h-2.5V61.7h2.5V73.9z M57.3,75.3h9.1V43.9h-9.1V75.3z"/>
	<g>
		<g>
			<path fill="#01405F" d="M64.1,48.5c0,1.2-0.9,2.2-2.1,2.2s-2.1-1-2.1-2.2c0-1.2,0.9-2.2,2.1-2.2S64.1,47.3,64.1,48.5"/>
		</g>
		<g>
			<path fill="#01405F" d="M53.1,48.5c0,1.2-0.9,2.2-2.1,2.2c-1.2,0-2.1-1-2.1-2.2c0-1.2,0.9-2.2,2.1-2.2
				C52.1,46.3,53.1,47.3,53.1,48.5"/>
		</g>
		<g>
			<path fill="#01405F" d="M42.2,48.5c0,1.2-0.9,2.2-2.1,2.2c-1.2,0-2.1-1-2.1-2.2c0-1.2,0.9-2.2,2.1-2.2
				C41.3,46.3,42.2,47.3,42.2,48.5"/>
		</g>
	</g>
</g>
<g>
	<path fill="#EE4036" d="M50.2,69.7c0-9.5-7.7-17.2-17.2-17.2c-7.4,0-13.8,4.7-16.2,11.4v11.8c1.7,4.8,5.5,8.6,10.3,10.3h11.7
		C45.4,83.6,50.2,77.2,50.2,69.7z"/>
	<path fill="#FFFFFF" d="M51.2,69.8c0-10.1-8.2-18.2-18.2-18.2c-7,0-13.2,4-16.2,9.9v7.3c0.5-8.5,7.6-15.2,16.2-15.2
		c9,0,16.2,7.3,16.2,16.2c0,8.7-6.8,15.7-15.4,16.2h7.5C47.1,82.9,51.2,76.8,51.2,69.8z"/>
	<path fill="#FFFFFF" d="M16.7,70.8v7.3c1.7,3.3,4.5,6.1,7.8,7.8H32C23.8,85.5,17.2,79,16.7,70.8z"/>
</g>
<rect x="26.4" y="63.2" fill="#FFFFFF" width="13.1" height="13.1"/>
</svg>
