<?xml version="1.0" encoding="utf-8"?>
<!-- Generator: Adobe Illustrator 17.1.0, SVG Export Plug-In . SVG Version: 6.00 Build 0)  -->
<!DOCTYPE svg PUBLIC "-//W3C//DTD SVG 1.1//EN" "http://www.w3.org/Graphics/SVG/1.1/DTD/svg11.dtd">
<svg version="1.1" id="Layer_1" xmlns="http://www.w3.org/2000/svg" xmlns:xlink="http://www.w3.org/1999/xlink" x="0px" y="0px"
	 viewBox="16.7 18 68 68" enable-background="new 16.7 18 68 68" xml:space="preserve">
<g>
	<g>
		<g>
			<path fill="#01405F" d="M50.7,86c18.8,0,34-15.2,34-34s-15.2-34-34-34s-34,15.2-34,34S31.9,86,50.7,86"/>
		</g>
		<g>
			<path fill="#FFFFFF" d="M69.3,56.6c0.3-0.2,2-1.9,2.2-2.1c2.1-1.9,3.4-4.5,3.4-7.5c0-5.6-4.6-10.2-10.2-10.2
				c-1.1,0-2.1,0.2-3.1,0.5c-0.6-6.6-6.2-11.7-12.9-11.7c-7.2,0-13,5.8-13,13c0,0.9,0.1,1.7,0.3,2.5h-2.4c-4.4,0-8,3.6-8,8
				c0,3.7,2.5,6.7,5.8,7.7L69.3,56.6z"/>
		</g>
	</g>
	<rect x="34.1" y="42.6" fill="#01405F" width="33.6" height="34"/>
	<path fill="#FFFFFF" d="M39.3,73.9h-2.5V61.7h2.5V73.9z M43.4,73.9h-2.5V61.7h2.5V73.9z M35.6,75.3h9.1V43.9h-9.1V75.3z"/>
	<path fill="#FFFFFF" d="M50.2,73.9h-2.5V61.7h2.5V73.9z M54.3,73.9h-2.5V61.7h2.5V73.9z M46.4,75.3h9.1V43.9h-9.1V75.3z"/>
	<path fill="#FFFFFF" d="M61.1,73.9h-2.5V61.7h2.5L61.1,73.9z M65.2,73.9h-2.5V61.7h2.5V73.9z M57.3,75.3h9.1V43.9h-9.1V75.3z"/>
	<g>
		<g>
			<path fill="#01405F" d="M64.1,48.5c0,1.2-0.9,2.2-2.1,2.2c-1.2,0-2.1-1-2.1-2.2c0-1.2,0.9-2.2,2.1-2.2
				C63.2,46.3,64.1,47.3,64.1,48.5"/>
		</g>
		<g>
			<path fill="#01405F" d="M53.1,48.5c0,1.2-0.9,2.2-2.1,2.2c-1.2,0-2.1-1-2.1-2.2c0-1.2,0.9-2.2,2.1-2.2
				C52.1,46.3,53.1,47.3,53.1,48.5"/>
		</g>
		<g>
			<path fill="#01405F" d="M42.2,48.5c0,1.2-0.9,2.2-2.1,2.2s-2.1-1-2.1-2.2c0-1.2,0.9-2.2,2.1-2.2C41.3,46.3,42.2,47.3,42.2,48.5"
				/>
		</g>
	</g>
</g>
<g id="layer1" transform="translate(-103.19 -530.74)">
	<g id="path1872">
		<path fill="#81BD41" d="M151.5,590.9l-5.3-6.6l-0.8,1c-0.4,0.5-9.6,11.7-12.7,18.9c-0.2,0.4-0.4,0.8-0.6,1.3
			c-0.2,0.4-0.4,0.8-0.6,1.3c-1.9-3.1-5-8.8-5-8.9l-0.5-0.9l-6.1,3.2v2.4c2.1,2.3,9.1,10.1,11.9,14.2h2.2c2.3-10,16.7-25,16.9-25.2
			L151.5,590.9z"/>
		<path fill="#FFFFFF" d="M152.9,591l-1.1-1.4l-4-5l-1.5-1.9l-1.6,1.9c-0.4,0.5-9.7,11.8-12.8,19.1c-0.1,0.3-0.3,0.6-0.4,0.9
			c-1.5-2.5-3.2-5.7-4-7.2l-0.9-1.8l-1.8,0.9l-4.7,2.5v5c2.5,2.8,8,9,10.6,12.7h2.4c-2.9-4.7-12.9-15.5-12.9-15.5l5.5-2.9
			c0,0,4.4,8.3,6.1,10.5c0.4-1.2,1.4-3.1,2-4.3c3-7.2,12.6-18.7,12.6-18.7l4,5c0,0-15,15.5-17.2,25.9h2.1
			c2.4-9.8,16.4-24.3,16.6-24.5L152.9,591z"/>
	</g>
</g>
</svg>
