<?xml version="1.0" encoding="utf-8"?>
<!-- Generator: Adobe Illustrator 17.1.0, SVG Export Plug-In . SVG Version: 6.00 Build 0)  -->
<!DOCTYPE svg PUBLIC "-//W3C//DTD SVG 1.1//EN" "http://www.w3.org/Graphics/SVG/1.1/DTD/svg11.dtd">
<svg version="1.1" id="Layer_1" xmlns="http://www.w3.org/2000/svg" xmlns:xlink="http://www.w3.org/1999/xlink" x="0px" y="0px"
	 viewBox="0 5 68 68" enable-background="new 0 5 68 68" xml:space="preserve">
<g>
	<g>
		<g>
			<g>
				<g>
					<defs>
						<rect id="SVGID_1_" y="5" width="68" height="68"/>
					</defs>
					<clipPath id="SVGID_2_">
						<use xlink:href="#SVGID_1_"  overflow="visible"/>
					</clipPath>
					<g clip-path="url(#SVGID_2_)">
						<path fill="#01405F" d="M34,73c18.8,0,34-15.2,34-34S52.8,5,34,5S0,20.2,0,39S15.2,73,34,73"/>
					</g>
				</g>
			</g>
		</g>
		<g>
			<g>
				<g>
					<defs>
						<rect id="SVGID_3_" y="5" width="68" height="68"/>
					</defs>
					<clipPath id="SVGID_4_">
						<use xlink:href="#SVGID_3_"  overflow="visible"/>
					</clipPath>
					<g clip-path="url(#SVGID_4_)">
						<path fill="#FFFFFF" d="M52.6,43.6c0.3-0.2,2-1.9,2.2-2.1c2.1-1.9,3.4-4.5,3.4-7.5c0-5.6-4.6-10.2-10.2-10.2
							c-1.1,0-2.1,0.2-3.1,0.5c-0.6-6.6-6.2-11.7-12.9-11.7c-7.2,0-13,5.8-13,13c0,0.9,0.1,1.7,0.3,2.5h-2.4c-4.4,0-8,3.6-8,8
							c0,3.7,2.5,6.7,5.8,7.7L52.6,43.6z"/>
					</g>
				</g>
			</g>
		</g>
	</g>
	<g>
		<polygon fill="#FFFFFF" points="38.4,34.4 33.9,34.4 33.9,51.3 23.6,51.3 23.6,34.4 19.1,34.4 28.8,24.4 		"/>
	</g>
	<g>
		<path fill="#FFFFFF" d="M35.3,52.7H22.2V35.8h-6.4l13.1-13.5l12.9,13.5h-6.4v16.9H35.3z M25,49.9h7.5V33h2.6l-6.3-6.5L22.5,33H25
			V49.9z"/>
	</g>
	<g>
		<polygon fill="#FFFFFF" points="31.4,53.2 35.9,53.2 35.9,36.3 46.2,36.3 46.2,53.2 50.7,53.2 41.1,63.2 		"/>
	</g>
	<g>
		<path fill="#FFFFFF" d="M41.1,65.2L28,51.8h6.4V34.9h13.1v16.9H54L41.1,65.2z M34.8,54.6l6.3,6.5l6.3-6.5h-2.6V37.7h-7.5v16.9
			H34.8z"/>
	</g>
	<g>
		<polygon fill="#01405F" points="38.4,34.4 33.9,34.4 33.9,51.3 23.6,51.3 23.6,34.4 19.1,34.4 28.8,24.4 		"/>
	</g>
	<g>
		<polygon fill="#01405F" points="31.4,53.2 35.9,53.2 35.9,36.3 46.2,36.3 46.2,53.2 50.7,53.2 41.1,63.2 		"/>
	</g>
</g>
</svg>
