<?xml version="1.0" encoding="utf-8"?>
<!-- Generator: Adobe Illustrator 17.1.0, SVG Export Plug-In . SVG Version: 6.00 Build 0)  -->
<!DOCTYPE svg PUBLIC "-//W3C//DTD SVG 1.1//EN" "http://www.w3.org/Graphics/SVG/1.1/DTD/svg11.dtd">
<svg version="1.1" id="Layer_1" xmlns="http://www.w3.org/2000/svg" xmlns:xlink="http://www.w3.org/1999/xlink" x="0px" y="0px"
	 viewBox="16.7 18 68 68" enable-background="new 16.7 18 68 68" xml:space="preserve">
<g>
	<g>
		<defs>
			<rect id="SVGID_1_" x="16.7" y="18" width="68" height="68"/>
		</defs>
		<clipPath id="SVGID_2_">
			<use xlink:href="#SVGID_1_"  overflow="visible"/>
		</clipPath>
		<path clip-path="url(#SVGID_2_)" fill="#7B853A" d="M50.7,86c18.8,0,34-15.2,34-34s-15.2-34-34-34s-34,15.2-34,34S31.9,86,50.7,86
			"/>
	</g>
	<g>
		<defs>
			<rect id="SVGID_3_" x="16.7" y="18" width="68" height="68"/>
		</defs>
		<clipPath id="SVGID_4_">
			<use xlink:href="#SVGID_3_"  overflow="visible"/>
		</clipPath>
		<path clip-path="url(#SVGID_4_)" fill="#FFFFFF" d="M69.3,56.6c0.3-0.2,2-1.9,2.2-2.1c2.1-1.9,3.4-4.5,3.4-7.5
			c0-5.6-4.6-10.2-10.2-10.2c-1.1,0-2.1,0.2-3.1,0.5c-0.6-6.6-6.2-11.7-12.9-11.7c-7.2,0-13,5.8-13,13c0,0.9,0.1,1.7,0.3,2.5h-2.4
			c-4.4,0-8,3.6-8,8c0,3.7,2.5,6.7,5.8,7.7L69.3,56.6z"/>
	</g>
	<g>
		<defs>
			<rect id="SVGID_5_" x="16.7" y="18" width="68" height="68"/>
		</defs>
		<clipPath id="SVGID_6_">
			<use xlink:href="#SVGID_5_"  overflow="visible"/>
		</clipPath>
		<path clip-path="url(#SVGID_6_)" fill="#FFFFFF" d="M31.9,49.2c0,0-1.9,0-1.9,1.9v18.8c0,0,0,1.9,1.9,1.9h37.4c0,0,1.9,0,1.9-1.9
			V51.1c0,0,0-1.9-1.9-1.9H31.9z"/>
	</g>
	<g>
		<defs>
			<rect id="SVGID_7_" x="16.7" y="18" width="68" height="68"/>
		</defs>
		<clipPath id="SVGID_8_">
			<use xlink:href="#SVGID_7_"  overflow="visible"/>
		</clipPath>
		<path clip-path="url(#SVGID_8_)" fill="#7B853A" d="M56,48.4c-5,0-9,4-9,9c0,5,4,9,9,9s9-4,9-9C65,52.5,61,48.4,56,48.4
			 M36.3,49.6c-0.7,0-1.2,0.5-1.2,1.2c0,0.7,0.5,1.2,1.2,1.2h6c0.7,0,1.2-0.5,1.2-1.2c0-0.7-0.5-1.2-1.2-1.2H36.3z M56,52.1
			c-3,0-5.4,2.4-5.4,5.4c0,3,2.4,5.4,5.4,5.4c3,0,5.4-2.4,5.4-5.4C61.4,54.5,59,52.1,56,52.1 M33.9,46h2.4v-1.2
			c0-0.7,0.5-1.2,1.2-1.2h3.6c0.7,0,1.2,0.5,1.2,1.2V46h5.3l2.3-3.7c0.5-0.7,1.2-1.1,2-1.1l8.4,0c0.9,0,1.7,0.5,2.1,1.3l2.2,3.6h2.9
			c1.3,0,2.4,1.1,2.4,2.4v19.3c0,1.3-1.1,2.4-2.4,2.4H33.9c-1.3,0-2.4-1.1-2.4-2.4V48.4C31.5,47.1,32.5,46,33.9,46"/>
	</g>
</g>
</svg>
