<?xml version="1.0" encoding="utf-8"?>
<!-- Generator: Adobe Illustrator 17.1.0, SVG Export Plug-In . SVG Version: 6.00 Build 0)  -->
<!DOCTYPE svg PUBLIC "-//W3C//DTD SVG 1.1//EN" "http://www.w3.org/Graphics/SVG/1.1/DTD/svg11.dtd">
<svg version="1.1" id="Layer_1" xmlns="http://www.w3.org/2000/svg" xmlns:xlink="http://www.w3.org/1999/xlink" x="0px" y="0px"
	 viewBox="216.7 18 560 560" enable-background="new 216.7 18 560 560" xml:space="preserve">
<g>
	<g>
		<g>
			<g>
				<defs>
					<rect id="SVGID_1_" x="216.7" y="18" width="560" height="560"/>
				</defs>
				<clipPath id="SVGID_2_">
					<use xlink:href="#SVGID_1_"  overflow="visible"/>
				</clipPath>
				<path clip-path="url(#SVGID_2_)" fill="#000000" d="M496.7,578c154.8,0,280-125.2,280-280S651.5,18,496.7,18s-280,125.2-280,280
					S341.9,578,496.7,578"/>
			</g>
		</g>
		<g>
			<g>
				<defs>
					<rect id="SVGID_3_" x="216.7" y="18" width="560" height="560"/>
				</defs>
				<clipPath id="SVGID_4_">
					<use xlink:href="#SVGID_3_"  overflow="visible"/>
				</clipPath>
				<path clip-path="url(#SVGID_4_)" fill="#FFFFFF" d="M649.9,335.9c2.5-1.6,16.5-15.6,18.1-17.3c17.3-15.6,28-37.1,28-61.8
					c0-46.1-37.9-84-84-84c-9.1,0-17.3,1.6-25.5,4.1c-4.9-54.4-51.1-96.4-106.2-96.4c-59.3,0-107.1,47.8-107.1,107.1
					c0,7.4,0.8,14,2.5,20.6h-19.8c-36.2,0-65.9,29.6-65.9,65.9c0,30.5,20.6,55.2,47.8,63.4L649.9,335.9z"/>
			</g>
		</g>
	</g>
	<rect x="300.7" y="258.5" fill="#FFFFFF" width="383.8" height="215.8"/>
	<rect x="314.7" y="238.7" fill="#000000" width="356.6" height="222.4"/>
	<rect x="337.8" y="262.6" fill="#FFFFFF" width="310.5" height="176.2"/>
	<g>
		<g>
			<g>
				<defs>
					<rect id="SVGID_5_" x="216.7" y="18" width="560" height="560"/>
				</defs>
				<clipPath id="SVGID_6_">
					<use xlink:href="#SVGID_5_"  overflow="visible"/>
				</clipPath>
				<path clip-path="url(#SVGID_6_)" fill="#000000" d="M623.5,336.7c0,0.8,0.8,1.6,1.6,1.6c0.8,0.8,0.8,0.8,1.6,1.6
					c0.8,0,1.6,0.8,2.5,0.8c0.8,0,1.6,0,2.5-0.8c0.8,0,1.6-0.8,1.6-1.6s0.8-0.8,1.6-1.6c0-0.8,0.8-1.6,0.8-2.5s0-1.6-0.8-2.5
					c0-0.8-0.8-1.6-1.6-1.6c-0.8,0-1.6-0.8-1.6-1.6c-0.8,0-1.6-0.8-2.5-0.8s-1.6,0-2.5,0.8c-0.8,0-1.6,0.8-1.6,1.6
					c-0.8,0.8-0.8,0.8-1.6,1.6c0,0.8-0.8,1.6-0.8,2.5S622.7,335.9,623.5,336.7 M588.1,340h29.6v-8.2h-9.1v-43.6h-9.1l-16.5,13.2
					l3.3,4.9l0.8,0.8c0.8,0,0.8,0,1.6,0h0.8c0,0,0.8,0,0.8-0.8l5.8-4.9c0,1.6,0,2.5,0,4.1v25.5h-9.9v9.1H588.1z M546.1,340h29.6
					v-8.2h-9.1v-43.6h-9.1l-16.5,13.2l3.3,4.9l0.8,0.8c0.8,0,0.8,0,1.6,0h0.8c0,0,0.8,0,0.8-0.8l5.8-4.9c0,1.6,0,2.5,0,4.1v25.5
					h-9.9L546.1,340z M504.1,340h29.6v-8.2h-9.1v-43.6h-9.1l-16.5,13.2l3.3,4.9l0.8,0.8c0.8,0,0.8,0,1.6,0h0.8c0,0,0.8,0,0.8-0.8
					l5.8-4.9c0,1.6,0,2.5,0,4.1v25.5h-9.9v9.1H504.1z M481.1,336.7c0,0.8,0.8,1.6,1.6,1.6c0.8,0.8,0.8,0.8,1.6,1.6
					c0.8,0,1.6,0.8,2.5,0.8s1.6,0,2.5-0.8c0.8,0,1.6-0.8,1.6-1.6c0.8-0.8,0.8-0.8,1.6-1.6c0-0.8,0.8-1.6,0.8-2.5s0-1.6-0.8-2.5
					c0-0.8-0.8-1.6-1.6-1.6c-0.8-0.8-1.6-0.8-1.6-1.6c-0.8,0-1.6-0.8-2.5-0.8s-1.6,0-2.5,0.8c-0.8,0-1.6,0.8-1.6,1.6
					c-0.8,0.8-0.8,0.8-1.6,1.6c0,0.8-0.8,1.6-0.8,2.5S480.2,335.9,481.1,336.7 M445.6,340h29.6v-8.2h-9.1v-43.6h-9.1l-16.5,13.2
					l3.3,4.9l0.8,0.8c0.8,0,0.8,0,1.6,0h0.8c0,0,0.8,0,0.8-0.8l5.8-4.9c0,1.6,0,2.5,0,4.1v25.5H444L445.6,340z M403.6,340h29.6v-8.2
					h-8.2v-43.6H416l-16.5,13.2l3.3,4.9l0.8,0.8c0.8,0,0.8,0,1.6,0h0.8c0,0,0.8,0,0.8-0.8l5.8-4.9c0,1.6,0,2.5,0,4.1v25.5h-9.9v9.1
					H403.6z M361.6,340h29.6v-8.2h-9.1v-43.6h-9.1l-16.5,13.2l3.3,4.9l0.8,0.8c0.8,0,0.8,0,1.6,0h0.8c0,0,0.8,0,0.8-0.8l5.8-4.9
					c0,1.6,0,2.5,0,4.1v25.5H360L361.6,340z"/>
			</g>
		</g>
		<g>
			<g>
				<defs>
					<rect id="SVGID_7_" x="216.7" y="18" width="560" height="560"/>
				</defs>
				<clipPath id="SVGID_8_">
					<use xlink:href="#SVGID_7_"  overflow="visible"/>
				</clipPath>
				<path clip-path="url(#SVGID_8_)" fill="#000000" d="M588.1,414.9h29.6v-8.2h-9.1v-43.6h-9.1l-16.5,13.2l3.3,4.9l0.8,0.8
					c0.8,0,0.8,0,1.6,0h0.8c0,0,0.8,0,0.8-0.8l5.8-4.9c0,1.6,0,2.5,0,4.1v25.5h-9.9v9.1H588.1z M546.1,414.9h29.6v-8.2h-9.1v-43.6
					h-9.1l-16.5,13.2l3.3,4.9l0.8,0.8c0.8,0,0.8,0,1.6,0h0.8c0,0,0.8,0,0.8-0.8l5.8-4.9c0,1.6,0,2.5,0,4.1v25.5h-9.9L546.1,414.9z
					 M504.1,414.9h29.6v-8.2h-9.1v-43.6h-9.1l-16.5,13.2l3.3,4.9l0.8,0.8c0.8,0,0.8,0,1.6,0h0.8c0,0,0.8,0,0.8-0.8l5.8-4.9
					c0,1.6,0,2.5,0,4.1v25.5h-9.9v9.1H504.1z M481.1,411.6c0,0.8,0.8,1.6,1.6,1.6c0.8,0.8,0.8,0.8,1.6,1.6c0.8,0,1.6,0.8,2.5,0.8
					s1.6,0,2.5-0.8c0.8,0,1.6-0.8,1.6-1.6c0.8-0.8,0.8-0.8,1.6-1.6c0-0.8,0.8-1.6,0.8-2.5c0-0.8,0-1.6-0.8-2.5
					c0-0.8-0.8-1.6-1.6-1.6c-0.8-0.8-1.6-0.8-1.6-1.6c-0.8,0-1.6-0.8-2.5-0.8s-1.6,0-2.5,0.8c-0.8,0-1.6,0.8-1.6,1.6
					c-0.8,0.8-0.8,0.8-1.6,1.6c0,0.8-0.8,1.6-0.8,2.5C480.2,410,480.2,410.8,481.1,411.6 M445.6,414.9h29.6v-8.2h-9.1v-43.6h-9.1
					l-16.5,13.2l3.3,4.9l0.8,0.8c0.8,0,0.8,0,1.6,0h0.8c0,0,0.8,0,0.8-0.8l5.8-4.9c0,1.6,0,2.5,0,4.1v25.5H444L445.6,414.9z
					 M403.6,414.9h29.6v-8.2h-8.2v-43.6H416l-16.5,13.2l3.3,4.9l0.8,0.8c0.8,0,0.8,0,1.6,0h0.8c0,0,0.8,0,0.8-0.8l5.8-4.9
					c0,1.6,0,2.5,0,4.1v25.5h-9.9v9.1H403.6z M361.6,414.9h29.6v-8.2h-9.1v-43.6h-9.1l-16.5,13.2l3.3,4.9l0.8,0.8c0.8,0,0.8,0,1.6,0
					h0.8c0,0,0.8,0,0.8-0.8l5.8-4.9c0,1.6,0,2.5,0,4.1v25.5H360L361.6,414.9z"/>
			</g>
		</g>
	</g>
</g>
</svg>
