<?xml version="1.0" encoding="utf-8"?>
<!-- Generator: Adobe Illustrator 17.1.0, SVG Export Plug-In . SVG Version: 6.00 Build 0)  -->
<!DOCTYPE svg PUBLIC "-//W3C//DTD SVG 1.1//EN" "http://www.w3.org/Graphics/SVG/1.1/DTD/svg11.dtd">
<svg version="1.1" id="Layer_1" xmlns="http://www.w3.org/2000/svg" xmlns:xlink="http://www.w3.org/1999/xlink" x="0px" y="0px"
	 viewBox="200 0.7 560 560" enable-background="new 200 0.7 560 560" xml:space="preserve">
<g>
	<g>
		<g>
			<g>
				<g>
					<g>
						<defs>
							<rect id="SVGID_1_" x="200" y="0.7" width="560" height="560"/>
						</defs>
						<clipPath id="SVGID_2_">
							<use xlink:href="#SVGID_1_"  overflow="visible"/>
						</clipPath>
						<g clip-path="url(#SVGID_2_)">
							<path fill="#01405F" d="M480,560c154.8,0,280-125.2,280-280S634.8,0,480,0S200,125.2,200,280S325.2,560,480,560"/>
						</g>
					</g>
				</g>
			</g>
		</g>
	</g>
</g>
<path fill="#FFFFFF" d="M314.7,348.2c30.5,0,56.2-20.3,64.5-48.1c9,0.1,18,0,27.5,0c0.8,2,1.6,3.9,2.4,5.8c3.7,11.9,9.9,22.8,18,32
	c0.1,0.1,0.2,0.2,0.3,0.3c0.2,0.2,0.4,0.4,0.6,0.7c1.5,1.6,3,3.3,4.6,4.7c14.2,13.4,31.2,22.2,51.1,23.1c2,0.2,4,0.3,6,0.4
	c3.1,0.6,5.2,2.4,6.4,5.9c0.9,2.8,2.3,5.6,3.4,8.4c6.7,18.4,13.5,36.8,20.1,55.2c0.9,2.5,1.3,5.3,2.2,9.2c-9.7-4.1-17.9-7.8-26.4-11
	c-7.9-2.9-15.7,0.1-21.3,5.9c-8,8.3-5.3,25.8,7.6,31.6c11,4.9,21.8,10.5,32.9,15.5c13.1,5.9,26.2,11.9,39.5,17.1
	c9.3,3.7,16.4,1,21-7.8c13.4-25.4,25.8-51.3,35.6-78.4c0.9-2.5,0.6-6.1-0.5-8.6c-3-6.8-7.2-12.3-15.5-13.6
	c-9.6-1.5-16.3,2.6-21,10.4c-3.1,5.2-5.2,10.9-8,16.3c-1.1,2.1-2.7,4-5.2,7.7c-8.6-24.1-16.5-46.4-24.3-68.7c-1.3-3.6,0-6.6,3.3-8.8
	c16.5-10.9,27.4-26.2,34.1-44.5c2.3-6.4,5.1-8.8,12.1-8.7c21.4,0.5,42.8,0.1,64.2,0.1c1.7,0,3.4,0.4,6.2,0.8
	c-1.5,2.2-2.1,3.5-3.1,4.5c-5.8,6.1-11.7,12-17.5,18.2c-4.7,5.1-6.4,10.7-4,17.7c5.4,15.8,24,17.7,33.9,7.2
	c16.5-17.5,34.1-34,50.8-51.3c13.1-13.5,11.8-18.7,0.5-32.9c-0.9-1.2-2.1-2.2-3.3-3.3c-7.6-7.6-15.1-15.2-22.6-22.8
	c-8.6-8.6-17.3-17.3-25.9-25.9c-8.8-8.7-20.9-6.9-27.6-0.8c-8.5,7.6-9.4,16.5-2.5,26.2c2.8,4,6.4,7.5,9.8,11.1
	c3.3,3.7,6.8,7.3,11.2,12c-25.2,0-48.5-0.2-71.8,0.2c-5.2,0.1-7.8-1.7-9.6-5.7c-6.1-19.9-19.1-36.7-36.2-47.6
	c-3.7-3.6-2.8-6.1,0.1-14.4c3.7-10.7,7.6-21.3,11.4-31.9c3.5-9.7,7.1-19.4,11.3-31c2.3,4.2,3.7,6.4,4.8,8.6
	c3.1,6.1,5.9,12.4,9.3,18.2c4.9,8.5,14.9,11,24.5,6.6c9.5-4.2,13.7-12.6,10.6-22.1c-2.2-6.8-4.9-13.5-7.9-20
	c-9.1-19.1-18.6-38-27.9-57.1c-2.8-5.8-7.5-8.5-13.8-7.8c-4.5,0.5-9.1,0.8-13.2,2.5c-15.9,6.9-31.7,14.3-47.4,21.6
	c-7.2,3.4-14.4,6.9-21.4,10.7c-7.6,4.2-9.8,11.2-9.1,19.4c0.6,7.6,4.5,12.8,11.5,15.6c5.9,2.3,11.6,2.1,17.6-0.6
	c6.9-3,14.1-5,21.2-7.4c0.4-0.6,0.8-1.1,1.2-1.7c-0.3,0.7-0.6,1.4-0.8,2.1c-0.1,1.6,0.1,3.2-0.4,4.5c-4.5,13.2-9.1,26.4-13.8,39.5
	c-3.8,10.5-8.1,21-11.9,31c-0.6,0-1.2,0.1-1.8,0.1c-0.1,0-0.3,0-0.5,0c-40.9,0.1-75.3,28.7-84.1,67c-0.2,0.6-0.4,1.3-0.6,1.9
	c-9.5,0-18.5,0-27.2,0c-7.7-28.7-33.9-49.8-65.1-49.8c-37.2,0-67.3,30.2-67.3,67.5C247.3,318.1,277.5,348.2,314.7,348.2z M491.7,329
	c-26.7,0-48.4-21.6-48.4-48.3c-0.1-26.7,21.6-48.4,48.3-48.4c26.7,0,48.4,21.6,48.4,48.3C540.1,307.3,518.4,329,491.7,329z"/>
</svg>
