<?xml version="1.0" encoding="utf-8"?>
<!-- Generator: Adobe Illustrator 17.1.0, SVG Export Plug-In . SVG Version: 6.00 Build 0)  -->
<!DOCTYPE svg PUBLIC "-//W3C//DTD SVG 1.1//EN" "http://www.w3.org/Graphics/SVG/1.1/DTD/svg11.dtd">
<svg version="1.1" id="Layer_1" xmlns="http://www.w3.org/2000/svg" xmlns:xlink="http://www.w3.org/1999/xlink" x="0px" y="0px"
	 viewBox="0 0 68 68" enable-background="new 0 0 68 68" xml:space="preserve">
<g>
	<path fill="#009E93" d="M34,68c18.8,0,34-15.2,34-34S52.8,0,34,0S0,15.2,0,34S15.2,68,34,68"/>
</g>
<g>
	<path fill="#FFFFFF" d="M52,52.7c0,1.2-1,2.2-2.2,2.2H18.2c-1.2,0-2.2-1-2.2-2.2V15.9c0-1.2,1-2.2,2.2-2.2h31.6
		c1.2,0,2.2,1,2.2,2.2V52.7z"/>
	<path fill="none" stroke="#FFFFFF" stroke-width="1.8729" stroke-miterlimit="10" d="M52,52.7c0,1.2-1,2.2-2.2,2.2H18.2
		c-1.2,0-2.2-1-2.2-2.2V15.9c0-1.2,1-2.2,2.2-2.2h31.6c1.2,0,2.2,1,2.2,2.2V52.7z"/>
</g>
<path fill="#009E93" d="M40.7,17.6c0,0.5-0.4,0.9-0.9,0.9H28.2c-0.5,0-0.9-0.4-0.9-0.9l0,0c0-0.5,0.4-0.9,0.9-0.9h11.6
	C40.3,16.7,40.7,17.1,40.7,17.6L40.7,17.6z"/>
<g>
	<path fill="#FFFFFF" d="M49.8,55.9H18.2c-1.7,0-3.1-1.4-3.1-3.1V15.9c0-1.7,1.4-3.1,3.1-3.1h31.6c1.7,0,3.1,1.4,3.1,3.1v36.9
		C52.9,54.5,51.5,55.9,49.8,55.9z M18.2,14.6c-0.7,0-1.2,0.6-1.2,1.2v36.9c0,0.7,0.6,1.2,1.2,1.2h31.6c0.7,0,1.2-0.6,1.2-1.2V15.9
		c0-0.7-0.6-1.2-1.2-1.2H18.2z"/>
</g>
<rect x="30.6" y="7.2" fill="#FFFFFF" stroke="#009E93" stroke-width="1.0078" stroke-miterlimit="10" width="6.8" height="10"/>
<g>
	<defs>
		<path id="SVGID_1_" d="M18.5,14.6c-0.7,0-1.2,0.6-1.2,1.2v36.9c0,0.7,0.6,1.2,1.2,1.2H50c0.7,0,1.2-0.6,1.2-1.2V15.9
			c0-0.7-0.6-1.2-1.2-1.2H18.5z"/>
	</defs>
	<clipPath id="SVGID_2_">
		<use xlink:href="#SVGID_1_"  overflow="visible"/>
	</clipPath>
	<g clip-path="url(#SVGID_2_)">
		<g>
			<g>
				<path fill="#FFFFFF" d="M38.5,38.5c7.3,3,8.5,10.8,7.7,17.8c-6.4,1.1-18.2,1.1-24.3,0c-0.7-7,0.5-14.8,7.8-17.8
					c-2.4-1.4-4-4.2-4-7.1c0.1-4.6,3.8-8.3,8.5-8.2c4.7,0.1,8.4,3.8,8.4,8.4C42.4,34.5,40.8,37,38.5,38.5"/>
			</g>
		</g>
		<g>
			<g>
				<path fill="#009E93" d="M33.9,58.8c-4.9,0-9.4-0.3-12.4-0.8l-1.3-0.2l-0.1-1.3c-0.9-8.6,1.4-15,6.4-18.3
					c-1.7-1.8-2.7-4.3-2.7-6.8c0.1-5.6,4.5-9.9,10.1-9.9l0.2,0c5.6,0.1,10,4.6,10,10.1c-0.1,2.5-1,4.9-2.7,6.6
					c5.1,3.3,7.3,9.6,6.3,18.3l-0.1,1.3L46.4,58C43.3,58.5,38.7,58.8,33.9,58.8z M23.4,54.8c2.8,0.4,6.5,0.6,10.5,0.6
					c4,0,7.8-0.2,10.7-0.6c0.6-7.7-1.7-12.7-6.7-14.8l-3.1-1.3l2.9-1.8c2-1.2,3.1-3.2,3.2-5.6c0-3.6-2.9-6.6-6.7-6.7l-0.1,0
					c-3.7,0-6.6,2.9-6.7,6.6c0,2.3,1.2,4.5,3.2,5.6l2.9,1.7l-3.2,1.3C24.1,42.6,23.1,49.2,23.4,54.8z"/>
			</g>
		</g>
		<g>
			<g>
				<path fill="#009E93" d="M38.5,38.5c7.4,3,8.5,10.9,7.8,17.9c-6.5,1.1-18.4,1.1-24.6,0c-0.7-7.1,0.5-14.9,7.9-17.9
					c-2.4-1.5-4.1-4.2-4-7.2c0.1-4.6,3.9-8.3,8.6-8.3c4.7,0.1,8.5,3.9,8.5,8.5C42.4,34.4,40.9,37,38.5,38.5"/>
			</g>
		</g>
		<g>
			<g>
				<g>
					<path fill="#FFFFFF" d="M33.9,57.7c-4.8,0-9.3-0.3-12.3-0.8l-0.3-0.1v-0.4c-0.7-6.4,0.1-14.6,7.3-18c-2.3-1.7-3.6-4.3-3.6-7.1
						c0.1-4.8,4.1-8.8,9-8.8h0.1c2.4,0,4.6,1,6.3,2.6c1.7,1.7,2.6,3.9,2.5,6.3c0,2.7-1.3,5.2-3.5,7c5.8,2.7,8.3,9.1,7.2,18.1v0.4
						l-0.3,0.1C43.4,57.4,38.8,57.7,33.9,57.7z M22.2,56c3,0.5,7.2,0.7,11.8,0.7s9-0.3,12-0.7c0.7-6.2-0.1-14.1-7.5-17.1l-0.9-0.4
						l0.8-0.5c2.4-1.4,3.8-3.9,3.8-6.6c0-2.1-0.8-4.2-2.3-5.6c-1.5-1.5-3.6-2.4-5.7-2.4h-0.1c-4.4,0-8,3.5-8.1,7.9
						c0,2.8,1.4,5.3,3.8,6.9l0.8,0.5L29.8,39C22.4,41.8,21.6,49.8,22.2,56z"/>
				</g>
			</g>
		</g>
	</g>
</g>
</svg>
