<?xml version="1.0" encoding="utf-8"?>
<!-- Generator: Adobe Illustrator 17.1.0, SVG Export Plug-In . SVG Version: 6.00 Build 0)  -->
<!DOCTYPE svg PUBLIC "-//W3C//DTD SVG 1.1//EN" "http://www.w3.org/Graphics/SVG/1.1/DTD/svg11.dtd">
<svg version="1.1" id="Layer_1" xmlns="http://www.w3.org/2000/svg" xmlns:xlink="http://www.w3.org/1999/xlink" x="0px" y="0px"
	 viewBox="0 5 68 68" enable-background="new 0 5 68 68" xml:space="preserve">
<g>
	<path fill="#01405F" d="M34,73c18.8,0,34-15.2,34-34S52.8,5,34,5S0,20.2,0,39S15.2,73,34,73"/>
</g>
<g>
	<path fill="#FFFFFF" d="M52.6,43.6c0.3-0.2,2-1.9,2.2-2.1c2.1-1.9,3.4-4.5,3.4-7.5c0-5.6-4.6-10.2-10.2-10.2
		c-1.1,0-2.1,0.2-3.1,0.5c-0.6-6.6-6.2-11.7-12.9-11.7c-7.2,0-13,5.8-13,13c0,0.9,0.1,1.7,0.3,2.5h-2.4c-4.4,0-8,3.6-8,8
		c0,3.7,2.5,6.7,5.8,7.7L52.6,43.6z"/>
</g>
<rect x="17.4" y="29.6" fill="#01405F" width="33.6" height="34"/>
<path fill="#FFFFFF" d="M22.6,60.9h-2.5V48.7h2.5V60.9z M26.7,60.9h-2.5V48.7h2.5V60.9z M18.9,62.3H28V30.9h-9.1V62.3z"/>
<path fill="#FFFFFF" d="M33.5,60.9H31V48.7h2.5V60.9z M37.6,60.9h-2.5V48.7h2.5V60.9z M29.7,62.3h9.1V30.9h-9.1V62.3z"/>
<path fill="#FFFFFF" d="M44.4,60.9h-2.5V48.7h2.5V60.9z M48.5,60.9H46V48.7h2.5V60.9z M40.6,62.3h9.1V30.9h-9.1
	C40.6,30.9,40.6,62.3,40.6,62.3z"/>
<g>
	<g>
		<path fill="#01405F" d="M47.4,35.5c0,1.2-0.9,2.2-2.1,2.2c-1.2,0-2.1-1-2.1-2.2s0.9-2.2,2.1-2.2C46.5,33.3,47.4,34.3,47.4,35.5"/>
	</g>
	<g>
		<path fill="#01405F" d="M36.4,35.5c0,1.2-0.9,2.2-2.1,2.2c-1.2,0-2.1-1-2.1-2.2s0.9-2.2,2.1-2.2C35.4,33.3,36.4,34.3,36.4,35.5"/>
	</g>
	<g>
		<path fill="#01405F" d="M25.5,35.5c0,1.2-0.9,2.2-2.1,2.2s-2.1-1-2.1-2.2s0.9-2.2,2.1-2.2S25.5,34.3,25.5,35.5"/>
	</g>
</g>
<g>
	<path fill="#01405F" d="M4.2,55.4c1.9,3.4,4.4,6.5,7.3,9.1c-1.9-2.8-5.7-9.9-5.7-9.9L4.2,55.4z"/>
	<path fill="#01405F" d="M26.5,42.1c0,0-9.6,11.5-12.6,18.7c-0.6,1.2-1.5,2.9-1.9,4.1c1.1,0.9,2.2,1.8,3.4,2.5
		c4.7-9.6,15.2-20.4,15.2-20.4L26.5,42.1z"/>
	<path fill="#FFFFFF" d="M11.9,65.1c0,0,0-0.1,0.1-0.2c-0.2-0.1-0.3-0.3-0.5-0.4C11.7,64.7,11.8,64.9,11.9,65.1z"/>
	<path fill="#FFFFFF" d="M33,47.3l-1.1-1.4l-4-5L26.4,39l-1.6,1.9C24.4,41.4,15.1,52.7,12,60c-0.1,0.3-0.3,0.6-0.4,0.9
		c-1.5-2.5-3.2-5.7-4-7.2l-0.9-1.8l-1.8,0.9l-1.6,0.9c0.3,0.6,0.6,1.2,0.9,1.8l1.6-0.8c0,0,3.8,7.2,5.7,9.9c0.2,0.1,0.3,0.3,0.5,0.4
		c0.4-1.2,1.4-3,1.9-4.1c3-7.2,12.6-18.7,12.6-18.7l4,5c0,0-10.4,10.8-15.2,20.4c0.6,0.4,1.2,0.7,1.8,1.1
		c4.5-9.2,14.8-19.9,14.9-20.1L33,47.3z"/>
</g>
<path fill="#81BD41" d="M30.5,47.1l-4-5c0,0-9.6,11.5-12.6,18.7c-0.6,1.2-1.6,3.1-2,4.3c-1.7-2.2-6.1-10.5-6.1-10.5l-5.5,2.9
	c0,0,10,10.8,12.9,15.5h0.1C15.5,62.6,30.5,47.1,30.5,47.1z"/>
</svg>
