<?xml version="1.0" encoding="utf-8"?>
<!-- Generator: Adobe Illustrator 17.1.0, SVG Export Plug-In . SVG Version: 6.00 Build 0)  -->
<!DOCTYPE svg PUBLIC "-//W3C//DTD SVG 1.1//EN" "http://www.w3.org/Graphics/SVG/1.1/DTD/svg11.dtd">
<svg version="1.1" id="Layer_1" xmlns="http://www.w3.org/2000/svg" xmlns:xlink="http://www.w3.org/1999/xlink" x="0px" y="0px"
	 viewBox="216.7 18 560 560" enable-background="new 216.7 18 560 560" xml:space="preserve">
<g>
	<g>
		<g>
			<defs>
				<rect id="SVGID_1_" x="216.7" y="18" width="560" height="560"/>
			</defs>
			<clipPath id="SVGID_2_">
				<use xlink:href="#SVGID_1_"  overflow="visible"/>
			</clipPath>
			<path clip-path="url(#SVGID_2_)" fill="#822980" d="M496.7,578c154.8,0,280-125.2,280-280S651.5,18,496.7,18s-280,125.2-280,280
				S341.9,578,496.7,578"/>
		</g>
	</g>
	<g>
		<g>
			<defs>
				<rect id="SVGID_3_" x="216.7" y="18" width="560" height="560"/>
			</defs>
			<clipPath id="SVGID_4_">
				<use xlink:href="#SVGID_3_"  overflow="visible"/>
			</clipPath>
			<path clip-path="url(#SVGID_4_)" fill="#FFFFFF" d="M649.9,335.9c2.5-1.6,16.5-15.6,18.1-17.3c17.3-15.6,28-37.1,28-61.8
				c0-46.1-37.9-84-84-84c-9.1,0-17.3,1.6-25.5,4.1c-4.9-54.4-51.1-96.4-106.2-96.4c-59.3,0-107.1,47.8-107.1,107.1
				c0,7.4,0.8,14,2.5,20.6h-19.8c-36.2,0-65.9,29.6-65.9,65.9c0,30.5,20.6,55.2,47.8,63.4L649.9,335.9z"/>
		</g>
	</g>
	<g>
		<g>
			<defs>
				<rect id="SVGID_5_" x="216.7" y="18" width="560" height="560"/>
			</defs>
			<clipPath id="SVGID_6_">
				<use xlink:href="#SVGID_5_"  overflow="visible"/>
			</clipPath>
			<path clip-path="url(#SVGID_6_)" fill="#FFFFFF" d="M341.9,274.9c0,0-15.6,0-15.6,15.6v154.8c0,0,0,15.6,15.6,15.6h308
				c0,0,15.6,0,15.6-15.6V290.6c0,0,0-15.6-15.6-15.6L341.9,274.9L341.9,274.9z"/>
		</g>
	</g>
	<g>
		<g>
			<defs>
				<rect id="SVGID_7_" x="216.7" y="18" width="560" height="560"/>
			</defs>
			<clipPath id="SVGID_8_">
				<use xlink:href="#SVGID_7_"  overflow="visible"/>
			</clipPath>
			<path clip-path="url(#SVGID_8_)" fill="#822980" d="M540.3,268.4c-41.2,0-74.1,32.9-74.1,74.1s32.9,74.1,74.1,74.1
				c41.2,0,74.1-32.9,74.1-74.1C614.5,302.1,581.5,268.4,540.3,268.4 M378.1,278.2c-5.8,0-9.9,4.1-9.9,9.9s4.1,9.9,9.9,9.9h49.4
				c5.8,0,9.9-4.1,9.9-9.9s-4.1-9.9-9.9-9.9H378.1z M540.3,298.8c-24.7,0-44.5,19.8-44.5,44.5c0,24.7,19.8,44.5,44.5,44.5
				s44.5-19.8,44.5-44.5C584.8,318.6,565.1,298.8,540.3,298.8 M358.3,248.6h19.8v-9.9c0-5.8,4.1-9.9,9.9-9.9h29.6
				c5.8,0,9.9,4.1,9.9,9.9v9.9h43.6l18.9-30.5c4.1-5.8,9.9-9.1,16.5-9.1h69.2c7.4,0,14,4.1,17.3,10.7l18.1,29.6h23.9
				c10.7,0,19.8,9.1,19.8,19.8v158.9c0,10.7-9.1,19.8-19.8,19.8H358.3c-10.7,0-19.8-9.1-19.8-19.8V268.4
				C338.6,257.6,346.8,248.6,358.3,248.6"/>
		</g>
	</g>
</g>
</svg>
