<?xml version="1.0" encoding="utf-8"?>
<!-- Generator: Adobe Illustrator 17.1.0, SVG Export Plug-In . SVG Version: 6.00 Build 0)  -->
<!DOCTYPE svg PUBLIC "-//W3C//DTD SVG 1.1//EN" "http://www.w3.org/Graphics/SVG/1.1/DTD/svg11.dtd">
<svg version="1.1" id="Layer_1" xmlns="http://www.w3.org/2000/svg" xmlns:xlink="http://www.w3.org/1999/xlink" x="0px" y="0px"
	 viewBox="16.7 18 68 68" enable-background="new 16.7 18 68 68" xml:space="preserve">
<g>
	<g>
		<defs>
			<rect id="SVGID_1_" x="16.7" y="18" width="68" height="68"/>
		</defs>
		<clipPath id="SVGID_2_">
			<use xlink:href="#SVGID_1_"  overflow="visible"/>
		</clipPath>
		<path clip-path="url(#SVGID_2_)" fill="#009E93" d="M50.7,86c18.8,0,34-15.2,34-34s-15.2-34-34-34s-34,15.2-34,34S31.9,86,50.7,86
			"/>
	</g>
	<g>
		<defs>
			<rect id="SVGID_3_" x="16.7" y="18" width="68" height="68"/>
		</defs>
		<clipPath id="SVGID_4_">
			<use xlink:href="#SVGID_3_"  overflow="visible"/>
		</clipPath>
		<path clip-path="url(#SVGID_4_)" fill="#FFFFFF" d="M55.8,51.2c8.4,3.3,9.7,11.9,8.8,19.7c-7.3,1.2-20.9,1.2-27.9,0
			c-0.8-7.7,0.6-16.4,8.9-19.7c-2.8-1.6-4.6-4.6-4.6-7.9c0.1-5.1,4.4-9.2,9.8-9.1s9.6,4.2,9.6,9.3C60.3,46.8,58.5,49.6,55.8,51.2"/>
	</g>
	<g>
		<defs>
			<rect id="SVGID_5_" x="16.7" y="18" width="68" height="68"/>
		</defs>
		<clipPath id="SVGID_6_">
			<use xlink:href="#SVGID_5_"  overflow="visible"/>
		</clipPath>
		<path clip-path="url(#SVGID_6_)" fill="none" stroke="#FFFFFF" stroke-width="3.8427" stroke-miterlimit="10" d="M55.8,51.2
			c8.4,3.3,9.7,11.9,8.8,19.7c-7.3,1.2-20.9,1.2-27.9,0c-0.8-7.7,0.6-16.4,8.9-19.7c-2.8-1.6-4.6-4.6-4.6-7.9
			c0.1-5.1,4.4-9.2,9.8-9.1s9.6,4.2,9.6,9.3C60.3,46.8,58.5,49.6,55.8,51.2z"/>
	</g>
	<g>
		<defs>
			<rect id="SVGID_7_" x="16.7" y="18" width="68" height="68"/>
		</defs>
		<clipPath id="SVGID_8_">
			<use xlink:href="#SVGID_7_"  overflow="visible"/>
		</clipPath>
		<path clip-path="url(#SVGID_8_)" fill="#FFFFFF" d="M55.9,51.2c8.5,3.3,9.8,12,8.9,19.8c-7.4,1.2-21.1,1.2-28.2,0
			c-0.8-7.8,0.6-16.5,9-19.8c-2.8-1.7-4.7-4.6-4.6-8c0.1-5.1,4.5-9.2,9.9-9.2c5.4,0.1,9.7,4.3,9.7,9.4
			C60.4,46.7,58.6,49.6,55.9,51.2"/>
	</g>
	<g>
		<defs>
			<rect id="SVGID_9_" x="16.7" y="18" width="68" height="68"/>
		</defs>
		<clipPath id="SVGID_10_">
			<use xlink:href="#SVGID_9_"  overflow="visible"/>
		</clipPath>
		<g clip-path="url(#SVGID_10_)">
			<path fill="#009E93" d="M50.5,72.4c-5.5,0-10.7-0.3-14.1-0.9l-0.4-0.1l0-0.4c-0.8-7.1,0.1-16.1,8.4-19.9
				c-2.6-1.9-4.1-4.8-4.1-7.9c0.1-5.3,4.7-9.7,10.3-9.7l0.1,0c2.7,0,5.3,1.1,7.2,2.9c1.9,1.9,3,4.3,2.9,7c0,3-1.5,5.8-4,7.7
				c6.6,3,9.5,10.1,8.3,20l0,0.4l-0.4,0.1C61.3,72.1,56.1,72.4,50.5,72.4z M37,70.6c3.4,0.5,8.2,0.8,13.5,0.8
				c5.3,0,10.3-0.3,13.8-0.8c0.8-6.9-0.1-15.6-8.6-18.9l-1-0.4l0.9-0.5c2.7-1.6,4.3-4.3,4.3-7.3c0-2.3-0.9-4.6-2.6-6.2
				c-1.7-1.7-4.1-2.6-6.5-2.7l-0.1,0c-5.1,0-9.2,3.9-9.3,8.7c0,3.1,1.6,5.9,4.4,7.6l0.9,0.5l-1,0.4C37.3,54.9,36.3,63.7,37,70.6z"/>
		</g>
	</g>
</g>
</svg>
