<?xml version="1.0" encoding="utf-8"?>
<!-- Generator: Adobe Illustrator 17.1.0, SVG Export Plug-In . SVG Version: 6.00 Build 0)  -->
<!DOCTYPE svg PUBLIC "-//W3C//DTD SVG 1.1//EN" "http://www.w3.org/Graphics/SVG/1.1/DTD/svg11.dtd">
<svg version="1.1" id="Layer_1" xmlns="http://www.w3.org/2000/svg" xmlns:xlink="http://www.w3.org/1999/xlink" x="0px" y="0px"
	 viewBox="0 5 68 68" enable-background="new 0 5 68 68" xml:space="preserve">
<g>
	<path fill="#01405F" d="M34,73c18.8,0,34-15.2,34-34S52.8,5,34,5S0,20.2,0,39S15.2,73,34,73"/>
</g>
<g>
	<path fill="#FFFFFF" d="M52.6,43.6c0.3-0.2,2-1.9,2.2-2.1c2.1-1.9,3.4-4.5,3.4-7.5c0-5.6-4.6-10.2-10.2-10.2
		c-1.1,0-2.1,0.2-3.1,0.5c-0.6-6.6-6.2-11.7-12.9-11.7c-7.2,0-13,5.8-13,13c0,0.9,0.1,1.7,0.3,2.5h-2.4c-4.4,0-8,3.6-8,8
		c0,3.7,2.5,6.7,5.8,7.7L52.6,43.6z"/>
</g>
<rect x="17.4" y="29.6" fill="#01405F" width="33.6" height="34"/>
<path fill="#FFFFFF" d="M22.6,60.9h-2.5V48.7h2.5V60.9z M26.7,60.9h-2.5V48.7h2.5V60.9z M18.9,62.3H28V30.9h-9.1V62.3z"/>
<path fill="#FFFFFF" d="M33.5,60.9H31V48.7h2.5V60.9z M37.6,60.9h-2.5V48.7h2.5V60.9z M29.7,62.3h9.1V30.9h-9.1V62.3z"/>
<path fill="#FFFFFF" d="M44.4,60.9h-2.5V48.7h2.5V60.9z M48.5,60.9H46V48.7h2.5V60.9z M40.6,62.3h9.1V30.9h-9.1
	C40.6,30.9,40.6,62.3,40.6,62.3z"/>
<g>
	<g>
		<path fill="#01405F" d="M47.4,35.5c0,1.2-0.9,2.2-2.1,2.2s-2.1-1-2.1-2.2s0.9-2.2,2.1-2.2S47.4,34.3,47.4,35.5"/>
	</g>
	<g>
		<path fill="#01405F" d="M36.4,35.5c0,1.2-0.9,2.2-2.1,2.2c-1.2,0-2.1-1-2.1-2.2s0.9-2.2,2.1-2.2C35.4,33.3,36.4,34.3,36.4,35.5"/>
	</g>
	<g>
		<path fill="#01405F" d="M25.5,35.5c0,1.2-0.9,2.2-2.1,2.2c-1.2,0-2.1-1-2.1-2.2s0.9-2.2,2.1-2.2S25.5,34.3,25.5,35.5"/>
	</g>
</g>
<path display="none" fill="#FFFFFF" d="M16.3,38.4C6.2,38.4-2,46.6-2,56.7S6.2,75,16.3,75s18.3-8.2,18.3-18.3S26.3,38.4,16.3,38.4z
	 M16.3,73C7.3,73,0,65.7,0,56.7s7.3-16.3,16.3-16.3s16.3,7.3,16.3,16.3S25.2,73,16.3,73z"/>
<circle fill="#EE4036" cx="16.3" cy="56.7" r="16.3"/>
<rect x="9.7" y="50.2" fill="#FFFFFF" width="13.1" height="13.1"/>
<g>
	<path fill="none" d="M16.3,73c2.6,0,5-0.6,7.1-1.7C13.1,67.9,5,59.8,1.7,49.5C0.6,51.7,0,54.1,0,56.7C0,65.7,7.3,73,16.3,73z"/>
	<path fill="#FFFFFF" d="M34.5,56.7c0-10.1-8.2-18.3-18.3-18.3c-6.4,0-12.1,3.4-15.4,8.4c0.2,0.9,0.5,1.8,0.8,2.7
		c2.7-5.4,8.2-9.1,14.6-9.1c9,0,16.3,7.3,16.3,16.3c0,6.4-3.7,12-9.1,14.6c0.9,0.3,1.8,0.5,2.7,0.8C31.2,68.8,34.5,63.2,34.5,56.7z"
		/>
</g>
</svg>
