<?xml version="1.0" encoding="utf-8"?>
<!-- Generator: Adobe Illustrator 17.1.0, SVG Export Plug-In . SVG Version: 6.00 Build 0)  -->
<!DOCTYPE svg PUBLIC "-//W3C//DTD SVG 1.1//EN" "http://www.w3.org/Graphics/SVG/1.1/DTD/svg11.dtd">
<svg version="1.1" id="Layer_1" xmlns="http://www.w3.org/2000/svg" xmlns:xlink="http://www.w3.org/1999/xlink" x="0px" y="0px"
	 viewBox="0 5 68 68" enable-background="new 0 5 68 68" xml:space="preserve">
<g>
	<g>
		<g>
			<g>
				<defs>
					<rect id="SVGID_1_" y="5" width="68" height="68"/>
				</defs>
				<clipPath id="SVGID_2_">
					<use xlink:href="#SVGID_1_"  overflow="visible"/>
				</clipPath>
				<path clip-path="url(#SVGID_2_)" fill="#01405F" d="M34,73c18.8,0,34-15.2,34-34S52.8,5,34,5S0,20.2,0,39S15.2,73,34,73"/>
			</g>
		</g>
	</g>
	<g>
		<g>
			<g>
				<defs>
					<rect id="SVGID_3_" y="5" width="68" height="68"/>
				</defs>
				<clipPath id="SVGID_4_">
					<use xlink:href="#SVGID_3_"  overflow="visible"/>
				</clipPath>
				<g clip-path="url(#SVGID_4_)">
					<path fill="#FFFFFF" d="M34.3,19.7l2.7,2.1c3.5,2.7,7.2,4.1,10.9,4.1c2.4,0,4-0.6,4-0.6l5.5-2.4l0.4,5.2
						c0,0.3,0.4,6.3-1.9,13.7c-1.4,4.4-3.5,8.4-6.2,11.8c-3.5,4.4-8,7.9-13.3,10.5l-2,1l-2-1C27,61.5,22.5,58,19.1,53.6
						c-2.7-3.5-4.8-7.4-6.2-11.8C10.5,34.4,11,28.3,11,28.1l0.4-5.4l5.5,2.6c0.2,0.1,1.7,0.6,4,0.6c3.7,0,7.4-1.4,10.9-4.1
						L34.3,19.7z"/>
					<path fill="#FFFFFF" d="M34.4,65.6l-2.2-1.1c-5.5-2.7-10.1-6.3-13.5-10.6c-2.8-3.6-4.9-7.6-6.3-12c-2.1-6.4-2-11.8-1.9-13.8V28
						l0.5-6.1l6.2,2.9c0.2,0.1,1.6,0.6,3.8,0.6c3.6,0,7.2-1.3,10.6-4l2.8-2.3l3,2.3c3.4,2.6,7,4,10.6,4c2.3,0,3.8-0.6,3.8-0.6
						l6.1-2.7l0.5,6c0.1,2,0,7.4-1.9,13.7c-1.4,4.5-3.5,8.5-6.3,12c-3.5,4.4-8,8-13.5,10.6L34.4,65.6z M11.8,23.5l-0.3,4.7
						c-0.1,1.6-0.2,7.1,1.9,13.5c1.3,4.2,3.4,8.1,6.1,11.6c3.3,4.3,7.7,7.8,13.1,10.4l1.8,0.9l1.8-0.9c5.3-2.6,9.7-6.1,13.1-10.4
						C52,49.9,54,46,55.4,41.6c1.9-6.2,2-11.4,1.9-13.4v-0.1L57,23.6l-4.9,2.1c-0.1,0-1.7,0.6-4.2,0.6c-3.8,0-7.6-1.4-11.2-4.2
						l-2.4-1.9L32.1,22c-3.6,2.8-7.4,4.2-11.2,4.2c-2.4,0-4-0.5-4.2-0.7L11.8,23.5z"/>
				</g>
			</g>
		</g>
	</g>
	<g>
		<g>
			<g>
				<defs>
					<rect id="SVGID_5_" y="5" width="68" height="68"/>
				</defs>
				<clipPath id="SVGID_6_">
					<use xlink:href="#SVGID_5_"  overflow="visible"/>
				</clipPath>
				<path clip-path="url(#SVGID_6_)" fill="#FFFFFF" d="M34.3,18.6l-0.6,0.5l-2.8,2.1c-3.3,2.6-6.8,3.9-10.3,3.9
					c-2,0-3.3-0.4-3.6-0.5L11.6,22l-1.3-0.6l-0.1,1.3l-0.4,5.4c0,0.3-0.5,6.5,2,14c1.4,4.5,3.6,8.6,6.4,12.1
					c3.6,4.5,8.2,8.1,13.7,10.8l2,1l0.5,0.2l0.5-0.2l2-1c5.5-2.7,10.1-6.3,13.7-10.8c2.8-3.5,5-7.6,6.4-12.1c2.4-7.5,2-13.8,2-14
					l-0.4-5.3l-0.3-1.1L57,22.3l-5.5,2.4c-0.1,0.1-1.5,0.5-3.6,0.5c-3.5,0-6.9-1.3-10.3-3.9l-2.8-2.1L34.3,18.6z M34.3,19.7l2.8,2.1
					c3.5,2.7,7.2,4.1,10.9,4.1c2.4,0,4-0.6,4-0.6l5.5-2.4l0.4,5.3c0,0.3,0.4,6.3-1.9,13.8c-1.4,4.4-3.5,8.4-6.3,11.9
					c-3.5,4.4-8,7.9-13.4,10.5l-2,1l-2-1c-5.4-2.6-9.9-6.1-13.4-10.5c-2.7-3.5-4.9-7.5-6.3-11.9c-2.4-7.4-1.9-13.5-1.9-13.8l0.4-5.4
					l5.5,2.6c0.2,0.1,1.7,0.6,4,0.6c3.7,0,7.4-1.4,10.9-4.1L34.3,19.7z"/>
			</g>
		</g>
	</g>
	<g>
		<g>
			<g>
				<defs>
					<rect id="SVGID_7_" y="5" width="68" height="68"/>
				</defs>
				<clipPath id="SVGID_8_">
					<use xlink:href="#SVGID_7_"  overflow="visible"/>
				</clipPath>
				<path clip-path="url(#SVGID_8_)" fill="none" stroke="#FFFFFF" stroke-width="0.4744" stroke-miterlimit="10" d="M34.3,18.6
					l-0.6,0.5l-2.8,2.1c-3.3,2.6-6.8,3.9-10.3,3.9c-2,0-3.3-0.4-3.6-0.5L11.6,22l-1.3-0.6l-0.1,1.3l-0.4,5.4c0,0.3-0.5,6.5,2,14
					c1.4,4.5,3.6,8.6,6.4,12.1c3.6,4.5,8.2,8.1,13.7,10.8l2,1l0.5,0.2l0.5-0.2l2-1c5.5-2.7,10.1-6.3,13.7-10.8
					c2.8-3.5,5-7.6,6.4-12.1c2.4-7.5,2-13.8,2-14l-0.4-5.3l-0.3-1.1L57,22.3l-5.5,2.4c-0.1,0.1-1.5,0.5-3.6,0.5
					c-3.5,0-6.9-1.3-10.3-3.9l-2.8-2.1L34.3,18.6z M34.3,19.7l2.8,2.1c3.5,2.7,7.2,4.1,10.9,4.1c2.4,0,4-0.6,4-0.6l5.5-2.4l0.4,5.3
					c0,0.3,0.4,6.3-1.9,13.8c-1.4,4.4-3.5,8.4-6.3,11.9c-3.5,4.4-8,7.9-13.4,10.5l-2,1l-2-1c-5.4-2.6-9.9-6.1-13.4-10.5
					c-2.7-3.5-4.9-7.5-6.3-11.9c-2.4-7.4-1.9-13.5-1.9-13.8l0.4-5.4l5.5,2.6c0.2,0.1,1.7,0.6,4,0.6c3.7,0,7.4-1.4,10.9-4.1
					L34.3,19.7z"/>
			</g>
		</g>
	</g>
	<g>
		<g>
			<g>
				<defs>
					<rect id="SVGID_9_" y="5" width="68" height="68"/>
				</defs>
				<clipPath id="SVGID_10_">
					<use xlink:href="#SVGID_9_"  overflow="visible"/>
				</clipPath>
				<path clip-path="url(#SVGID_10_)" fill="#01405F" d="M34.3,42.7v16.4c-7-3.7-11.9-9.2-14.8-16.4L34.3,42.7V26.9
					c5.3,3.6,10.3,4.4,13.6,4.4c1.4,0,2.6-0.1,3.6-0.3c-0.1,2.2-0.5,5.7-1.7,9.5c-0.2,0.7-0.5,1.4-0.8,2.1L34.3,42.7z M56,28.3
					l-0.2-2.9l-3,1.3c0,0-1.9,0.8-4.8,0.8c-4.2,0-8.3-1.5-12.1-4.5l-1.6-1.1L32.8,23c-1.1,0.9-2.2,1.6-3.4,2.2
					c-2.8,1.5-5.8,2.3-8.8,2.3c-2.8,0-4.7-0.7-4.8-0.8l-2.1-0.9l-0.9-0.4l-0.2,2.9c0,0.2-0.3,4.7,1.1,10.6c0.2,0.8,0.4,1.7,0.7,2.6
					c0.1,0.4,0.3,0.7,0.4,1.1c1.3,3.8,3.2,7.2,5.6,10.2c3.3,4.2,7.6,7.5,12.7,10l1.1,0.5l1.1-0.5C37,62,38.7,61,40.2,60
					c3-2,5.6-4.4,7.8-7.2c2.4-3,4.3-6.5,5.6-10.2c0.1-0.4,0.3-0.7,0.4-1.1C56.4,34.4,56,28.6,56,28.3"/>
			</g>
		</g>
	</g>
</g>
</svg>
