<?xml version="1.0" encoding="utf-8"?>
<!-- Generator: Adobe Illustrator 18.1.1, SVG Export Plug-In . SVG Version: 6.00 Build 0)  -->
<!DOCTYPE svg PUBLIC "-//W3C//DTD SVG 1.1//EN" "http://www.w3.org/Graphics/SVG/1.1/DTD/svg11.dtd">
<svg version="1.1" id="Layer_1" xmlns="http://www.w3.org/2000/svg" xmlns:xlink="http://www.w3.org/1999/xlink" x="0px" y="0px"
	 viewBox="0 0 1224 792" enable-background="new 0 0 1224 792" xml:space="preserve">
<g>
	<g>
		<g>
			<g>
				<g>
					<defs>
						<rect id="SVGID_1_" x="216" y="1" width="792" height="792"/>
					</defs>
					<clipPath id="SVGID_2_">
						<use xlink:href="#SVGID_1_"  overflow="visible"/>
					</clipPath>
					<g clip-path="url(#SVGID_2_)">
						<path fill="#01405F" d="M612,792c219,0,396-177,396-396S831,0,612,0S216,177,216,396S393,792,612,792"/>
					</g>
				</g>
			</g>
		</g>
	</g>
	<g>
		<g>
			<g>
				<g>
					<defs>
						<rect id="SVGID_3_" x="216" y="1" width="792" height="792"/>
					</defs>
					<clipPath id="SVGID_4_">
						<use xlink:href="#SVGID_3_"  overflow="visible"/>
					</clipPath>
				</g>
			</g>
		</g>
	</g>
</g>
<path fill="#FFFFFF" d="M378.2,492.4c43.1,0,79.5-28.7,91.2-68c12.7,0.2,25.5,0,38.9,0c1.1,2.8,2.3,5.5,3.4,8.2
	c5.2,16.9,14,32.3,25.5,45.3c0.1,0.1,0.3,0.3,0.4,0.4c0.3,0.3,0.6,0.6,0.9,1c2.1,2.3,4.2,4.6,6.5,6.7c20.1,19,44.1,31.4,72.3,32.6
	c2.8,0.3,5.6,0.4,8.5,0.5c4.4,0.9,7.4,3.4,9,8.4c1.3,4,3.3,7.9,4.8,11.9c9.5,26,19.1,52,28.4,78.1c1.3,3.6,1.8,7.5,3.1,13
	c-13.7-5.8-25.3-11.1-37.3-15.6c-11.2-4.1-22.2,0.1-30.1,8.3c-11.3,11.7-7.5,36.5,10.8,44.7c15.6,6.9,30.9,14.8,46.5,21.9
	c18.5,8.4,37,16.8,55.9,24.2c13.2,5.2,23.2,1.4,29.7-11.1c19-35.9,36.5-72.6,50.3-110.9c1.3-3.6,0.9-8.6-0.7-12.2
	c-4.2-9.6-10.2-17.4-21.9-19.2c-13.6-2.1-23.1,3.7-29.7,14.7c-4.4,7.3-7.4,15.4-11.3,23.1c-1.5,3-3.8,5.7-7.3,10.9
	c-12.1-34.1-23.4-65.6-34.4-97.2c-1.8-5.1,0-9.3,4.7-12.5c23.3-15.4,38.8-37.1,48.2-62.9c3.3-9.1,7.2-12.5,17.1-12.3
	c30.3,0.7,60.5,0.2,90.8,0.2c2.4,0,4.8,0.6,8.8,1.2c-2.1,3.1-3,5-4.4,6.4c-8.2,8.6-16.6,17-24.8,25.7c-6.7,7.2-9.1,15.1-5.7,25.1
	c7.6,22.3,33.9,25.1,47.9,10.2c23.4-24.7,48.2-48.1,71.9-72.6c18.5-19.1,16.7-26.4,0.7-46.6c-1.3-1.7-3-3.1-4.6-4.6
	c-10.7-10.7-21.3-21.5-32-32.2c-12.2-12.2-24.5-24.5-36.7-36.7c-12.4-12.3-29.5-9.7-39.1-1.1c-12,10.7-13.3,23.4-3.5,37.1
	c4,5.7,9.1,10.6,13.8,15.7c4.7,5.2,9.6,10.3,15.8,17c-35.6,0-68.6-0.3-101.5,0.3c-7.4,0.1-11-2.4-13.6-8.1
	c-8.6-28.1-27-51.9-51.2-67.3c-5.2-5.1-3.9-8.6,0.1-20.4c5.2-15.1,10.7-30.1,16.1-45.1c5-13.7,10-27.5,16-43.9
	c3.3,5.9,5.2,9,6.8,12.1c4.4,8.6,8.3,17.5,13.1,25.8c7,12,21.1,15.5,34.7,9.4c13.4-6,19.4-17.8,15-31.3c-3.1-9.6-6.9-19.1-11.2-28.3
	c-12.9-27-26.3-53.8-39.4-80.7c-4-8.2-10.6-12-19.5-11.1c-6.3,0.7-12.9,1.2-18.6,3.6c-22.5,9.8-44.8,20.2-67.1,30.6
	c-10.2,4.8-20.4,9.7-30.2,15.1c-10.8,5.9-13.9,15.8-12.9,27.4c0.9,10.7,6.4,18.1,16.2,22.1c8.3,3.3,16.4,2.9,24.9-0.8
	c9.7-4.3,20-7.1,30-10.5c0.6-0.8,1.2-1.6,1.7-2.4c-0.4,1-0.8,2-1.2,2.9c-0.2,2.2,0.1,4.5-0.5,6.4c-6.4,18.7-12.8,37.3-19.5,55.8
	c-5.4,14.9-11.4,29.7-16.9,43.9c-0.9,0-1.7,0.1-2.6,0.2c-0.2,0-0.4,0-0.7,0c-57.9,0.1-106.5,40.6-119,94.8c-0.3,0.9-0.6,1.8-0.9,2.7
	c-13.4,0-26.1,0-38.5,0c-10.9-40.6-48-70.5-92.1-70.4c-52.6,0-95.2,42.7-95.2,95.4C282.9,449.9,325.6,492.5,378.2,492.4z
	 M628.6,465.3c-37.7,0-68.4-30.6-68.5-68.3s30.6-68.4,68.3-68.5c37.7,0,68.4,30.6,68.5,68.3C697,434.6,666.3,465.3,628.6,465.3z"/>
</svg>
