<?xml version="1.0" encoding="utf-8"?>
<!-- Generator: Adobe Illustrator 17.1.0, SVG Export Plug-In . SVG Version: 6.00 Build 0)  -->
<!DOCTYPE svg PUBLIC "-//W3C//DTD SVG 1.1//EN" "http://www.w3.org/Graphics/SVG/1.1/DTD/svg11.dtd">
<svg version="1.1" id="Layer_1" xmlns="http://www.w3.org/2000/svg" xmlns:xlink="http://www.w3.org/1999/xlink" x="0px" y="0px"
	 viewBox="200 0 560 560" enable-background="new 200 0 560 560" xml:space="preserve">
<g>
	<path fill="#000000" d="M480,560c154.8,0,280-125.2,280-280S634.8,0,480,0S200,125.2,200,280S325.2,560,480,560"/>
</g>
<g>
	<path fill="#FFFFFF" d="M628.2,434c0,9.9-8.2,18.1-18.1,18.1H349.9c-9.9,0-18.1-8.2-18.1-18.1V130.9c0-9.9,8.2-18.1,18.1-18.1
		h260.2c9.9,0,18.1,8.2,18.1,18.1L628.2,434L628.2,434z"/>
	<path fill="none" stroke="#FFFFFF" stroke-width="1.8729" stroke-miterlimit="10" d="M628.2,434c0,9.9-8.2,18.1-18.1,18.1H349.9
		c-9.9,0-18.1-8.2-18.1-18.1V130.9c0-9.9,8.2-18.1,18.1-18.1h260.2c9.9,0,18.1,8.2,18.1,18.1L628.2,434L628.2,434z"/>
</g>
<path fill="#000000" d="M535.2,144.9c0,4.1-3.3,7.4-7.4,7.4h-95.5c-4.1,0-7.4-3.3-7.4-7.4l0,0c0-4.1,3.3-7.4,7.4-7.4h95.5
	C531.9,137.5,535.2,140.8,535.2,144.9L535.2,144.9z"/>
<g>
	<path fill="#FFFFFF" d="M610.1,460.4H349.9c-14,0-25.5-11.5-25.5-25.5V130.9c0-14,11.5-25.5,25.5-25.5h260.2
		c14,0,25.5,11.5,25.5,25.5v303.9C635.6,448.8,624.1,460.4,610.1,460.4z M349.9,120.2c-5.8,0-9.9,4.9-9.9,9.9V434
		c0,5.8,4.9,9.9,9.9,9.9h260.2c5.8,0,9.9-4.9,9.9-9.9V130.9c0-5.8-4.9-9.9-9.9-9.9H349.9V120.2z"/>
</g>
<rect x="452" y="59.3" fill="#FFFFFF" stroke="#000000" stroke-width="1.0078" stroke-miterlimit="10" width="56" height="82.4"/>
<g>
	<g>
		<defs>
			<path id="SVGID_1_" d="M352.4,120.2c-5.8,0-9.9,4.9-9.9,9.9V434c0,5.8,4.9,9.9,9.9,9.9h259.4c5.8,0,9.9-4.9,9.9-9.9V130.9
				c0-5.8-4.9-9.9-9.9-9.9H352.4V120.2z"/>
		</defs>
		<clipPath id="SVGID_2_">
			<use xlink:href="#SVGID_1_"  overflow="visible"/>
		</clipPath>
		<g clip-path="url(#SVGID_2_)">
			<g>
				<g>
					<path fill="#FFFFFF" d="M517.1,317.1c60.1,24.7,70,88.9,63.4,146.6c-52.7,9.1-149.9,9.1-200.1,0
						c-5.8-57.6,4.1-121.9,64.2-146.6c-19.8-11.5-32.9-34.6-32.9-58.5c0.8-37.9,31.3-68.4,70-67.5c38.7,0.8,69.2,31.3,69.2,69.2
						C549.2,284.1,536,304.7,517.1,317.1"/>
				</g>
			</g>
			<g>
				<g>
					<path fill="#000000" d="M479.2,484.2c-40.4,0-77.4-2.5-102.1-6.6l-10.7-1.6l-0.8-10.7c-7.4-70.8,11.5-123.5,52.7-150.7
						c-14-14.8-22.2-35.4-22.2-56c0.8-46.1,37.1-81.5,83.2-81.5h1.6c46.1,0.8,82.4,37.9,82.4,83.2c-0.8,20.6-8.2,40.4-22.2,54.4
						c42,27.2,60.1,79.1,51.9,150.7L592,476l-9.9,1.6C556.6,481.8,518.7,484.2,479.2,484.2z M392.7,451.3
						c23.1,3.3,53.5,4.9,86.5,4.9s64.2-1.6,88.1-4.9c4.9-63.4-14-104.6-55.2-121.9l-25.5-10.7l23.9-14.8
						c16.5-9.9,25.5-26.4,26.4-46.1c0-29.6-23.9-54.4-55.2-55.2h-0.8c-30.5,0-54.4,23.9-55.2,54.4c0,18.9,9.9,37.1,26.4,46.1
						l23.9,14l-26.4,10.7C398.5,350.8,390.2,405.2,392.7,451.3z"/>
				</g>
			</g>
			<g>
				<g>
					<path fill="#000000" d="M517.1,317.1c60.9,24.7,70,89.8,64.2,147.4c-53.5,9.1-151.5,9.1-202.6,0
						c-5.8-58.5,4.1-122.7,65.1-147.4c-19.8-12.4-33.8-34.6-32.9-59.3c0.8-37.9,32.1-68.4,70.8-68.4c38.7,0.8,70,32.1,70,70
						C549.2,283.3,536.8,304.7,517.1,317.1"/>
				</g>
			</g>
			<g>
				<g>
					<g>
						<path fill="#FFFFFF" d="M479.2,475.2c-39.5,0-76.6-2.5-101.3-6.6l-2.5-0.8v-3.3c-5.8-52.7,0.8-120.2,60.1-148.2
							c-18.9-14-29.6-35.4-29.6-58.5c0.8-39.5,33.8-72.5,74.1-72.5h0.8c19.8,0,37.9,8.2,51.9,21.4c14,14,21.4,32.1,20.6,51.9
							c0,22.2-10.7,42.8-28.8,57.6c47.8,22.2,68.4,74.9,59.3,149.1v3.3l-2.5,0.8C557.4,472.7,519.5,475.2,479.2,475.2z M382.8,461.2
							c24.7,4.1,59.3,5.8,97.2,5.8s74.1-2.5,98.8-5.8c5.8-51.1-0.8-116.1-61.8-140.8l-7.4-3.3l6.6-4.1
							c19.8-11.5,31.3-32.1,31.3-54.4c0-17.3-6.6-34.6-18.9-46.1c-12.4-12.4-29.6-19.8-46.9-19.8h-0.8c-36.2,0-65.9,28.8-66.7,65.1
							c0,23.1,11.5,43.6,31.3,56.8l6.6,4.1l-6.6,2.5C384.5,344.2,377.9,410.1,382.8,461.2z"/>
					</g>
				</g>
			</g>
		</g>
	</g>
</g>
</svg>
