<?xml version="1.0" encoding="utf-8"?>
<!-- Generator: Adobe Illustrator 17.1.0, SVG Export Plug-In . SVG Version: 6.00 Build 0)  -->
<!DOCTYPE svg PUBLIC "-//W3C//DTD SVG 1.1//EN" "http://www.w3.org/Graphics/SVG/1.1/DTD/svg11.dtd">
<svg version="1.1" id="Layer_1" xmlns="http://www.w3.org/2000/svg" xmlns:xlink="http://www.w3.org/1999/xlink" x="0px" y="0px"
	 viewBox="216.7 18 560 560" enable-background="new 216.7 18 560 560" xml:space="preserve">
<g>
	<g>
		<g>
			<defs>
				<rect id="SVGID_1_" x="216.7" y="18" width="560" height="560"/>
			</defs>
			<clipPath id="SVGID_2_">
				<use xlink:href="#SVGID_1_"  overflow="visible"/>
			</clipPath>
			<path clip-path="url(#SVGID_2_)" fill="#822980" d="M496.7,578c154.8,0,280-125.2,280-280S651.5,18,496.7,18s-280,125.2-280,280
				S341.9,578,496.7,578"/>
		</g>
	</g>
	<g>
		<g>
			<defs>
				<rect id="SVGID_3_" x="216.7" y="18" width="560" height="560"/>
			</defs>
			<clipPath id="SVGID_4_">
				<use xlink:href="#SVGID_3_"  overflow="visible"/>
			</clipPath>
			<path clip-path="url(#SVGID_4_)" fill="#FFFFFF" d="M649.9,335.9c2.5-1.6,16.5-15.6,18.1-17.3c17.3-15.6,28-37.1,28-61.8
				c0-46.1-37.9-84-84-84c-9.1,0-17.3,1.6-25.5,4.1c-4.9-54.4-51.1-96.4-106.2-96.4c-59.3,0-107.1,47.8-107.1,107.1
				c0,7.4,0.8,14,2.5,20.6h-19.8c-36.2,0-65.9,29.6-65.9,65.9c0,30.5,20.6,55.2,47.8,63.4L649.9,335.9z"/>
		</g>
	</g>
	<g>
		<g>
			<defs>
				<rect id="SVGID_5_" x="216.7" y="18" width="560" height="560"/>
			</defs>
			<clipPath id="SVGID_6_">
				<use xlink:href="#SVGID_5_"  overflow="visible"/>
			</clipPath>
			<path clip-path="url(#SVGID_6_)" fill="#FFFFFF" d="M371.5,480V264.2c6.6,4.1,14.8,7.4,24.7,10.7c27.2,9.1,60.1,14,98.8,14
				s71.6-4.9,98.8-14c9.9-3.3,18.1-6.6,24.7-10.7v214.9c-6.6,4.1-14.8,7.4-24.7,10.7c-27.2,9.1-60.1,14-98.8,14s-71.6-4.9-98.8-14
				C386.3,487.4,377.3,484.1,371.5,480"/>
		</g>
	</g>
	<g>
		<g>
			<defs>
				<rect id="SVGID_7_" x="216.7" y="18" width="560" height="560"/>
			</defs>
			<clipPath id="SVGID_8_">
				<use xlink:href="#SVGID_7_"  overflow="visible"/>
			</clipPath>
			<path clip-path="url(#SVGID_8_)" fill="#822980" d="M607.9,247.8c0,9.9-10.7,18.9-32.9,26.4c-21.4,7.4-47.8,10.7-78.2,10.7
				s-56.8-3.3-79.1-10.7c-21.4-7.4-32.9-15.6-32.9-26.4c0-9.9,10.7-18.9,32.9-26.4c21.4-7.4,47.8-10.7,79.1-10.7
				c30.5,0,56.8,3.3,78.2,10.7C597.2,228.8,607.9,237.1,607.9,247.8"/>
		</g>
	</g>
	<g>
		<g>
			<defs>
				<rect id="SVGID_9_" x="216.7" y="18" width="560" height="560"/>
			</defs>
			<clipPath id="SVGID_10_">
				<use xlink:href="#SVGID_9_"  overflow="visible"/>
			</clipPath>
			<path clip-path="url(#SVGID_10_)" fill="#822980" d="M607.1,274.9v56c-5.8,3.3-13.2,6.6-22.2,9.9c-24.7,8.2-54.4,12.4-88.9,12.4
				s-64.2-4.1-88.9-12.4c-9.1-3.3-16.5-6.6-22.2-9.9v-56c5.8,3.3,13.2,6.6,22.2,9.9c24.7,8.2,54.4,12.4,88.9,12.4
				s64.2-4.1,88.9-12.4C594.7,281.5,602.1,278.2,607.1,274.9"/>
		</g>
	</g>
	<g>
		<g>
			<defs>
				<rect id="SVGID_11_" x="216.7" y="18" width="560" height="560"/>
			</defs>
			<clipPath id="SVGID_12_">
				<use xlink:href="#SVGID_11_"  overflow="visible"/>
			</clipPath>
			<path clip-path="url(#SVGID_12_)" fill="#822980" d="M385.5,471.8v-56c5.8,3.3,13.2,6.6,22.2,9.9c24.7,8.2,54.4,12.4,88.9,12.4
				s64.2-4.1,88.9-12.4c9.1-3.3,16.5-5.8,22.2-9.1v56c-5.8,3.3-13.2,6.6-22.2,9.9c-24.7,8.2-54.4,12.4-88.9,12.4
				s-64.2-4.1-88.9-12.4C397.9,478.4,390.5,475.1,385.5,471.8"/>
		</g>
	</g>
	<g>
		<g>
			<defs>
				<rect id="SVGID_13_" x="216.7" y="18" width="560" height="560"/>
			</defs>
			<clipPath id="SVGID_14_">
				<use xlink:href="#SVGID_13_"  overflow="visible"/>
			</clipPath>
			<path clip-path="url(#SVGID_14_)" fill="#822980" d="M385.5,400.9v-56c5.8,3.3,13.2,6.6,22.2,9.9c24.7,8.2,54.4,12.4,88.9,12.4
				s64.2-4.1,88.9-12.4c9.1-3.3,16.5-5.8,22.2-9.1v56c-5.8,3.3-13.2,6.6-22.2,9.9c-24.7,8.2-54.4,12.4-88.9,12.4
				s-64.2-4.1-88.9-12.4C397.9,407.5,390.5,404.2,385.5,400.9"/>
		</g>
	</g>
</g>
</svg>
