<?xml version="1.0" encoding="utf-8"?>
<!-- Generator: Adobe Illustrator 17.1.0, SVG Export Plug-In . SVG Version: 6.00 Build 0)  -->
<!DOCTYPE svg PUBLIC "-//W3C//DTD SVG 1.1//EN" "http://www.w3.org/Graphics/SVG/1.1/DTD/svg11.dtd">
<svg version="1.1" id="Layer_1" xmlns="http://www.w3.org/2000/svg" xmlns:xlink="http://www.w3.org/1999/xlink" x="0px" y="0px"
	 viewBox="216.7 0 560 560" enable-background="new 216.7 0 560 560" xml:space="preserve">
<g>
	<path fill="#822980" d="M496.7,560c154.8,0,280-125.2,280-280S651.5,0,496.7,0s-280,125.2-280,280C216.7,434.8,341.9,560,496.7,560
		"/>
	<g>
		<g>
			<polygon fill="#FFFFFF" points="626,447.2 371.5,447.2 341.9,233.1 655.6,233.1 			"/>
		</g>
		<g>
			<ellipse fill="#FFFFFF" cx="499.2" cy="447.2" rx="127.6" ry="42"/>
		</g>
		<g>
			<ellipse fill="#822980" cx="498.3" cy="224.8" rx="143.3" ry="47.8"/>
			<path fill="#FFFFFF" d="M498.3,285.8c-39.5,0-77.4-4.9-105.4-14.8c-42.8-14-51.9-32.9-51.9-46.9s9.1-32.9,51.9-46.9
				c28.8-9.1,65.9-14.8,105.4-14.8s77.4,4.9,105.4,14.8c42.8,14,51.9,32.9,51.9,46.9s-9.1,32.9-51.9,46.9
				C575.8,280.8,538.7,285.8,498.3,285.8z M498.3,191.1c-85.6,0-129.3,23.1-129.3,33.8s43.6,33.8,129.3,33.8s129.3-23.1,129.3-33.8
				C627.6,214.1,584,191.1,498.3,191.1z"/>
		</g>
		<g>
			<path fill="#FFFFFF" d="M499.2,383.8c-86.5,0-157.3-74.1-157.3-165.5s70-165.5,157.3-165.5s157.3,74.1,157.3,165.5
				S585.6,383.8,499.2,383.8z M499.2,74.9c-74.1,0-135.1,64.2-135.1,143.3s60.1,143.3,135.1,143.3s135.1-64.2,135.1-143.3
				S573.3,74.9,499.2,74.9z"/>
		</g>
	</g>
</g>
</svg>
