<?xml version="1.0" encoding="utf-8"?>
<!-- Generator: Adobe Illustrator 17.1.0, SVG Export Plug-In . SVG Version: 6.00 Build 0)  -->
<!DOCTYPE svg PUBLIC "-//W3C//DTD SVG 1.1//EN" "http://www.w3.org/Graphics/SVG/1.1/DTD/svg11.dtd">
<svg version="1.1" id="Layer_1" xmlns="http://www.w3.org/2000/svg" xmlns:xlink="http://www.w3.org/1999/xlink" x="0px" y="0px"
	 viewBox="16.7 18 68 68" enable-background="new 16.7 18 68 68" xml:space="preserve">
<g>
	<g>
		<defs>
			<rect id="SVGID_1_" x="16.7" y="18" width="68" height="68"/>
		</defs>
		<clipPath id="SVGID_2_">
			<use xlink:href="#SVGID_1_"  overflow="visible"/>
		</clipPath>
		<path clip-path="url(#SVGID_2_)" fill="#7B853A" d="M50.7,86c18.8,0,34-15.2,34-34s-15.2-34-34-34s-34,15.2-34,34S31.9,86,50.7,86
			"/>
	</g>
	<g>
		<defs>
			<rect id="SVGID_3_" x="16.7" y="18" width="68" height="68"/>
		</defs>
		<clipPath id="SVGID_4_">
			<use xlink:href="#SVGID_3_"  overflow="visible"/>
		</clipPath>
		<path clip-path="url(#SVGID_4_)" fill="#FFFFFF" d="M69.3,56.6c0.3-0.2,2-1.9,2.2-2.1c2.1-1.9,3.4-4.5,3.4-7.5
			c0-5.6-4.6-10.2-10.2-10.2c-1.1,0-2.1,0.2-3.1,0.5c-0.6-6.6-6.2-11.7-12.9-11.7c-7.2,0-13,5.8-13,13c0,0.9,0.1,1.7,0.3,2.5h-2.4
			c-4.4,0-8,3.6-8,8c0,3.7,2.5,6.7,5.8,7.7L69.3,56.6z"/>
	</g>
	<g>
		<defs>
			<rect id="SVGID_5_" x="16.7" y="18" width="68" height="68"/>
		</defs>
		<clipPath id="SVGID_6_">
			<use xlink:href="#SVGID_5_"  overflow="visible"/>
		</clipPath>
		<path clip-path="url(#SVGID_6_)" fill="#FFFFFF" d="M35.5,74.1V47.9c0.8,0.5,1.8,0.9,3,1.3c3.3,1.1,7.3,1.7,12,1.7
			c4.7,0,8.7-0.6,12-1.7c1.2-0.4,2.2-0.8,3-1.3v26.1c-0.8,0.5-1.8,0.9-3,1.3c-3.3,1.1-7.3,1.7-12,1.7c-4.7,0-8.7-0.6-12-1.7
			C37.3,75,36.2,74.6,35.5,74.1"/>
	</g>
	<g>
		<defs>
			<rect id="SVGID_7_" x="16.7" y="18" width="68" height="68"/>
		</defs>
		<clipPath id="SVGID_8_">
			<use xlink:href="#SVGID_7_"  overflow="visible"/>
		</clipPath>
		<path clip-path="url(#SVGID_8_)" fill="#7B853A" d="M64.2,45.9c0,1.2-1.3,2.3-4,3.2c-2.6,0.9-5.8,1.3-9.5,1.3
			c-3.7,0-6.9-0.4-9.6-1.3c-2.6-0.9-4-1.9-4-3.2c0-1.2,1.3-2.3,4-3.2c2.6-0.9,5.8-1.3,9.6-1.3c3.7,0,6.9,0.4,9.5,1.3
			C62.9,43.6,64.2,44.6,64.2,45.9"/>
	</g>
	<g>
		<defs>
			<rect id="SVGID_9_" x="16.7" y="18" width="68" height="68"/>
		</defs>
		<clipPath id="SVGID_10_">
			<use xlink:href="#SVGID_9_"  overflow="visible"/>
		</clipPath>
		<path clip-path="url(#SVGID_10_)" fill="#7B853A" d="M64.1,49.2V56c-0.7,0.4-1.6,0.8-2.7,1.2c-3,1-6.6,1.5-10.8,1.5
			c-4.2,0-7.8-0.5-10.8-1.5c-1.1-0.4-2-0.8-2.7-1.2v-6.8c0.7,0.4,1.6,0.8,2.7,1.2c3,1,6.6,1.5,10.8,1.5c4.2,0,7.8-0.5,10.8-1.5
			C62.6,50,63.5,49.6,64.1,49.2"/>
	</g>
	<g>
		<defs>
			<rect id="SVGID_11_" x="16.7" y="18" width="68" height="68"/>
		</defs>
		<clipPath id="SVGID_12_">
			<use xlink:href="#SVGID_11_"  overflow="visible"/>
		</clipPath>
		<path clip-path="url(#SVGID_12_)" fill="#7B853A" d="M37.2,73.1v-6.8c0.7,0.4,1.6,0.8,2.7,1.2c3,1,6.6,1.5,10.8,1.5
			c4.2,0,7.8-0.5,10.8-1.5c1.1-0.4,2-0.7,2.7-1.1v6.8c-0.7,0.4-1.6,0.8-2.7,1.2c-3,1-6.6,1.5-10.8,1.5c-4.2,0-7.8-0.5-10.8-1.5
			C38.7,73.9,37.8,73.5,37.2,73.1"/>
	</g>
	<g>
		<defs>
			<rect id="SVGID_13_" x="16.7" y="18" width="68" height="68"/>
		</defs>
		<clipPath id="SVGID_14_">
			<use xlink:href="#SVGID_13_"  overflow="visible"/>
		</clipPath>
		<path clip-path="url(#SVGID_14_)" fill="#7B853A" d="M37.2,64.5v-6.8c0.7,0.4,1.6,0.8,2.7,1.2c3,1,6.6,1.5,10.8,1.5
			c4.2,0,7.8-0.5,10.8-1.5c1.1-0.4,2-0.7,2.7-1.1v6.8c-0.7,0.4-1.6,0.8-2.7,1.2c-3,1-6.6,1.5-10.8,1.5c-4.2,0-7.8-0.5-10.8-1.5
			C38.7,65.3,37.8,64.9,37.2,64.5"/>
	</g>
</g>
</svg>
