<?xml version="1.0" encoding="utf-8"?>
<!-- Generator: Adobe Illustrator 17.1.0, SVG Export Plug-In . SVG Version: 6.00 Build 0)  -->
<!DOCTYPE svg PUBLIC "-//W3C//DTD SVG 1.1//EN" "http://www.w3.org/Graphics/SVG/1.1/DTD/svg11.dtd">
<svg version="1.1" id="Layer_1" xmlns="http://www.w3.org/2000/svg" xmlns:xlink="http://www.w3.org/1999/xlink" x="0px" y="0px"
	 viewBox="16.7 18 68 68" enable-background="new 16.7 18 68 68" xml:space="preserve">
<g>
	<path fill="#7B853A" d="M50.7,86c18.8,0,34-15.2,34-34c0-18.8-15.2-34-34-34c-18.8,0-34,15.2-34,34C16.7,70.8,31.9,86,50.7,86"/>
	<g>
		<g>
			<polygon fill="#FFFFFF" points="66.4,72.3 35.5,72.3 31.9,46.3 70,46.3 			"/>
		</g>
		<g>
			<ellipse fill="#FFFFFF" cx="51" cy="72.3" rx="15.5" ry="5.1"/>
		</g>
		<g>
			<ellipse fill="#7B853A" cx="50.9" cy="45.3" rx="17.4" ry="5.8"/>
			<path fill="#FFFFFF" d="M50.9,52.7c-4.8,0-9.4-0.6-12.8-1.8c-5.2-1.7-6.3-4-6.3-5.7s1.1-4,6.3-5.7c3.5-1.1,8-1.8,12.8-1.8
				s9.4,0.6,12.8,1.8c5.2,1.7,6.3,4,6.3,5.7s-1.1,4-6.3,5.7C60.3,52.1,55.8,52.7,50.9,52.7z M50.9,41.2c-10.4,0-15.7,2.8-15.7,4.1
				s5.3,4.1,15.7,4.1c10.4,0,15.7-2.8,15.7-4.1S61.3,41.2,50.9,41.2z"/>
		</g>
		<g>
			<path fill="#FFFFFF" d="M51,64.6c-10.5,0-19.1-9-19.1-20.1S40.4,24.4,51,24.4s19.1,9,19.1,20.1S61.5,64.6,51,64.6z M51,27.1
				c-9,0-16.4,7.8-16.4,17.4S41.9,61.9,51,61.9s16.4-7.8,16.4-17.4S60,27.1,51,27.1z"/>
		</g>
	</g>
</g>
</svg>
