<?xml version="1.0" encoding="utf-8"?>
<!-- Generator: Adobe Illustrator 18.0.0, SVG Export Plug-In . SVG Version: 6.00 Build 0)  -->
<!DOCTYPE svg PUBLIC "-//W3C//DTD SVG 1.1//EN" "http://www.w3.org/Graphics/SVG/1.1/DTD/svg11.dtd">
<svg version="1.1" xmlns="http://www.w3.org/2000/svg" xmlns:xlink="http://www.w3.org/1999/xlink" x="0px" y="0px"
	 viewBox="376 572 40 40" enable-background="new 376 572 40 40" xml:space="preserve">
<g id="Bolt_1_">
	<path fill="#8E8E8E" d="M406.6,588.4c-0.4-1.1-1.5-1.8-2.6-1.8h-6.4l5-10.7c0.4-0.9,0.3-1.9-0.3-2.7c-0.5-0.8-1.4-1.3-2.4-1.3h-5.3
		c-1.2,0-2.3,0.7-2.7,1.8l-6.5,15.9c-0.5,1.1-0.5,2.4,0.1,3.5c0.7,1.1,1.8,1.7,3.1,1.7h4.1l-7.2,14c-0.4,0.7-0.4,1.4,0,2.1
		c0.4,0.7,1.1,1.1,1.8,1.1c0.6,0,1.1-0.2,1.6-0.7l17-19.8C406.8,590.6,407.1,589.4,406.6,588.4z"/>
</g>
</svg>
