<?xml version="1.0" encoding="utf-8"?>
<!-- Generator: Adobe Illustrator 18.0.0, SVG Export Plug-In . SVG Version: 6.00 Build 0)  -->
<!DOCTYPE svg PUBLIC "-//W3C//DTD SVG 1.1//EN" "http://www.w3.org/Graphics/SVG/1.1/DTD/svg11.dtd">
<svg version="1.1" xmlns="http://www.w3.org/2000/svg" xmlns:xlink="http://www.w3.org/1999/xlink" x="0px" y="0px"
	 viewBox="376 572 40 40" enable-background="new 376 572 40 40" xml:space="preserve">
<g id="List" display="none">
</g>
<g id="Images" display="none">
	<path display="inline" fill="none" stroke="#000000" stroke-width="4" stroke-miterlimit="10" d="M396,592"/>
	<path display="inline" fill="#8E8E8E" d="M396,612c-9.8,0-17.7-7.9-17.7-17.7c0-7.2,4.3-13.6,10.9-16.4c0.8-0.3,1.8,0,2.1,0.9
		c0.3,0.8,0,1.8-0.9,2.1c-5.4,2.3-8.9,7.5-8.9,13.4c0,8,6.5,14.5,14.5,14.5c8,0,14.5-6.5,14.5-14.5c0-5.9-3.5-11.1-8.9-13.4
		c-0.8-0.3-1.2-1.3-0.9-2.1c0.3-0.8,1.3-1.2,2.1-0.9c6.6,2.8,10.9,9.2,10.9,16.4C413.7,604.1,405.8,612,396,612z M397.6,585.2v-11.6
		c0-0.9-0.7-1.6-1.6-1.6s-1.6,0.7-1.6,1.6v11.6c0,0.9,0.7,1.6,1.6,1.6S397.6,586.1,397.6,585.2z"/>
</g>
<g id="Images_Active" display="none">
	<path display="inline" fill="none" stroke="#000000" stroke-width="4" stroke-miterlimit="10" d="M396,592"/>
	<path display="inline" fill="#0C96D3" d="M396,612c-9.8,0-17.7-7.9-17.7-17.7c0-7.2,4.3-13.6,10.9-16.4c0.8-0.3,1.8,0,2.1,0.9
		c0.3,0.8,0,1.8-0.9,2.1c-5.4,2.3-8.9,7.5-8.9,13.4c0,8,6.5,14.5,14.5,14.5c8,0,14.5-6.5,14.5-14.5c0-5.9-3.5-11.1-8.9-13.4
		c-0.8-0.3-1.2-1.3-0.9-2.1c0.3-0.8,1.3-1.2,2.1-0.9c6.6,2.8,10.9,9.2,10.9,16.4C413.7,604.1,405.8,612,396,612z M397.6,585.2v-11.6
		c0-0.9-0.7-1.6-1.6-1.6s-1.6,0.7-1.6,1.6v11.6c0,0.9,0.7,1.6,1.6,1.6S397.6,586.1,397.6,585.2z"/>
</g>
<g id="Volumes" display="none">
	<path display="inline" fill="#8E8E8E" d="M404.2,572h-16.5c-3.8,0-6.8,3.1-6.8,6.8v26.3c0,3.8,3.1,6.8,6.8,6.8h16.5
		c3.8,0,6.8-3.1,6.8-6.8v-26.3C411.1,575.1,408,572,404.2,572z M387.8,575.6h16.5c1.8,0,3.2,1.4,3.2,3.2v5.3h-22.9v-5.3
		C384.6,577.1,386,575.6,387.8,575.6z M407.4,587.8v8.5h-22.9v-8.5H407.4z M404.2,608.4h-16.5c-1.8,0-3.2-1.4-3.2-3.2v-5.3h22.9v5.3
		C407.4,606.9,406,608.4,404.2,608.4z"/>
</g>
<g id="Volumes_Active" display="none">
	<path display="inline" fill="#0C96D3" d="M404.2,572h-16.5c-3.8,0-6.8,3.1-6.8,6.8v26.3c0,3.8,3.1,6.8,6.8,6.8h16.5
		c3.8,0,6.8-3.1,6.8-6.8v-26.3C411.1,575.1,408,572,404.2,572z M387.8,575.6h16.5c1.8,0,3.2,1.4,3.2,3.2v5.3h-22.9v-5.3
		C384.6,577.1,386,575.6,387.8,575.6z M407.4,587.8v8.5h-22.9v-8.5H407.4z M404.2,608.4h-16.5c-1.8,0-3.2-1.4-3.2-3.2v-5.3h22.9v5.3
		C407.4,606.9,406,608.4,404.2,608.4z"/>
</g>
<g id="VM_Types_1_" display="none">
	<path display="inline" fill="#929497" d="M415.8,588.5c-0.1-0.2-0.3-0.3-0.5-0.3l-4.8-0.7c-0.3-0.8-0.6-1.7-1.1-2.6
		c0.3-0.4,0.8-1,1.4-1.8c0.6-0.8,1.1-1.4,1.3-1.7c0.1-0.2,0.2-0.4,0.2-0.6c0-0.2-0.1-0.4-0.2-0.6c-0.6-0.9-2.1-2.4-4.3-4.4
		c-0.2-0.2-0.4-0.3-0.7-0.3c-0.3,0-0.5,0.1-0.6,0.2l-3.7,2.8c-0.7-0.4-1.5-0.7-2.3-1l-0.7-4.8c0-0.2-0.1-0.4-0.3-0.6
		c-0.2-0.1-0.4-0.2-0.6-0.2h-5.8c-0.5,0-0.8,0.2-0.9,0.7c-0.2,0.9-0.5,2.5-0.8,4.8c-0.8,0.3-1.6,0.6-2.4,1l-3.6-2.8
		c-0.2-0.2-0.5-0.3-0.7-0.3c-0.4,0-1.2,0.6-2.5,1.9c-1.3,1.2-2.1,2.2-2.6,2.8c-0.2,0.2-0.2,0.4-0.2,0.6c0,0.2,0.1,0.4,0.3,0.6
		c1.2,1.4,2.1,2.6,2.8,3.6c-0.4,0.8-0.8,1.6-1,2.4l-4.8,0.7c-0.2,0-0.4,0.1-0.5,0.3c-0.1,0.2-0.2,0.4-0.2,0.6v5.8
		c0,0.2,0.1,0.4,0.2,0.6c0.1,0.2,0.3,0.3,0.5,0.3l4.8,0.7c0.2,0.9,0.6,1.7,1.1,2.6c-0.3,0.4-0.8,1-1.4,1.8c-0.6,0.8-1.1,1.4-1.3,1.7
		c-0.1,0.2-0.2,0.4-0.2,0.6c0,0.2,0.1,0.4,0.2,0.6c0.7,0.9,2.1,2.4,4.3,4.4c0.2,0.2,0.4,0.3,0.7,0.3c0.3,0,0.5-0.1,0.7-0.2l3.7-2.8
		c0.7,0.4,1.5,0.7,2.3,1l0.7,4.8c0,0.2,0.1,0.4,0.3,0.6c0.2,0.1,0.4,0.2,0.6,0.2h5.8c0.5,0,0.8-0.2,0.9-0.7c0.2-0.9,0.5-2.5,0.8-4.8
		c0.8-0.3,1.6-0.6,2.4-1l3.6,2.8c0.2,0.2,0.5,0.2,0.7,0.2c0.4,0,1.2-0.6,2.4-1.8c1.3-1.2,2.1-2.2,2.6-2.8c0.2-0.2,0.2-0.4,0.2-0.6
		c0-0.2-0.1-0.4-0.3-0.7c-1.2-1.5-2.2-2.7-2.8-3.6c0.3-0.6,0.7-1.4,1-2.4l4.8-0.7c0.2,0,0.4-0.1,0.5-0.3c0.1-0.2,0.2-0.4,0.2-0.6
		v-5.8C416,588.9,415.9,588.7,415.8,588.5z M400.7,596.7c-1.3,1.3-2.9,2-4.7,2c-1.8,0-3.4-0.7-4.7-2c-1.3-1.3-2-2.9-2-4.7
		c0-1.8,0.7-3.4,2-4.7c1.3-1.3,2.9-2,4.7-2c1.8,0,3.4,0.7,4.7,2c1.3,1.3,2,2.9,2,4.7C402.7,593.8,402,595.4,400.7,596.7z"/>
</g>
<g id="VM_Types_Active" display="none">
	<path display="inline" fill="#0C96D3" d="M415.8,588.5c-0.1-0.2-0.3-0.3-0.5-0.3l-4.8-0.7c-0.3-0.8-0.6-1.7-1.1-2.6
		c0.3-0.4,0.8-1,1.4-1.8c0.6-0.8,1.1-1.4,1.3-1.7c0.1-0.2,0.2-0.4,0.2-0.6c0-0.2-0.1-0.4-0.2-0.6c-0.6-0.9-2.1-2.4-4.3-4.4
		c-0.2-0.2-0.4-0.3-0.7-0.3c-0.3,0-0.5,0.1-0.6,0.2l-3.7,2.8c-0.7-0.4-1.5-0.7-2.3-1l-0.7-4.8c0-0.2-0.1-0.4-0.3-0.6
		c-0.2-0.1-0.4-0.2-0.6-0.2h-5.8c-0.5,0-0.8,0.2-0.9,0.7c-0.2,0.9-0.5,2.5-0.8,4.8c-0.8,0.3-1.6,0.6-2.4,1l-3.6-2.8
		c-0.2-0.2-0.5-0.3-0.7-0.3c-0.4,0-1.2,0.6-2.5,1.9c-1.3,1.2-2.1,2.2-2.6,2.8c-0.2,0.2-0.2,0.4-0.2,0.6c0,0.2,0.1,0.4,0.3,0.6
		c1.2,1.4,2.1,2.6,2.8,3.6c-0.4,0.8-0.8,1.6-1,2.4l-4.8,0.7c-0.2,0-0.4,0.1-0.5,0.3c-0.1,0.2-0.2,0.4-0.2,0.6v5.8
		c0,0.2,0.1,0.4,0.2,0.6c0.1,0.2,0.3,0.3,0.5,0.3l4.8,0.7c0.2,0.9,0.6,1.7,1.1,2.6c-0.3,0.4-0.8,1-1.4,1.8c-0.6,0.8-1.1,1.4-1.3,1.7
		c-0.1,0.2-0.2,0.4-0.2,0.6c0,0.2,0.1,0.4,0.2,0.6c0.7,0.9,2.1,2.4,4.3,4.4c0.2,0.2,0.4,0.3,0.7,0.3c0.3,0,0.5-0.1,0.7-0.2l3.7-2.8
		c0.7,0.4,1.5,0.7,2.3,1l0.7,4.8c0,0.2,0.1,0.4,0.3,0.6c0.2,0.1,0.4,0.2,0.6,0.2h5.8c0.5,0,0.8-0.2,0.9-0.7c0.2-0.9,0.5-2.5,0.8-4.8
		c0.8-0.3,1.6-0.6,2.4-1l3.6,2.8c0.2,0.2,0.5,0.2,0.7,0.2c0.4,0,1.2-0.6,2.4-1.8c1.3-1.2,2.1-2.2,2.6-2.8c0.2-0.2,0.2-0.4,0.2-0.6
		c0-0.2-0.1-0.4-0.3-0.7c-1.2-1.5-2.2-2.7-2.8-3.6c0.3-0.6,0.7-1.4,1-2.4l4.8-0.7c0.2,0,0.4-0.1,0.5-0.3c0.1-0.2,0.2-0.4,0.2-0.6
		v-5.8C416,588.9,415.9,588.7,415.8,588.5z M400.7,596.7c-1.3,1.3-2.9,2-4.7,2c-1.8,0-3.4-0.7-4.7-2c-1.3-1.3-2-2.9-2-4.7
		c0-1.8,0.7-3.4,2-4.7c1.3-1.3,2.9-2,4.7-2c1.8,0,3.4,0.7,4.7,2c1.3,1.3,2,2.9,2,4.7C402.7,593.8,402,595.4,400.7,596.7z"/>
</g>
<g id="Launch_Configs" display="none">
	<g display="inline">
		<path fill="#8E8E8E" d="M414.1,579.4h-24.8c-1.2,0-2.1-1-2.1-2.1c0-1.2,1-2.1,2.1-2.1h24.8c1.2,0,2.1,1,2.1,2.1
			C416.2,578.4,415.3,579.4,414.1,579.4z"/>
		<path fill="#8E8E8E" d="M414.1,588.3h-24.8c-1.2,0-2.1-1-2.1-2.1c0-1.2,1-2.1,2.1-2.1h24.8c1.2,0,2.1,1,2.1,2.1
			C416.2,587.4,415.3,588.3,414.1,588.3z"/>
		<path fill="#8E8E8E" d="M414.1,597.3h-24.8c-1.2,0-2.1-1-2.1-2.1c0-1.2,1-2.1,2.1-2.1h24.8c1.2,0,2.1,1,2.1,2.1
			C416.2,596.4,415.3,597.3,414.1,597.3z"/>
		<path fill="#8E8E8E" d="M414.1,606.3h-24.8c-1.2,0-2.1-1-2.1-2.1c0-1.2,1-2.1,2.1-2.1h24.8c1.2,0,2.1,1,2.1,2.1
			C416.2,605.3,415.3,606.3,414.1,606.3z"/>
		<circle fill="#8E8E8E" cx="378.4" cy="604.2" r="2.2"/>
		<circle fill="#8E8E8E" cx="378.4" cy="595.2" r="2.2"/>
		<circle fill="#8E8E8E" cx="378.4" cy="586.2" r="2.2"/>
		<circle fill="#8E8E8E" cx="378.4" cy="577.2" r="2.2"/>
	</g>
</g>
<g id="Launch_Configs_Active" display="none">
	<g display="inline">
		<path fill="#0C96D3" d="M414.1,579.4h-24.8c-1.2,0-2.1-1-2.1-2.1c0-1.2,1-2.1,2.1-2.1h24.8c1.2,0,2.1,1,2.1,2.1
			C416.2,578.4,415.3,579.4,414.1,579.4z"/>
		<path fill="#0C96D3" d="M414.1,588.3h-24.8c-1.2,0-2.1-1-2.1-2.1c0-1.2,1-2.1,2.1-2.1h24.8c1.2,0,2.1,1,2.1,2.1
			C416.2,587.4,415.3,588.3,414.1,588.3z"/>
		<path fill="#0C96D3" d="M414.1,597.3h-24.8c-1.2,0-2.1-1-2.1-2.1c0-1.2,1-2.1,2.1-2.1h24.8c1.2,0,2.1,1,2.1,2.1
			C416.2,596.4,415.3,597.3,414.1,597.3z"/>
		<path fill="#0C96D3" d="M414.1,606.3h-24.8c-1.2,0-2.1-1-2.1-2.1c0-1.2,1-2.1,2.1-2.1h24.8c1.2,0,2.1,1,2.1,2.1
			C416.2,605.3,415.3,606.3,414.1,606.3z"/>
		<circle fill="#0C96D3" cx="378.4" cy="604.2" r="2.2"/>
		<circle fill="#0C96D3" cx="378.4" cy="595.2" r="2.2"/>
		<circle fill="#0C96D3" cx="378.4" cy="586.2" r="2.2"/>
		<circle fill="#0C96D3" cx="378.4" cy="577.2" r="2.2"/>
	</g>
</g>
<g id="Groups" display="none">
	<g display="inline">
		<path fill="#8E8E8E" d="M387.1,587.4c-1.4-1.8-2.1-4.1-2.1-6.5c0-2.2,0.6-4.3,1.8-6c-3.7-0.5-6.9,2.4-6.9,6c0,2,1,3.8,2.5,4.9
			c0.4,0.3,0.4,0.8,0,1.1c-3.4,2.3-6,7.9-6.4,14.5c-0.1,1.2,0.7,2.2,1.8,2.2h2.5c0-0.2,0.1-0.3,0.1-0.5c1.1-6.1,3.5-11.1,6.6-14.5
			C387.4,588.3,387.4,587.8,387.1,587.4z"/>
		<path fill="#8E8E8E" d="M400.8,588.8c-0.5-0.3-0.5-1.1,0-1.4c2-1.5,3.3-3.8,3.3-6.5c0-2.2-0.9-4.2-2.3-5.7
			c-1.5-1.5-3.5-2.4-5.8-2.4c-2.3,0-4.3,0.9-5.8,2.4c-1.4,1.5-2.3,3.5-2.3,5.7c0,2.7,1.3,5,3.3,6.5c0.5,0.4,0.5,1.1,0,1.4
			c-3.8,2.5-6.7,8-8,14.8c-0.3,1.5-0.5,3-0.6,4.6c-0.1,1.6,1,3,2.4,3h11h11c1.4,0,2.5-1.4,2.4-3c-0.1-1.6-0.3-3.1-0.6-4.6
			C407.5,596.8,404.6,591.4,400.8,588.8z"/>
		<path fill="#8E8E8E" d="M409.6,586.8c-0.4-0.3-0.4-0.8,0-1.1c1.5-1.1,2.5-2.9,2.5-4.9c0-3.6-3.2-6.5-6.9-6c1.2,1.8,1.8,3.9,1.8,6
			c0,2.4-0.8,4.6-2.1,6.5c-0.3,0.4-0.2,0.9,0.1,1.3c3.1,3.3,5.5,8.4,6.6,14.5c0,0.2,0.1,0.4,0.1,0.5h2.5c1,0,1.9-1,1.8-2.2
			C415.5,594.7,413,589.2,409.6,586.8z"/>
	</g>
</g>
<g id="Groups_Active" display="none">
	<g display="inline">
		<path fill="#0C96D3" d="M387.1,587.4c-1.4-1.8-2.1-4.1-2.1-6.5c0-2.2,0.6-4.3,1.8-6c-3.7-0.5-6.9,2.4-6.9,6c0,2,1,3.8,2.5,4.9
			c0.4,0.3,0.4,0.8,0,1.1c-3.4,2.3-6,7.9-6.4,14.5c-0.1,1.2,0.7,2.2,1.8,2.2h2.5c0-0.2,0.1-0.3,0.1-0.5c1.1-6.1,3.5-11.1,6.6-14.5
			C387.4,588.3,387.4,587.8,387.1,587.4z"/>
		<path fill="#0C96D3" d="M400.8,588.8c-0.5-0.3-0.5-1.1,0-1.4c2-1.5,3.3-3.8,3.3-6.5c0-2.2-0.9-4.2-2.3-5.7
			c-1.5-1.5-3.5-2.4-5.8-2.4c-2.3,0-4.3,0.9-5.8,2.4c-1.4,1.5-2.3,3.5-2.3,5.7c0,2.7,1.3,5,3.3,6.5c0.5,0.4,0.5,1.1,0,1.4
			c-3.8,2.5-6.7,8-8,14.8c-0.3,1.5-0.5,3-0.6,4.6c-0.1,1.6,1,3,2.4,3h11h11c1.4,0,2.5-1.4,2.4-3c-0.1-1.6-0.3-3.1-0.6-4.6
			C407.5,596.8,404.6,591.4,400.8,588.8z"/>
		<path fill="#0C96D3" d="M409.6,586.8c-0.4-0.3-0.4-0.8,0-1.1c1.5-1.1,2.5-2.9,2.5-4.9c0-3.6-3.2-6.5-6.9-6c1.2,1.8,1.8,3.9,1.8,6
			c0,2.4-0.8,4.6-2.1,6.5c-0.3,0.4-0.2,0.9,0.1,1.3c3.1,3.3,5.5,8.4,6.6,14.5c0,0.2,0.1,0.4,0.1,0.5h2.5c1,0,1.9-1,1.8-2.2
			C415.5,594.7,413,589.2,409.6,586.8z"/>
	</g>
</g>
<g id="Users" display="none">
	<path display="inline" fill="#8E8E8E" d="M401,588.7c-0.5-0.4-0.5-1.1,0-1.5c2.1-1.5,3.4-4,3.4-6.8c0-2.3-0.9-4.4-2.4-5.9
		c-1.5-1.6-3.7-2.5-6-2.5c-2.4,0-4.5,1-6,2.5c-1.5,1.5-2.4,3.6-2.4,5.9c0,2.8,1.4,5.2,3.4,6.8c0.5,0.4,0.5,1.1,0,1.5
		c-3.9,2.6-7,8.3-8.3,15.4c-0.3,1.5-0.5,3.1-0.6,4.8c-0.1,1.7,1,3.1,2.5,3.1H396h11.4c1.5,0,2.6-1.4,2.5-3.1
		c-0.1-1.7-0.4-3.2-0.6-4.8C408,597,404.9,591.3,401,588.7z"/>
</g>
<g id="Users_Active" display="none">
	<path display="inline" fill="#0C96D3" d="M401,588.7c-0.5-0.4-0.5-1.1,0-1.5c2.1-1.5,3.4-4,3.4-6.8c0-2.3-0.9-4.4-2.4-5.9
		c-1.5-1.6-3.7-2.5-6-2.5c-2.4,0-4.5,1-6,2.5c-1.5,1.5-2.4,3.6-2.4,5.9c0,2.8,1.4,5.2,3.4,6.8c0.5,0.4,0.5,1.1,0,1.5
		c-3.9,2.6-7,8.3-8.3,15.4c-0.3,1.5-0.5,3.1-0.6,4.8c-0.1,1.7,1,3.1,2.5,3.1H396h11.4c1.5,0,2.6-1.4,2.5-3.1
		c-0.1-1.7-0.4-3.2-0.6-4.8C408,597,404.9,591.3,401,588.7z"/>
</g>
<g id="Account" display="none">
	<path display="inline" fill="#8E8E8E" d="M411.8,572h-31.6c-2.3,0-4.2,1.9-4.2,4.2v31.6c0,2.3,1.9,4.2,4.2,4.2h31.6
		c2.3,0,4.2-1.9,4.2-4.2v-31.6C416,573.9,414.1,572,411.8,572z M405,607.8h-9h-9c-1.1,0-2.1-1.1-2-2.4c0.1-1.3,0.3-2.6,0.5-3.8
		c1.1-5.6,3.5-10.1,6.5-12.2c0.4-0.3,0.4-0.9,0-1.2c-1.6-1.2-2.7-3.1-2.7-5.3c0-1.8,0.7-3.5,1.9-4.7c1.2-1.2,2.9-2,4.8-2
		c1.9,0,3.5,0.8,4.8,2c1.2,1.2,1.9,2.8,1.9,4.7c0,2.2-1.1,4.1-2.7,5.3c-0.4,0.3-0.4,0.9,0,1.2c3.1,2.1,5.5,6.6,6.5,12.2
		c0.2,1.2,0.4,2.5,0.5,3.8C407.1,606.6,406.2,607.8,405,607.8z"/>
</g>
<g id="Account_Active" display="none">
	<path display="inline" fill="#0C96D3" d="M411.8,572h-31.6c-2.3,0-4.2,1.9-4.2,4.2v31.6c0,2.3,1.9,4.2,4.2,4.2h31.6
		c2.3,0,4.2-1.9,4.2-4.2v-31.6C416,573.9,414.1,572,411.8,572z M405,607.8h-9h-9c-1.1,0-2.1-1.1-2-2.4c0.1-1.3,0.3-2.6,0.5-3.8
		c1.1-5.6,3.5-10.1,6.5-12.2c0.4-0.3,0.4-0.9,0-1.2c-1.6-1.2-2.7-3.1-2.7-5.3c0-1.8,0.7-3.5,1.9-4.7c1.2-1.2,2.9-2,4.8-2
		c1.9,0,3.5,0.8,4.8,2c1.2,1.2,1.9,2.8,1.9,4.7c0,2.2-1.1,4.1-2.7,5.3c-0.4,0.3-0.4,0.9,0,1.2c3.1,2.1,5.5,6.6,6.5,12.2
		c0.2,1.2,0.4,2.5,0.5,3.8C407.1,606.6,406.2,607.8,405,607.8z"/>
</g>
<g id="Roles" display="none">
	<g display="inline">
		<path fill="#8E8E8E" d="M398.5,572h-5c-0.2,0-0.3,0.1-0.3,0.3v2.9v2.2c0,0.2,0.1,0.3,0.3,0.3h5c0.2,0,0.3-0.1,0.3-0.3v-2.2v-2.9
			C398.8,572.1,398.7,572,398.5,572z"/>
		<path fill="#8E8E8E" d="M407.2,575.2h-7.4v2.2c0,0.8-0.6,1.4-1.4,1.4h-5c-0.8,0-1.4-0.6-1.4-1.4v-2.2h-7.5c-1.4,0-2.5,1.1-2.5,2.5
			v31.8c0,1.4,1.1,2.5,2.5,2.5h22.6c1.4,0,2.5-1.1,2.5-2.5v-31.8C409.7,576.3,408.6,575.2,407.2,575.2z M402,606.2h-6h-6
			c-0.8,0-1.4-0.8-1.3-1.6c0.1-0.9,0.2-1.7,0.3-2.5c0.7-3.7,2.3-6.7,4.4-8.1c0.3-0.2,0.3-0.6,0-0.8c-1.1-0.8-1.8-2.1-1.8-3.6
			c0-1.2,0.5-2.3,1.3-3.1c0.8-0.8,1.9-1.3,3.2-1.3c1.2,0,2.4,0.5,3.2,1.3c0.8,0.8,1.3,1.9,1.3,3.1c0,1.5-0.7,2.7-1.8,3.6
			c-0.3,0.2-0.3,0.6,0,0.8c2.1,1.4,3.7,4.4,4.4,8.1c0.2,0.8,0.3,1.6,0.3,2.5C403.4,605.4,402.8,606.2,402,606.2z"/>
	</g>
</g>
<g id="Roles_Active" display="none">
	<g display="inline">
		<path fill="#0C96D3" d="M398.5,572h-5c-0.2,0-0.3,0.1-0.3,0.3v2.9v2.2c0,0.2,0.1,0.3,0.3,0.3h5c0.2,0,0.3-0.1,0.3-0.3v-2.2v-2.9
			C398.8,572.1,398.7,572,398.5,572z"/>
		<path fill="#0C96D3" d="M407.2,575.2h-7.4v2.2c0,0.8-0.6,1.4-1.4,1.4h-5c-0.8,0-1.4-0.6-1.4-1.4v-2.2h-7.5c-1.4,0-2.5,1.1-2.5,2.5
			v31.8c0,1.4,1.1,2.5,2.5,2.5h22.6c1.4,0,2.5-1.1,2.5-2.5v-31.8C409.7,576.3,408.6,575.2,407.2,575.2z M402,606.2h-6h-6
			c-0.8,0-1.4-0.8-1.3-1.6c0.1-0.9,0.2-1.7,0.3-2.5c0.7-3.7,2.3-6.7,4.4-8.1c0.3-0.2,0.3-0.6,0-0.8c-1.1-0.8-1.8-2.1-1.8-3.6
			c0-1.2,0.5-2.3,1.3-3.1c0.8-0.8,1.9-1.3,3.2-1.3c1.2,0,2.4,0.5,3.2,1.3c0.8,0.8,1.3,1.9,1.3,3.1c0,1.5-0.7,2.7-1.8,3.6
			c-0.3,0.2-0.3,0.6,0,0.8c2.1,1.4,3.7,4.4,4.4,8.1c0.2,0.8,0.3,1.6,0.3,2.5C403.4,605.4,402.8,606.2,402,606.2z"/>
	</g>
</g>
<g id="Bucket" display="none">
	<path display="inline" fill="none" d="M397,584.4c-8.1,0-12.9,1.7-13.1,2.6H397h13.1c0,0,0,0,0,0C410,586.1,405.2,584.4,397,584.4z
		"/>
	<path display="inline" fill="#929497" d="M399,589.6c-0.2,0-0.3,0-0.5,0c-0.5,0-1,0-1.5,0c-8.1,0-13-1.7-13.1-2.6
		c0.2-0.9,5-2.6,13.1-2.6c8.1,0,13,1.7,13.1,2.6c0,0.2-0.2,0.4-0.6,0.6c0,0,0,0,0,0c-0.1,0.1-0.2,0.1-0.4,0.2c0,0,0,0-0.1,0
		c-0.1,0.1-0.3,0.1-0.4,0.2c0,0-0.1,0-0.1,0c-0.2,0.1-0.3,0.1-0.5,0.2c-0.1,0-0.1,0-0.2,0.1c-0.2,0.1-0.3,0.1-0.5,0.2
		c-0.1,0-0.2,0-0.3,0.1c-0.2,0-0.3,0.1-0.5,0.1c-0.1,0-0.2,0.1-0.4,0.1c-0.2,0-0.3,0.1-0.5,0.1c-0.2,0-0.3,0.1-0.5,0.1
		c-0.2,0-0.3,0.1-0.5,0.1c-0.2,0-0.4,0.1-0.6,0.1c-0.2,0-0.3,0.1-0.5,0.1c-0.2,0-0.4,0-0.6,0.1c-0.2,0-0.4,0-0.6,0.1
		c-0.2,0-0.4,0-0.7,0.1c-0.2,0-0.4,0-0.6,0.1c-0.2,0-0.5,0-0.7,0c-0.2,0-0.4,0-0.6,0C399.6,589.5,399.3,589.5,399,589.6z M397,591.5
		c-4.5,0-11.3-0.6-14-2.6l1.8,19.6c0,1.9,5.4,3.5,12.2,3.5s12.2-1.6,12.2-3.5l1.8-19.6C408.4,590.9,401.5,591.5,397,591.5z
		 M410.6,583.6c0-6.4-6.1-11.6-13.6-11.6c-7.5,0-13.6,5.2-13.6,11.6c0,0.6,0.4,1,1,1s1-0.4,1-1c0-5.3,5.2-9.6,11.6-9.6
		s11.6,4.3,11.6,9.6c0,0.6,0.4,1,1,1S410.6,584.2,410.6,583.6z"/>
	<path display="inline" fill="none" stroke="#929497" stroke-width="3.2693" stroke-miterlimit="10" d="M403.6,579.4"/>
</g>
<g id="Bucket_Active" display="none">
	<path display="inline" fill="#0C96D3" d="M397,584.4c-8.1,0-12.9,1.7-13.1,2.6H397h13.1c0,0,0,0,0,0
		C410,586.1,405.2,584.4,397,584.4z"/>
	<path display="inline" fill="#0C96D3" d="M399,589.6c-0.2,0-0.3,0-0.5,0c-0.5,0-1,0-1.5,0c-8.1,0-13-1.7-13.1-2.6
		c0.2-0.9,5-2.6,13.1-2.6c8.1,0,13,1.7,13.1,2.6c0,0.2-0.2,0.4-0.6,0.6c0,0,0,0,0,0c-0.1,0.1-0.2,0.1-0.4,0.2c0,0,0,0-0.1,0
		c-0.1,0.1-0.3,0.1-0.4,0.2c0,0-0.1,0-0.1,0c-0.2,0.1-0.3,0.1-0.5,0.2c-0.1,0-0.1,0-0.2,0.1c-0.2,0.1-0.3,0.1-0.5,0.2
		c-0.1,0-0.2,0-0.3,0.1c-0.2,0-0.3,0.1-0.5,0.1c-0.1,0-0.2,0.1-0.4,0.1c-0.2,0-0.3,0.1-0.5,0.1c-0.2,0-0.3,0.1-0.5,0.1
		c-0.2,0-0.3,0.1-0.5,0.1c-0.2,0-0.4,0.1-0.6,0.1c-0.2,0-0.3,0.1-0.5,0.1c-0.2,0-0.4,0-0.6,0.1c-0.2,0-0.4,0-0.6,0.1
		c-0.2,0-0.4,0-0.7,0.1c-0.2,0-0.4,0-0.6,0.1c-0.2,0-0.5,0-0.7,0c-0.2,0-0.4,0-0.6,0C399.6,589.5,399.3,589.5,399,589.6z M397,591.5
		c-4.5,0-11.3-0.6-14-2.6l1.8,19.6c0,1.9,5.4,3.5,12.2,3.5s12.2-1.6,12.2-3.5l1.8-19.6C408.4,590.9,401.5,591.5,397,591.5z
		 M410.6,583.6c0-6.4-6.1-11.6-13.6-11.6c-7.5,0-13.6,5.2-13.6,11.6c0,0.6,0.4,1,1,1s1-0.4,1-1c0-5.3,5.2-9.6,11.6-9.6
		s11.6,4.3,11.6,9.6c0,0.6,0.4,1,1,1S410.6,584.2,410.6,583.6z"/>
	<path display="inline" fill="#0C96D3" d="M403.6,579.4"/>
</g>
<g id="Security_Groups" display="none">
	<path display="inline" fill="#8E8E8E" d="M396.2,515.9v9.6c-4.1-2.2-7-5.4-8.7-9.6H396.2v-9.3c3.1,2.1,6.1,2.6,8,2.6
		c0.8,0,1.5-0.1,2.1-0.2c-0.1,1.3-0.3,3.4-1,5.6c-0.1,0.4-0.3,0.8-0.5,1.2L396.2,515.9z M409,507.4l-0.1-1.7l-1.8,0.8
		c0,0-1.1,0.5-2.8,0.5c-2.5,0-4.9-0.9-7.1-2.6l-0.9-0.6l-0.9,0.6c-0.6,0.5-1.3,0.9-2,1.3c-1.6,0.9-3.4,1.4-5.2,1.4
		c-1.6,0-2.8-0.4-2.8-0.5l-1.2-0.5l-0.5-0.2l-0.1,1.7c0,0.1-0.2,2.8,0.6,6.2c0.1,0.5,0.2,1,0.4,1.5c0.1,0.2,0.2,0.4,0.2,0.6
		c0.8,2.2,1.9,4.2,3.3,6c1.9,2.5,4.5,4.4,7.5,5.9l0.6,0.3l0.6-0.3c1-0.5,2-1.1,2.9-1.6c1.8-1.2,3.3-2.6,4.6-4.2
		c1.4-1.8,2.5-3.8,3.3-6c0.1-0.2,0.2-0.4,0.2-0.6C409.2,511,409,507.6,409,507.4"/>
	<g display="inline">
		<path fill="#8E8E8E" d="M396,574.5c0.5,0,1,0.2,1.5,0.5c3.7,2.9,7.2,3.5,9.6,3.5c1.3,0,2.7-0.2,4-0.5c0.2-0.1,0.4-0.1,0.6-0.1
			c0.6,0,1.1,0.2,1.6,0.6c0.6,0.5,1,1.3,1,2.2c0,8-2.9,19.4-16.9,28.4c-0.4,0.3-0.8,0.4-1.3,0.4c-0.4,0-0.9-0.1-1.3-0.4
			c-14-9-16.9-20.4-16.9-28.4c0-0.8,0.4-1.7,1-2.2c0.5-0.4,1-0.6,1.6-0.6c0.2,0,0.4,0,0.6,0.1c1.3,0.4,2.7,0.5,4,0.5
			c2.3,0,5.9-0.6,9.6-3.5C395,574.7,395.5,574.5,396,574.5 M396,572.5c-0.9,0-1.8,0.3-2.5,0.9c-3.3,2.6-6.4,3.1-8.5,3.1
			c-1.2,0-2.4-0.2-3.6-0.5c-0.3-0.1-0.7-0.1-1-0.1c-1,0-1.9,0.4-2.7,1c-1.1,0.9-1.7,2.3-1.7,3.7c0,8.5,3,20.7,17.8,30.1
			c0.7,0.4,1.4,0.7,2.2,0.7c0.8,0,1.5-0.2,2.2-0.7c14.8-9.4,17.8-21.6,17.8-30.1c0-1.5-0.6-2.8-1.7-3.7c-0.8-0.7-1.7-1-2.7-1
			c-0.3,0-0.7,0-1,0.1c-1.2,0.3-2.4,0.5-3.6,0.5c-2.1,0-5.2-0.5-8.5-3.1C397.8,572.9,396.9,572.5,396,572.5L396,572.5z"/>
		<g>
			<path fill="#8E8E8E" d="M396,579.8c4.2,2.9,8.3,3.5,11,3.5c0.8,0,1.7-0.1,2.5-0.2c-0.7,8.4-5.2,15.5-13.5,21.2
				c-8.3-5.6-12.8-12.7-13.5-21.2c0.8,0.1,1.7,0.2,2.5,0.2C387.7,583.3,391.8,582.7,396,579.8 M396,577.3c-4.1,3.2-8.1,4-11,4
				c-1.7,0-3.2-0.2-4.6-0.6c0,8.2,3.2,18.1,15.6,26c12.4-7.9,15.7-17.8,15.6-26c-1.4,0.4-2.9,0.6-4.6,0.6
				C404.1,581.3,400.1,580.5,396,577.3L396,577.3z"/>
		</g>
		<g>
			<path fill="#8E8E8E" d="M396,577.3c-4.1,3.2-8.1,4-11,4c-1.7,0-3.2-0.2-4.6-0.6c0,3.6,0.6,7.4,2.3,11.3H396V577.3z"/>
		</g>
		<g>
			<path fill="#8E8E8E" d="M396,592v14.7c0,0,0,0,0,0c7-4.5,11.1-9.6,13.3-14.7H396z"/>
		</g>
	</g>
</g>
<g id="Security_Groups_Active" display="none">
	<path display="inline" fill="#8E8E8E" d="M396.2,515.9v9.6c-4.1-2.2-7-5.4-8.7-9.6H396.2v-9.3c3.1,2.1,6.1,2.6,8,2.6
		c0.8,0,1.5-0.1,2.1-0.2c-0.1,1.3-0.3,3.4-1,5.6c-0.1,0.4-0.3,0.8-0.5,1.2L396.2,515.9z M409,507.4l-0.1-1.7l-1.8,0.8
		c0,0-1.1,0.5-2.8,0.5c-2.5,0-4.9-0.9-7.1-2.6l-0.9-0.6l-0.9,0.6c-0.6,0.5-1.3,0.9-2,1.3c-1.6,0.9-3.4,1.4-5.2,1.4
		c-1.6,0-2.8-0.4-2.8-0.5l-1.2-0.5l-0.5-0.2l-0.1,1.7c0,0.1-0.2,2.8,0.6,6.2c0.1,0.5,0.2,1,0.4,1.5c0.1,0.2,0.2,0.4,0.2,0.6
		c0.8,2.2,1.9,4.2,3.3,6c1.9,2.5,4.5,4.4,7.5,5.9l0.6,0.3l0.6-0.3c1-0.5,2-1.1,2.9-1.6c1.8-1.2,3.3-2.6,4.6-4.2
		c1.4-1.8,2.5-3.8,3.3-6c0.1-0.2,0.2-0.4,0.2-0.6C409.2,511,409,507.6,409,507.4"/>
	<path display="inline" fill="#0C96D3" d="M396,574.5c0.5,0,1,0.2,1.5,0.5c3.7,2.9,7.2,3.5,9.6,3.5c1.3,0,2.7-0.2,4-0.5
		c0.2-0.1,0.4-0.1,0.6-0.1c0.6,0,1.1,0.2,1.6,0.6c0.6,0.5,1,1.3,1,2.2c0,8-2.9,19.4-16.9,28.4c-0.4,0.3-0.8,0.4-1.3,0.4
		c-0.4,0-0.9-0.1-1.3-0.4c-14-9-16.9-20.4-16.9-28.4c0-0.8,0.4-1.7,1-2.2c0.5-0.4,1-0.6,1.6-0.6c0.2,0,0.4,0,0.6,0.1
		c1.3,0.4,2.7,0.5,4,0.5c2.3,0,5.9-0.6,9.6-3.5C395,574.7,395.5,574.5,396,574.5 M396,572.5c-0.9,0-1.8,0.3-2.5,0.9
		c-3.3,2.6-6.4,3.1-8.5,3.1c-1.2,0-2.4-0.2-3.6-0.5c-0.3-0.1-0.7-0.1-1-0.1c-1,0-1.9,0.4-2.7,1c-1.1,0.9-1.7,2.3-1.7,3.7
		c0,8.5,3,20.7,17.8,30.1c0.7,0.4,1.4,0.7,2.2,0.7c0.8,0,1.5-0.2,2.2-0.7c14.8-9.4,17.8-21.6,17.8-30.1c0-1.5-0.6-2.8-1.7-3.7
		c-0.8-0.7-1.7-1-2.7-1c-0.3,0-0.7,0-1,0.1c-1.2,0.3-2.4,0.5-3.6,0.5c-2.1,0-5.2-0.5-8.5-3.1C397.8,572.9,396.9,572.5,396,572.5
		L396,572.5z"/>
	<path display="inline" fill="#0C96D3" d="M396,579.8c4.2,2.9,8.3,3.5,11,3.5c0.8,0,1.7-0.1,2.5-0.2c-0.7,8.4-5.2,15.5-13.5,21.2
		c-8.3-5.6-12.8-12.7-13.5-21.2c0.8,0.1,1.7,0.2,2.5,0.2C387.7,583.3,391.8,582.7,396,579.8 M396,577.3c-4.1,3.2-8.1,4-11,4
		c-1.7,0-3.2-0.2-4.6-0.6c0,8.2,3.2,18.1,15.6,26c12.4-7.9,15.7-17.8,15.6-26c-1.4,0.4-2.9,0.6-4.6,0.6
		C404.1,581.3,400.1,580.5,396,577.3L396,577.3z"/>
	<g display="inline">
		<path fill="#0C96D3" d="M396,577.3c-4.1,3.2-8.1,4-11,4c-1.7,0-3.2-0.2-4.6-0.6c0,3.6,0.6,7.4,2.3,11.3H396V577.3z"/>
	</g>
	<g display="inline">
		<path fill="#0C96D3" d="M396,592v14.7c0,0,0,0,0,0c7-4.5,11.1-9.6,13.3-14.7H396z"/>
	</g>
</g>
<g id="Load_Balancing" display="none">
	<path display="inline" fill="#8E8E8E" d="M381.6,597.6c2.6,0,4.7-1.7,5.4-4c0.8,0,1.5,0,2.3,0c0.1,0.2,0.1,0.3,0.2,0.5
		c0.3,1,0.8,1.9,1.5,2.7c0,0,0,0,0,0c0,0,0,0,0.1,0.1c0.1,0.1,0.3,0.3,0.4,0.4c1.2,1.1,2.6,1.9,4.3,1.9c0.2,0,0.3,0,0.5,0
		c0.3,0.1,0.4,0.2,0.5,0.5c0.1,0.2,0.2,0.5,0.3,0.7c0.6,1.5,1.1,3.1,1.7,4.6c0.1,0.2,0.1,0.4,0.2,0.8c-0.8-0.3-1.5-0.7-2.2-0.9
		c-0.7-0.2-1.3,0-1.8,0.5c-0.7,0.7-0.4,2.2,0.6,2.6c0.9,0.4,1.8,0.9,2.8,1.3c1.1,0.5,2.2,1,3.3,1.4c0.8,0.3,1.4,0.1,1.8-0.7
		c1.1-2.1,2.2-4.3,3-6.6c0.1-0.2,0.1-0.5,0-0.7c-0.3-0.6-0.6-1-1.3-1.1c-0.8-0.1-1.4,0.2-1.8,0.9c-0.3,0.4-0.4,0.9-0.7,1.4
		c-0.1,0.2-0.2,0.3-0.4,0.6c-0.7-2-1.4-3.9-2-5.7c-0.1-0.3,0-0.6,0.3-0.7c1.4-0.9,2.3-2.2,2.9-3.7c0.2-0.5,0.4-0.7,1-0.7
		c1.8,0,3.6,0,5.4,0c0.1,0,0.3,0,0.5,0.1c-0.1,0.2-0.2,0.3-0.3,0.4c-0.5,0.5-1,1-1.5,1.5c-0.4,0.4-0.5,0.9-0.3,1.5
		c0.5,1.3,2,1.5,2.8,0.6c1.4-1.5,2.9-2.8,4.3-4.3c1.1-1.1,1-1.6,0-2.8c-0.1-0.1-0.2-0.2-0.3-0.3c-0.6-0.6-1.3-1.3-1.9-1.9
		c-0.7-0.7-1.4-1.4-2.2-2.2c-0.7-0.7-1.7-0.6-2.3-0.1c-0.7,0.6-0.8,1.4-0.2,2.2c0.2,0.3,0.5,0.6,0.8,0.9c0.3,0.3,0.6,0.6,0.9,1
		c-2.1,0-4.1,0-6,0c-0.4,0-0.7-0.1-0.8-0.5c-0.5-1.7-1.6-3.1-3-4c-0.3-0.3-0.2-0.5,0-1.2c0.3-0.9,0.6-1.8,1-2.7
		c0.3-0.8,0.6-1.6,0.9-2.6c0.2,0.4,0.3,0.5,0.4,0.7c0.3,0.5,0.5,1,0.8,1.5c0.4,0.7,1.2,0.9,2,0.6c0.8-0.4,1.1-1.1,0.9-1.8
		c-0.2-0.6-0.4-1.1-0.7-1.7c-0.8-1.6-1.6-3.2-2.3-4.8c-0.2-0.5-0.6-0.7-1.2-0.7c-0.4,0-0.8,0.1-1.1,0.2c-1.3,0.6-2.7,1.2-4,1.8
		c-0.6,0.3-1.2,0.6-1.8,0.9c-0.6,0.4-0.8,0.9-0.8,1.6c0.1,0.6,0.4,1.1,1,1.3c0.5,0.2,1,0.2,1.5-0.1c0.6-0.3,1.2-0.4,1.8-0.6
		c0-0.1,0.1-0.1,0.1-0.1c0,0.1-0.1,0.1-0.1,0.2c0,0.1,0,0.3,0,0.4c-0.4,1.1-0.8,2.2-1.2,3.3c-0.3,0.9-0.7,1.8-1,2.6
		c-0.1,0-0.1,0-0.2,0c0,0,0,0,0,0c-3.4,0-6.3,2.4-7,5.6c0,0.1,0,0.1-0.1,0.2c-0.8,0-1.5,0-2.3,0c-0.6-2.4-2.8-4.2-5.4-4.2
		c-3.1,0-5.6,2.5-5.6,5.6C376,595,378.5,597.6,381.6,597.6z M396.4,596c-2.2,0-4-1.8-4-4c0-2.2,1.8-4,4-4s4,1.8,4,4
		C400.5,594.1,398.7,596,396.4,596z"/>
</g>
<g id="Load_Balancing_Active" display="none">
	<path display="inline" fill="#0C96D3" d="M381.6,597.6c2.6,0,4.7-1.7,5.4-4c0.8,0,1.5,0,2.3,0c0.1,0.2,0.1,0.3,0.2,0.5
		c0.3,1,0.8,1.9,1.5,2.7c0,0,0,0,0,0c0,0,0,0,0.1,0.1c0.1,0.1,0.3,0.3,0.4,0.4c1.2,1.1,2.6,1.9,4.3,1.9c0.2,0,0.3,0,0.5,0
		c0.3,0.1,0.4,0.2,0.5,0.5c0.1,0.2,0.2,0.5,0.3,0.7c0.6,1.5,1.1,3.1,1.7,4.6c0.1,0.2,0.1,0.4,0.2,0.8c-0.8-0.3-1.5-0.7-2.2-0.9
		c-0.7-0.2-1.3,0-1.8,0.5c-0.7,0.7-0.4,2.2,0.6,2.6c0.9,0.4,1.8,0.9,2.8,1.3c1.1,0.5,2.2,1,3.3,1.4c0.8,0.3,1.4,0.1,1.8-0.7
		c1.1-2.1,2.2-4.3,3-6.6c0.1-0.2,0.1-0.5,0-0.7c-0.3-0.6-0.6-1-1.3-1.1c-0.8-0.1-1.4,0.2-1.8,0.9c-0.3,0.4-0.4,0.9-0.7,1.4
		c-0.1,0.2-0.2,0.3-0.4,0.6c-0.7-2-1.4-3.9-2-5.7c-0.1-0.3,0-0.6,0.3-0.7c1.4-0.9,2.3-2.2,2.9-3.7c0.2-0.5,0.4-0.7,1-0.7
		c1.8,0,3.6,0,5.4,0c0.1,0,0.3,0,0.5,0.1c-0.1,0.2-0.2,0.3-0.3,0.4c-0.5,0.5-1,1-1.5,1.5c-0.4,0.4-0.5,0.9-0.3,1.5
		c0.5,1.3,2,1.5,2.8,0.6c1.4-1.5,2.9-2.8,4.3-4.3c1.1-1.1,1-1.6,0-2.8c-0.1-0.1-0.2-0.2-0.3-0.3c-0.6-0.6-1.3-1.3-1.9-1.9
		c-0.7-0.7-1.4-1.4-2.2-2.2c-0.7-0.7-1.7-0.6-2.3-0.1c-0.7,0.6-0.8,1.4-0.2,2.2c0.2,0.3,0.5,0.6,0.8,0.9c0.3,0.3,0.6,0.6,0.9,1
		c-2.1,0-4.1,0-6,0c-0.4,0-0.7-0.1-0.8-0.5c-0.5-1.7-1.6-3.1-3-4c-0.3-0.3-0.2-0.5,0-1.2c0.3-0.9,0.6-1.8,1-2.7
		c0.3-0.8,0.6-1.6,0.9-2.6c0.2,0.4,0.3,0.5,0.4,0.7c0.3,0.5,0.5,1,0.8,1.5c0.4,0.7,1.2,0.9,2,0.6c0.8-0.4,1.1-1.1,0.9-1.8
		c-0.2-0.6-0.4-1.1-0.7-1.7c-0.8-1.6-1.6-3.2-2.3-4.8c-0.2-0.5-0.6-0.7-1.2-0.7c-0.4,0-0.8,0.1-1.1,0.2c-1.3,0.6-2.7,1.2-4,1.8
		c-0.6,0.3-1.2,0.6-1.8,0.9c-0.6,0.4-0.8,0.9-0.8,1.6c0.1,0.6,0.4,1.1,1,1.3c0.5,0.2,1,0.2,1.5-0.1c0.6-0.3,1.2-0.4,1.8-0.6
		c0-0.1,0.1-0.1,0.1-0.1c0,0.1-0.1,0.1-0.1,0.2c0,0.1,0,0.3,0,0.4c-0.4,1.1-0.8,2.2-1.2,3.3c-0.3,0.9-0.7,1.8-1,2.6
		c-0.1,0-0.1,0-0.2,0c0,0,0,0,0,0c-3.4,0-6.3,2.4-7,5.6c0,0.1,0,0.1-0.1,0.2c-0.8,0-1.5,0-2.3,0c-0.6-2.4-2.8-4.2-5.4-4.2
		c-3.1,0-5.6,2.5-5.6,5.6C376,595.1,378.5,597.6,381.6,597.6z M396.4,596c-2.2,0-4-1.8-4-4c0-2.2,1.8-4,4-4s4,1.8,4,4
		C400.5,594.2,398.7,596,396.4,596z"/>
	<rect x="418" y="572" display="inline" fill="#0C96D3" width="10" height="10"/>
	<rect x="418" y="584" display="inline" fill="#8E8E8E" width="10" height="10"/>
</g>
<g id="Snapshots" display="none">
	<path display="inline" fill="#8E8E8E" d="M401.5,583.9c-5.2,0-9.4,4.2-9.4,9.4c0,5.2,4.2,9.4,9.4,9.4c5.2,0,9.4-4.2,9.4-9.4
		C410.9,588.2,406.7,583.9,401.5,583.9 M381,585.1c-0.7,0-1.2,0.5-1.2,1.2c0,0.7,0.5,1.2,1.2,1.2h6.2c0.7,0,1.2-0.5,1.2-1.2
		c0-0.7-0.5-1.2-1.2-1.2H381z M401.5,587.7c-3.1,0-5.6,2.5-5.6,5.6s2.5,5.6,5.6,5.6s5.6-2.5,5.6-5.6S404.6,587.7,401.5,587.7
		 M378.5,581.4h2.5v-1.2c0-0.7,0.5-1.2,1.2-1.2h3.8c0.7,0,1.2,0.5,1.2,1.2v1.2h5.5l2.4-3.9c0.5-0.7,1.2-1.1,2.1-1.1h8.8
		c0.9,0,1.8,0.5,2.2,1.4l2.3,3.8h3c1.4,0,2.5,1.1,2.5,2.5v20.1c0,1.4-1.1,2.5-2.5,2.5h-35c-1.4,0-2.5-1.1-2.5-2.5v-20.2
		C376,582.5,377,581.4,378.5,581.4"/>
</g>
<g id="Snapshots_Active" display="none">
	<path display="inline" fill="#0C96D3" d="M401.5,583.9c-5.2,0-9.4,4.2-9.4,9.4c0,5.2,4.2,9.4,9.4,9.4c5.2,0,9.4-4.2,9.4-9.4
		C410.9,588.2,406.7,583.9,401.5,583.9 M381,585.1c-0.7,0-1.2,0.5-1.2,1.2c0,0.7,0.5,1.2,1.2,1.2h6.2c0.7,0,1.2-0.5,1.2-1.2
		c0-0.7-0.5-1.2-1.2-1.2H381z M401.5,587.7c-3.1,0-5.6,2.5-5.6,5.6s2.5,5.6,5.6,5.6s5.6-2.5,5.6-5.6S404.6,587.7,401.5,587.7
		 M378.5,581.4h2.5v-1.2c0-0.7,0.5-1.2,1.2-1.2h3.8c0.7,0,1.2,0.5,1.2,1.2v1.2h5.5l2.4-3.9c0.5-0.7,1.2-1.1,2.1-1.1h8.8
		c0.9,0,1.8,0.5,2.2,1.4l2.3,3.8h3c1.4,0,2.5,1.1,2.5,2.5v20.1c0,1.4-1.1,2.5-2.5,2.5h-35c-1.4,0-2.5-1.1-2.5-2.5v-20.2
		C376,582.5,377,581.4,378.5,581.4"/>
</g>
<g id="Key_Pairs" display="none">
	<path display="inline" fill="#8E8E8E" d="M415.1,589.5l-1.9-0.9c-0.3-0.1-0.6-0.2-0.9-0.2h-21.1c-1.4-2.8-4.5-4.7-8-4.4
		c-3.8,0.3-6.8,3.3-7.2,7.1c-0.5,4.9,3.3,9,8,9c3,0,5.7-1.7,7.1-4.2c0.1-0.2,0.3-0.4,0.4-0.6l1-1c0.4-0.4,1.1-0.4,1.6,0l1.3,1.2
		c0.1,0.1,0.1,0.1,0.2,0.1h0.8c0.1,0,0.1,0,0.2-0.1l1.3-1.2c0.4-0.4,1.1-0.4,1.6,0l1.3,1.2c0.1,0.1,0.1,0.1,0.2,0.1h0.8
		c0.1,0,0.2,0,0.2-0.1l1.3-1.2c0.4-0.4,1.1-0.4,1.6,0l1.3,1.2c0,0,0.1,0.1,0.1,0.1h0.9c0.1,0,0.1,0,0.2-0.1l1.3-1.2
		c0.4-0.4,1.1-0.4,1.6,0l1.3,1.2c0,0,0.1,0.1,0.2,0.1h0.1c0.7,0,1.3-0.3,1.7-0.8l2.2-2.8C416.3,591.2,416,590,415.1,589.5z
		 M380.4,594.4c-1.3,0-2.4-1.1-2.4-2.4s1.1-2.4,2.4-2.4c1.3,0,2.4,1.1,2.4,2.4S381.7,594.4,380.4,594.4z M411.6,590.8
		c0,0.4-0.3,0.7-0.7,0.7h-19.4c-0.2,0-0.4-0.2-0.4-0.4v-0.9c0-0.3,0.2-0.5,0.5-0.5h19.3c0.4,0,0.7,0.3,0.7,0.7V590.8z"/>
</g>
<g id="Key_Pairs_Active" display="none">
	<path display="inline" fill="#0C96D3" d="M415.1,589.5l-1.9-0.9c-0.3-0.1-0.6-0.2-0.9-0.2h-21.1c-1.4-2.8-4.5-4.7-8-4.4
		c-3.8,0.3-6.8,3.3-7.2,7.1c-0.5,4.9,3.3,9,8,9c3,0,5.7-1.7,7.1-4.2c0.1-0.2,0.3-0.4,0.4-0.6l1-1c0.4-0.4,1.1-0.4,1.6,0l1.3,1.2
		c0.1,0.1,0.1,0.1,0.2,0.1h0.8c0.1,0,0.1,0,0.2-0.1l1.3-1.2c0.4-0.4,1.1-0.4,1.6,0l1.3,1.2c0.1,0.1,0.1,0.1,0.2,0.1h0.8
		c0.1,0,0.2,0,0.2-0.1l1.3-1.2c0.4-0.4,1.1-0.4,1.6,0l1.3,1.2c0,0,0.1,0.1,0.1,0.1h0.9c0.1,0,0.1,0,0.2-0.1l1.3-1.2
		c0.4-0.4,1.1-0.4,1.6,0l1.3,1.2c0,0,0.1,0.1,0.2,0.1h0.1c0.7,0,1.3-0.3,1.7-0.8l2.2-2.8C416.3,591.2,416,590,415.1,589.5z
		 M380.4,594.4c-1.3,0-2.4-1.1-2.4-2.4s1.1-2.4,2.4-2.4c1.3,0,2.4,1.1,2.4,2.4S381.7,594.4,380.4,594.4z M411.6,590.8
		c0,0.4-0.3,0.7-0.7,0.7h-19.4c-0.2,0-0.4-0.2-0.4-0.4v-0.9c0-0.3,0.2-0.5,0.5-0.5h19.3c0.4,0,0.7,0.3,0.7,0.7V590.8z"/>
</g>
<g id="Dashboard" display="none">
	<g display="inline">
		<path fill="#8E8E8E" d="M396,574c9.9,0,18,8.1,18,18s-8.1,18-18,18s-18-8.1-18-18S386.1,574,396,574 M396,572c-11,0-20,9-20,20
			s9,20,20,20s20-9,20-20S407,572,396,572L396,572z M397,580.8v-2.9c0-0.6-0.4-1-1-1c-0.6,0-1,0.4-1,1v2.9c0,0.6,0.4,1,1,1
			C396.6,581.8,397,581.3,397,580.8z M392.1,582.5c0.5-0.2,0.8-0.8,0.5-1.3l-1.1-2.7c-0.2-0.5-0.8-0.8-1.3-0.5s-0.8,0.8-0.5,1.3
			l1.1,2.7c0.2,0.4,0.5,0.6,0.9,0.6C391.9,582.6,392,582.6,392.1,582.5z M388.9,584.7c0.4-0.4,0.4-1,0-1.4l-2-2
			c-0.4-0.4-1-0.4-1.4,0s-0.4,1,0,1.4l2,2c0.2,0.2,0.5,0.3,0.7,0.3S388.7,584.9,388.9,584.7z M386.7,588c0.2-0.5,0-1.1-0.5-1.3
			l-2.7-1.1c-0.5-0.2-1.1,0-1.3,0.5c-0.2,0.5,0,1.1,0.5,1.3l2.7,1.1c0.1,0.1,0.3,0.1,0.4,0.1C386.1,588.6,386.5,588.4,386.7,588z
			 M385.9,591.9c0-0.6-0.4-1-1-1H382c-0.6,0-1,0.4-1,1s0.4,1,1,1h2.9C385.4,592.9,385.9,592.4,385.9,591.9z M383.5,598.1l2.7-1.1
			c0.5-0.2,0.8-0.8,0.5-1.3c-0.2-0.5-0.8-0.8-1.3-0.5l-2.7,1.1c-0.5,0.2-0.8,0.8-0.5,1.3c0.2,0.4,0.5,0.6,0.9,0.6
			C383.2,598.2,383.3,598.2,383.5,598.1z M409.9,597.6c0.2-0.5,0-1.1-0.5-1.3l-2.7-1.1c-0.5-0.2-1.1,0-1.3,0.5
			c-0.2,0.5,0,1.1,0.5,1.3l2.7,1.1c0.1,0.1,0.3,0.1,0.4,0.1C409.3,598.2,409.7,598,409.9,597.6z M411,591.9c0-0.6-0.4-1-1-1h-2.9
			c-0.6,0-1,0.4-1,1s0.4,1,1,1h2.9C410.5,592.9,411,592.4,411,591.9z M406.6,588.5l2.7-1.1c0.5-0.2,0.8-0.8,0.5-1.3
			s-0.8-0.8-1.3-0.5l-2.7,1.1c-0.5,0.2-0.8,0.8-0.5,1.3c0.2,0.4,0.5,0.6,0.9,0.6C406.4,588.6,406.5,588.6,406.6,588.5z M404.6,584.7
			l2-2c0.4-0.4,0.4-1,0-1.4s-1-0.4-1.4,0l-2,2c-0.4,0.4-0.4,1,0,1.4c0.2,0.2,0.5,0.3,0.7,0.3S404.4,584.9,404.6,584.7z M401.2,582
			l1.1-2.7c0.2-0.5,0-1.1-0.5-1.3c-0.5-0.2-1.1,0-1.3,0.5l-1.1,2.7c-0.2,0.5,0,1.1,0.5,1.3c0.1,0.1,0.3,0.1,0.4,0.1
			C400.6,582.6,401,582.4,401.2,582z"/>
		<path fill="#8E8E8E" d="M396.5,586.8c-0.1-0.6-0.9-0.6-1,0c-0.9,5-2.6,14.7-2.6,15.1c0,1.7,1.4,3.1,3.1,3.1s3.1-1.4,3.1-3.1
			C399.1,601.6,397.4,591.8,396.5,586.8z M396,603.7c-1,0-1.8-0.8-1.8-1.8s0.8-1.8,1.8-1.8s1.8,0.8,1.8,1.8S396.9,603.7,396,603.7z"
			/>
	</g>
</g>
<g id="Dashboard_Active" display="none">
	<g display="inline">
		<path fill="#0C96D3" d="M396,574c9.9,0,18,8.1,18,18s-8.1,18-18,18s-18-8.1-18-18S386.1,574,396,574 M396,572c-11,0-20,9-20,20
			s9,20,20,20s20-9,20-20S407,572,396,572L396,572z M397,580.8v-2.9c0-0.6-0.4-1-1-1c-0.6,0-1,0.4-1,1v2.9c0,0.6,0.4,1,1,1
			C396.6,581.8,397,581.3,397,580.8z M392.1,582.5c0.5-0.2,0.8-0.8,0.5-1.3l-1.1-2.7c-0.2-0.5-0.8-0.8-1.3-0.5s-0.8,0.8-0.5,1.3
			l1.1,2.7c0.2,0.4,0.5,0.6,0.9,0.6C391.9,582.6,392,582.6,392.1,582.5z M388.9,584.7c0.4-0.4,0.4-1,0-1.4l-2-2
			c-0.4-0.4-1-0.4-1.4,0s-0.4,1,0,1.4l2,2c0.2,0.2,0.5,0.3,0.7,0.3S388.7,584.9,388.9,584.7z M386.7,588c0.2-0.5,0-1.1-0.5-1.3
			l-2.7-1.1c-0.5-0.2-1.1,0-1.3,0.5c-0.2,0.5,0,1.1,0.5,1.3l2.7,1.1c0.1,0.1,0.3,0.1,0.4,0.1C386.1,588.6,386.5,588.4,386.7,588z
			 M385.9,591.9c0-0.6-0.4-1-1-1H382c-0.6,0-1,0.4-1,1s0.4,1,1,1h2.9C385.4,592.9,385.9,592.4,385.9,591.9z M383.5,598.1l2.7-1.1
			c0.5-0.2,0.8-0.8,0.5-1.3c-0.2-0.5-0.8-0.8-1.3-0.5l-2.7,1.1c-0.5,0.2-0.8,0.8-0.5,1.3c0.2,0.4,0.5,0.6,0.9,0.6
			C383.2,598.2,383.3,598.2,383.5,598.1z M409.9,597.6c0.2-0.5,0-1.1-0.5-1.3l-2.7-1.1c-0.5-0.2-1.1,0-1.3,0.5
			c-0.2,0.5,0,1.1,0.5,1.3l2.7,1.1c0.1,0.1,0.3,0.1,0.4,0.1C409.3,598.2,409.7,598,409.9,597.6z M411,591.9c0-0.6-0.4-1-1-1h-2.9
			c-0.6,0-1,0.4-1,1s0.4,1,1,1h2.9C410.5,592.9,411,592.4,411,591.9z M406.6,588.5l2.7-1.1c0.5-0.2,0.8-0.8,0.5-1.3
			s-0.8-0.8-1.3-0.5l-2.7,1.1c-0.5,0.2-0.8,0.8-0.5,1.3c0.2,0.4,0.5,0.6,0.9,0.6C406.4,588.6,406.5,588.6,406.6,588.5z M404.6,584.7
			l2-2c0.4-0.4,0.4-1,0-1.4s-1-0.4-1.4,0l-2,2c-0.4,0.4-0.4,1,0,1.4c0.2,0.2,0.5,0.3,0.7,0.3S404.4,584.9,404.6,584.7z M401.2,582
			l1.1-2.7c0.2-0.5,0-1.1-0.5-1.3c-0.5-0.2-1.1,0-1.3,0.5l-1.1,2.7c-0.2,0.5,0,1.1,0.5,1.3c0.1,0.1,0.3,0.1,0.4,0.1
			C400.6,582.6,401,582.4,401.2,582z"/>
		<path fill="#0C96D3" d="M396.5,586.8c-0.1-0.6-0.9-0.6-1,0c-0.9,5-2.6,14.7-2.6,15.1c0,1.7,1.4,3.1,3.1,3.1s3.1-1.4,3.1-3.1
			C399.1,601.6,397.4,591.8,396.5,586.8z M396,603.7c-1,0-1.8-0.8-1.8-1.8s0.8-1.8,1.8-1.8s1.8,0.8,1.8,1.8S396.9,603.7,396,603.7z"
			/>
	</g>
</g>
<g id="Autoscaling_Groups" display="none">
	<path display="inline" fill="#939598" d="M401.9,611.5L401.9,611.5h-17.7c-1,0-1.8-0.8-1.8-1.8v-20.5h-4.6c-0.7,0-1.4-0.4-1.7-1.1
		c-0.3-0.7-0.2-1.4,0.3-2l12.3-13c0,0,0,0,0,0h0c0,0,0,0,0,0c0,0,0,0,0,0l0,0c0,0,0,0,0,0c0,0,0,0,0,0c0,0,0,0,0,0
		c0.3-0.3,0.8-0.5,1.3-0.5h0h17.6c1,0,1.8,0.8,1.8,1.8v20.5h4.6c0.7,0,1.4,0.4,1.7,1.1c0.3,0.7,0.2,1.4-0.3,2l-12.3,13c0,0,0,0,0,0
		c0,0,0,0,0,0l0,0c0,0,0,0,0,0c0,0,0,0,0,0c0,0,0,0,0,0c0,0,0,0,0,0l0,0c0,0,0,0,0,0c0,0,0,0,0,0h0c0,0,0,0,0,0l0,0c0,0,0,0,0,0
		c0,0,0,0,0,0c0,0,0,0,0,0l0,0c0,0,0,0,0,0C402.8,611.3,402.4,611.5,401.9,611.5C401.9,611.5,401.9,611.5,401.9,611.5z M386,607.9
		h11.6l-9.4-9.9c-0.5-0.5-0.6-1.3-0.3-2c0.3-0.7,0.9-1.1,1.7-1.1h4.6l0-7.5c0-0.5,0.2-0.9,0.5-1.3c0.3-0.3,0.8-0.5,1.3-0.5h2.2
		l-8.1-8.5l-8.1,8.5h2.2c1,0,1.8,0.8,1.8,1.8V607.9z M393.8,598.5l8.1,8.5l8.1-8.5h-2.2c-1,0-1.8-0.8-1.8-1.8v-20.5h-11.6l9.4,9.9
		c0.5,0.5,0.6,1.3,0.3,2c-0.3,0.7-0.9,1.1-1.7,1.1h-4.6l0,7.5c0,0.5-0.2,0.9-0.5,1.3c-0.3,0.3-0.8,0.5-1.3,0.5H393.8z"/>
</g>
<g id="Autoscaling_Groups_Groups_Active" display="none">
	<path display="inline" fill="#0C96D3" d="M401.9,611.5L401.9,611.5h-17.7c-1,0-1.8-0.8-1.8-1.8v-20.5h-4.6c-0.7,0-1.4-0.4-1.7-1.1
		c-0.3-0.7-0.2-1.4,0.3-2l12.3-13c0,0,0,0,0,0h0c0,0,0,0,0,0c0,0,0,0,0,0l0,0c0,0,0,0,0,0c0,0,0,0,0,0c0,0,0,0,0,0
		c0.3-0.3,0.8-0.5,1.3-0.5h0h17.6c1,0,1.8,0.8,1.8,1.8v20.5h4.6c0.7,0,1.4,0.4,1.7,1.1c0.3,0.7,0.2,1.4-0.3,2l-12.3,13c0,0,0,0,0,0
		c0,0,0,0,0,0l0,0c0,0,0,0,0,0c0,0,0,0,0,0c0,0,0,0,0,0c0,0,0,0,0,0l0,0c0,0,0,0,0,0c0,0,0,0,0,0h0c0,0,0,0,0,0l0,0c0,0,0,0,0,0
		c0,0,0,0,0,0c0,0,0,0,0,0l0,0c0,0,0,0,0,0C402.8,611.3,402.4,611.5,401.9,611.5C401.9,611.5,401.9,611.5,401.9,611.5z M386,607.9
		h11.6l-9.4-9.9c-0.5-0.5-0.6-1.3-0.3-2c0.3-0.7,0.9-1.1,1.7-1.1h4.6l0-7.5c0-0.5,0.2-0.9,0.5-1.3c0.3-0.3,0.8-0.5,1.3-0.5h2.2
		l-8.1-8.5l-8.1,8.5h2.2c1,0,1.8,0.8,1.8,1.8V607.9z M393.8,598.5l8.1,8.5l8.1-8.5h-2.2c-1,0-1.8-0.8-1.8-1.8v-20.5h-11.6l9.4,9.9
		c0.5,0.5,0.6,1.3,0.3,2c-0.3,0.7-0.9,1.1-1.7,1.1h-4.6l0,7.5c0,0.5-0.2,0.9-0.5,1.3c-0.3,0.3-0.8,0.5-1.3,0.5H393.8z"/>
</g>
<g id="Instances" display="none">
	<path display="inline" fill="#8E8E8E" d="M397.9,579.3c0,1-0.9,1.9-1.9,1.9s-1.9-0.9-1.9-1.9c0-1,0.9-1.9,1.9-1.9
		S397.9,578.2,397.9,579.3z M383.8,577.4c-1,0-1.9,0.9-1.9,1.9c0,1,0.9,1.9,1.9,1.9s1.9-0.9,1.9-1.9
		C385.7,578.2,384.9,577.4,383.8,577.4z M406.3,579.3c0,1,0.9,1.9,1.9,1.9c1,0,1.9-0.9,1.9-1.9c0-1-0.9-1.9-1.9-1.9
		C407.1,577.4,406.3,578.2,406.3,579.3z M385.2,605.5v-13.1c0-0.8-0.6-1.4-1.4-1.4c-0.8,0-1.4,0.6-1.4,1.4v13.1
		c0,0.8,0.6,1.4,1.4,1.4C384.6,606.9,385.2,606.3,385.2,605.5z M397.4,605.5v-13.1c0-0.8-0.6-1.4-1.4-1.4s-1.4,0.6-1.4,1.4v13.1
		c0,0.8,0.6,1.4,1.4,1.4S397.4,606.3,397.4,605.5z M409.6,605.5v-13.1c0-0.8-0.6-1.4-1.4-1.4c-0.8,0-1.4,0.6-1.4,1.4v13.1
		c0,0.8,0.6,1.4,1.4,1.4C408.9,606.9,409.6,606.3,409.6,605.5z M415.8,576V608c0,2.2-1.8,4-4,4h-31.5c-2.2,0-4-1.8-4-4V576
		c0-2.2,1.8-4,4-4h31.5C414,572,415.8,573.8,415.8,576z M399.1,574.8H393c-1,0-1.7,0.8-1.7,1.7v30.9c0,1,0.8,1.8,1.8,1.8h6.1
		c0.9,0,1.7-0.8,1.7-1.7v-31C400.8,575.6,400,574.8,399.1,574.8z M380.3,609.2h6.4c1,0,1.8-0.8,1.8-1.8v-30.9c0-0.9-0.8-1.7-1.7-1.7
		h-6.5c-0.7,0-1.3,0.6-1.3,1.3V608C379,608.6,379.6,609.2,380.3,609.2z M413,576c0-0.7-0.6-1.3-1.3-1.3h-6.4c-1,0-1.8,0.8-1.8,1.8
		v31c0,0.9,0.8,1.7,1.7,1.7h6.5c0.7,0,1.3-0.6,1.3-1.3V576z"/>
</g>
<g id="Instances_Active" display="none">
	<path display="inline" fill="#0C96D3" d="M397.9,579.3c0,1-0.9,1.9-1.9,1.9s-1.9-0.9-1.9-1.9c0-1,0.9-1.9,1.9-1.9
		S397.9,578.2,397.9,579.3z M383.8,577.4c-1,0-1.9,0.9-1.9,1.9c0,1,0.9,1.9,1.9,1.9s1.9-0.9,1.9-1.9
		C385.7,578.2,384.9,577.4,383.8,577.4z M406.3,579.3c0,1,0.9,1.9,1.9,1.9c1,0,1.9-0.9,1.9-1.9c0-1-0.9-1.9-1.9-1.9
		C407.1,577.4,406.3,578.2,406.3,579.3z M385.2,605.5v-13.1c0-0.8-0.6-1.4-1.4-1.4c-0.8,0-1.4,0.6-1.4,1.4v13.1
		c0,0.8,0.6,1.4,1.4,1.4C384.6,606.9,385.2,606.3,385.2,605.5z M397.4,605.5v-13.1c0-0.8-0.6-1.4-1.4-1.4s-1.4,0.6-1.4,1.4v13.1
		c0,0.8,0.6,1.4,1.4,1.4S397.4,606.3,397.4,605.5z M409.6,605.5v-13.1c0-0.8-0.6-1.4-1.4-1.4c-0.8,0-1.4,0.6-1.4,1.4v13.1
		c0,0.8,0.6,1.4,1.4,1.4C408.9,606.9,409.6,606.3,409.6,605.5z M415.8,576V608c0,2.2-1.8,4-4,4h-31.5c-2.2,0-4-1.8-4-4V576
		c0-2.2,1.8-4,4-4h31.5C414,572,415.8,573.8,415.8,576z M399.1,574.8H393c-1,0-1.7,0.8-1.7,1.7v30.9c0,1,0.8,1.8,1.8,1.8h6.1
		c0.9,0,1.7-0.8,1.7-1.7v-31C400.8,575.6,400,574.8,399.1,574.8z M380.3,609.2h6.4c1,0,1.8-0.8,1.8-1.8v-30.9c0-0.9-0.8-1.7-1.7-1.7
		h-6.5c-0.7,0-1.3,0.6-1.3,1.3V608C379,608.6,379.6,609.2,380.3,609.2z M413,576c0-0.7-0.6-1.3-1.3-1.3h-6.4c-1,0-1.8,0.8-1.8,1.8
		v31c0,0.9,0.8,1.7,1.7,1.7h6.5c0.7,0,1.3-0.6,1.3-1.3V576z"/>
</g>
<g id="Bolt" display="none">
	<path display="inline" fill="#0B95D2" d="M387.5,612L387.5,612c-0.8,0-1.5-0.4-1.8-1.1c-0.4-0.6-0.4-1.4,0-2.1l7.2-14h-4.1
		c-1.3,0-2.4-0.6-3.1-1.7c-0.6-1.1-0.7-2.3-0.1-3.5l6.5-15.9c0.4-1.1,1.5-1.8,2.7-1.8h5.3c1,0,1.8,0.5,2.4,1.3
		c0.5,0.8,0.6,1.8,0.3,2.7l-5,10.7h6.4c1.2,0,2.2,0.7,2.6,1.8c0.4,1.1,0.2,2.2-0.6,3.1l-17,19.8C388.6,611.8,388.1,612,387.5,612z
		 M394.7,574.8C394.6,574.8,394.6,574.8,394.7,574.8l-6.7,16.2c-0.2,0.4,0,0.7,0,0.8c0.1,0.1,0.3,0.4,0.7,0.4h5.1
		c0.7,0,1.4,0.4,1.8,1c0.4,0.6,0.4,1.4,0.1,2.1l-5.2,10.1l13.5-15.8c0,0,0,0,0-0.1c0-0.1-0.1-0.1-0.1-0.1h-7.4c-0.7,0-1.4-0.4-1.8-1
		c-0.4-0.6-0.4-1.4-0.1-2.1l5.3-11.5l-0.1-0.1H394.7z"/>
</g>
<g id="Bolt_1_">
	<path fill="#8E8E8E" d="M406.6,588.4c-0.4-1.1-1.5-1.8-2.6-1.8h-6.4l5-10.7c0.4-0.9,0.3-1.9-0.3-2.7c-0.5-0.8-1.4-1.3-2.4-1.3h-5.3
		c-1.2,0-2.3,0.7-2.7,1.8l-6.5,15.9c-0.5,1.1-0.5,2.4,0.1,3.5c0.7,1.1,1.8,1.7,3.1,1.7h4.1l-7.2,14c-0.4,0.7-0.4,1.4,0,2.1
		c0.4,0.7,1.1,1.1,1.8,1.1c0.6,0,1.1-0.2,1.6-0.7l17-19.8C406.8,590.6,407.1,589.4,406.6,588.4z"/>
</g>
<g id="Elastic_IPs" display="none">
	<path display="inline" fill="#8E8E8E" d="M396,572c-6.2,0-12.3,5.4-12.3,12.1c0,4.9,7,19.2,10.2,26.5c0.8,1.8,3.2,1.8,4,0
		c3.2-7.3,10.2-21.6,10.2-26.5C408.3,577.4,402.2,572,396,572z M396,590.6c-3.7,0-6.6-3-6.6-6.6s3-6.6,6.6-6.6s6.6,3,6.6,6.6
		S399.7,590.6,396,590.6z M392,580.5h1.9v7H392V580.5z M395.2,580.5h3c1.8,0,2.9,0.9,2.9,2.5v0c0,1.6-1.3,2.5-3,2.5h-1v2h-1.9V580.5
		z M398.1,583.9c0.7,0,1.1-0.4,1.1-0.9v0c0-0.6-0.4-0.9-1.1-0.9h-0.9v1.8H398.1z"/>
</g>
<g id="Elastic_IPs_Active" display="none">
	<path display="inline" fill="#0C96D3" d="M396,572c-6.2,0-12.3,5.4-12.3,12.1c0,4.9,7,19.2,10.2,26.5c0.8,1.8,3.2,1.8,4,0
		c3.2-7.3,10.2-21.6,10.2-26.5C408.3,577.4,402.2,572,396,572z M396,590.6c-3.7,0-6.6-3-6.6-6.6s3-6.6,6.6-6.6s6.6,3,6.6,6.6
		S399.7,590.6,396,590.6z M392,580.5h1.9v7H392V580.5z M395.2,580.5h3c1.8,0,2.9,0.9,2.9,2.5v0c0,1.6-1.3,2.5-3,2.5h-1v2h-1.9V580.5
		z M398.1,583.9c0.7,0,1.1-0.4,1.1-0.9v0c0-0.6-0.4-0.9-1.1-0.9h-0.9v1.8H398.1z"/>
</g>
</svg>
