<?xml version="1.0" encoding="utf-8"?>
<!-- Generator: Adobe Illustrator 17.0.2, SVG Export Plug-In . SVG Version: 6.00 Build 0)  -->
<!DOCTYPE svg PUBLIC "-//W3C//DTD SVG 1.1//EN" "http://www.w3.org/Graphics/SVG/1.1/DTD/svg11.dtd">
<svg version="1.1" id="Layer_1" xmlns="http://www.w3.org/2000/svg" xmlns:xlink="http://www.w3.org/1999/xlink" x="0px" y="0px"
	 width="13.095px" height="13.716px" viewBox="0 0 13.095 13.716" enable-background="new 0 0 13.095 13.716" xml:space="preserve">
<g>
	<defs>
		<rect id="SVGID_1_" x="1.275" y="1.066" width="11.039" height="12.078"/>
	</defs>
	<clipPath id="SVGID_2_">
		<use xlink:href="#SVGID_1_"  overflow="visible"/>
	</clipPath>
	<path clip-path="url(#SVGID_2_)" fill="#F8991D" d="M12.3,9.804l0.013-4.613c0.001-0.346-0.241-0.486-0.541-0.312L7.784,7.197
		C7.485,7.371,7.242,7.793,7.241,8.139l-0.014,4.613c0,0.346,0.241,0.486,0.541,0.312l3.988-2.318
		C12.055,10.572,12.299,10.15,12.3,9.804"/>
	<path clip-path="url(#SVGID_2_)" fill="#F8991D" d="M6.389,12.756l0.013-4.618c0.001-0.346-0.241-0.767-0.541-0.941L1.833,4.872
		c-0.3-0.173-0.544-0.033-0.545,0.314L1.275,9.803c-0.001,0.347,0.241,0.768,0.541,0.941l4.028,2.326
		C6.144,13.243,6.388,13.102,6.389,12.756"/>
	<path clip-path="url(#SVGID_2_)" fill="#F8991D" d="M7.366,6.47l3.992-2.32c0.299-0.174,0.299-0.456-0.001-0.629L7.33,1.196
		C7.029,1.022,6.543,1.023,6.244,1.197l-3.992,2.32c-0.3,0.174-0.299,0.456,0.001,0.629L6.28,6.472
		C6.58,6.645,7.066,6.644,7.366,6.47"/>
</g>
</svg>
