<?xml version="1.0" encoding="utf-8"?>
<!-- Generator: Adobe Illustrator 17.0.2, SVG Export Plug-In . SVG Version: 6.00 Build 0)  -->
<!DOCTYPE svg PUBLIC "-//W3C//DTD SVG 1.1//EN" "http://www.w3.org/Graphics/SVG/1.1/DTD/svg11.dtd">
<svg version="1.1" id="Layer_1" xmlns="http://www.w3.org/2000/svg" xmlns:xlink="http://www.w3.org/1999/xlink" x="0px" y="0px"
	 width="21.495px" height="21.118px" viewBox="0 0 21.495 21.118" enable-background="new 0 0 21.495 21.118" xml:space="preserve">
<g>
	<defs>
		<rect id="SVGID_1_" x="1" y="1.045" width="19.384" height="19.384"/>
	</defs>
	<clipPath id="SVGID_2_">
		<use xlink:href="#SVGID_1_"  overflow="visible"/>
	</clipPath>
	<path clip-path="url(#SVGID_2_)" fill="#82BC00" d="M13.094,9.343c-0.358-0.616-0.95-1.095-1.691-1.292
		c-0.74-0.196-1.491-0.073-2.106,0.285c-0.615,0.357-1.095,0.95-1.291,1.69c-0.196,0.741-0.073,1.491,0.284,2.107
		c0.358,0.615,0.95,1.095,1.691,1.291c0.74,0.196,1.49,0.073,2.105-0.284c0.617-0.359,1.096-0.95,1.292-1.691
		S13.451,9.957,13.094,9.343 M11.938,6.034C9.34,5.346,6.677,6.894,5.989,9.491c-0.688,2.598,0.859,5.261,3.457,5.95
		c2.597,0.688,5.261-0.859,5.949-3.457S14.536,6.723,11.938,6.034 M15.31,2.216c0.895,0.485,1.695,1.1,2.38,1.816l-1.014,1.159
		l1.798,3.094l1.508-0.307c0.283,0.949,0.422,1.948,0.4,2.966l-1.537,0.103l-0.917,3.459l1.286,0.849
		c-0.485,0.896-1.101,1.695-1.817,2.38l-1.159-1.014l-3.093,1.798l0.307,1.508c-0.949,0.284-1.949,0.423-2.967,0.4l-0.102-1.537
		l-3.459-0.916l-0.85,1.285c-0.895-0.484-1.695-1.1-2.38-1.816l1.014-1.159L2.91,13.19l-1.508,0.308
		c-0.282-0.95-0.422-1.95-0.4-2.967l1.537-0.102L3.456,6.97L2.17,6.12c0.485-0.896,1.101-1.696,1.817-2.381l1.159,1.015L8.24,2.955
		L7.932,1.447c0.949-0.283,1.949-0.422,2.967-0.4L11,2.584l3.46,0.917L15.31,2.216z"/>
</g>
</svg>
