<?xml version="1.0" encoding="utf-8"?>
<!-- Generator: Adobe Illustrator 17.0.2, SVG Export Plug-In . SVG Version: 6.00 Build 0)  -->
<!DOCTYPE svg PUBLIC "-//W3C//DTD SVG 1.1//EN" "http://www.w3.org/Graphics/SVG/1.1/DTD/svg11.dtd">
<svg version="1.1" id="Layer_1" xmlns="http://www.w3.org/2000/svg" xmlns:xlink="http://www.w3.org/1999/xlink" x="0px" y="0px"
	 width="101.333px" height="104px" viewBox="0 0 101.333 104" enable-background="new 0 0 101.333 104" xml:space="preserve">
<g>
	<defs>
		<rect id="SVGID_1_" x="1.079" y="1.57" width="99.254" height="101.43"/>
	</defs>
	<clipPath id="SVGID_2_">
		<use xlink:href="#SVGID_1_"  overflow="visible"/>
	</clipPath>
	<path clip-path="url(#SVGID_2_)" fill="#022A3A" d="M50.706,103c27.408,0,49.627-22.706,49.627-50.715S78.114,1.57,50.706,1.57
		S1.079,24.276,1.079,52.285S23.298,103,50.706,103"/>
	<path clip-path="url(#SVGID_2_)" fill="#FFFFFF" d="M77.862,59.185c0.39-0.341,2.891-2.769,3.237-3.158
		c2.999-2.782,4.898-6.784,4.898-11.252c0-8.398-6.665-15.205-14.882-15.205c-1.591,0-3.124,0.258-4.562,0.732
		C65.606,20.5,57.513,12.84,47.674,12.84c-10.479,0-18.976,8.682-18.976,19.389c0,1.301,0.13,2.575,0.372,3.803h-3.534
		c-6.473,0-11.719,5.362-11.719,11.977c0,5.463,3.59,10.061,8.49,11.493L77.862,59.185z"/>
	<path clip-path="url(#SVGID_2_)" fill="#FFFFFF" d="M28.541,85.218V46.189c1.119,0.705,2.587,1.368,4.402,1.988
		c4.857,1.711,10.716,2.566,17.578,2.566c6.841,0,12.679-0.855,17.515-2.566c1.794-0.62,3.251-1.261,4.37-1.924V85.25
		c-1.119,0.684-2.576,1.336-4.37,1.956c-4.836,1.711-10.674,2.566-17.515,2.566c-6.862,0-12.721-0.855-17.578-2.566
		C31.128,86.586,29.66,85.924,28.541,85.218"/>
	<path clip-path="url(#SVGID_2_)" fill="#022A3A" d="M70.43,43.128c0,1.835-1.924,3.405-5.774,4.711
		c-3.849,1.324-8.494,1.986-13.936,1.986c-5.461,0-10.115-0.662-13.964-1.986c-3.85-1.306-5.774-2.876-5.774-4.711
		c0-1.835,1.924-3.415,5.774-4.739c3.849-1.306,8.503-1.958,13.964-1.958c5.442,0,10.087,0.652,13.936,1.958
		C68.506,39.713,70.43,41.293,70.43,43.128"/>
	<path clip-path="url(#SVGID_2_)" fill="#022A3A" d="M70.373,48.094v10.159c-1.005,0.606-2.313,1.183-3.925,1.732
		c-4.342,1.513-9.585,2.27-15.728,2.27c-6.162,0-11.424-0.757-15.785-2.27c-1.63-0.549-2.948-1.136-3.953-1.76V48.037
		c1.005,0.625,2.323,1.211,3.953,1.76c4.361,1.513,9.623,2.27,15.785,2.27c6.143,0,11.386-0.757,15.728-2.27
		C68.06,49.248,69.368,48.68,70.373,48.094"/>
	<path clip-path="url(#SVGID_2_)" fill="#022A3A" d="M30.982,83.71V73.521c1.005,0.624,2.323,1.211,3.953,1.76
		c4.361,1.513,9.623,2.27,15.785,2.27c6.144,0,11.386-0.757,15.728-2.27c1.612-0.549,2.92-1.117,3.925-1.703v10.159
		c-1.005,0.606-2.313,1.183-3.925,1.732c-4.342,1.513-9.584,2.27-15.728,2.27c-6.162,0-11.424-0.757-15.785-2.27
		C33.305,84.921,31.987,84.333,30.982,83.71"/>
	<path clip-path="url(#SVGID_2_)" fill="#022A3A" d="M30.982,70.967V60.779c1.005,0.625,2.323,1.211,3.953,1.76
		c4.361,1.513,9.623,2.27,15.785,2.27c6.144,0,11.386-0.757,15.728-2.27c1.612-0.549,2.92-1.116,3.925-1.703v10.16
		c-1.005,0.605-2.313,1.182-3.925,1.731c-4.342,1.513-9.584,2.27-15.728,2.27c-6.162,0-11.424-0.757-15.785-2.27
		C33.305,72.178,31.987,71.591,30.982,70.967"/>
</g>
</svg>
