<?xml version="1.0" encoding="utf-8"?>
<!-- Generator: Adobe Illustrator 17.0.2, SVG Export Plug-In . SVG Version: 6.00 Build 0)  -->
<!DOCTYPE svg PUBLIC "-//W3C//DTD SVG 1.1//EN" "http://www.w3.org/Graphics/SVG/1.1/DTD/svg11.dtd">
<svg version="1.1" id="Layer_1" xmlns="http://www.w3.org/2000/svg" xmlns:xlink="http://www.w3.org/1999/xlink" x="0px" y="0px"
	 width="101.333px" height="104px" viewBox="0 0 101.333 104" enable-background="new 0 0 101.333 104" xml:space="preserve">
<g>
	<defs>
		<rect id="SVGID_1_" x="1.079" y="1.57" width="99.254" height="101.43"/>
	</defs>
	<clipPath id="SVGID_2_">
		<use xlink:href="#SVGID_1_"  overflow="visible"/>
	</clipPath>
	<path clip-path="url(#SVGID_2_)" fill="#022A3A" d="M50.706,103c27.408,0,49.627-22.706,49.627-50.715S78.114,1.57,50.706,1.57
		S1.079,24.276,1.079,52.285S23.298,103,50.706,103"/>
	<path clip-path="url(#SVGID_2_)" fill="#FFFFFF" d="M74.199,69.869c4.245,0.384,8.329,0.339,12.574-0.133
		c0.909-8.337-0.495-17.723-9.268-21.227c2.902-1.765,4.819-4.917,4.78-8.491c-0.098-9.029-11.705-12.961-17.817-6.67
		c6.065,5.583,4.115,16.852-1.326,20.996C69.221,56.729,73.242,63.354,74.199,69.869 M58.141,54.345
		c12.108,4.802,14.048,17.576,12.685,29.041c-10.562,1.711-30.179,1.711-40.314,0c-1.197-11.436,0.8-24.224,12.811-29.023
		c-4.002-2.434-6.646-6.78-6.593-11.711c0.081-7.521,6.406-13.549,14.127-13.464c7.721,0.084,13.914,6.248,13.832,13.769
		C64.637,47.765,62.032,51.965,58.141,54.345 M27.286,69.87c-4.216,0.437-8.324,0.392-12.647-0.134
		c-0.91-8.337,0.494-17.723,9.267-21.227c-2.902-1.765-4.818-4.917-4.779-8.491c0.096-9.028,11.702-12.961,17.815-6.672
		c-6.263,5.889-4.583,16.909,1.382,21.016C32.631,56.418,28.076,63.793,27.286,69.87"/>
	<path clip-path="url(#SVGID_2_)" fill="none" stroke="#FFFFFF" stroke-width="4.2" stroke-miterlimit="10" d="M74.199,69.869
		c4.245,0.384,8.329,0.339,12.574-0.133c0.909-8.337-0.495-17.723-9.268-21.227c2.902-1.765,4.819-4.917,4.78-8.491
		c-0.098-9.029-11.705-12.961-17.817-6.67c6.065,5.583,4.115,16.852-1.326,20.996C69.221,56.729,73.242,63.354,74.199,69.869z
		 M58.141,54.345c12.108,4.802,14.048,17.576,12.685,29.041c-10.562,1.711-30.179,1.711-40.314,0
		c-1.197-11.436,0.8-24.224,12.811-29.023c-4.002-2.434-6.646-6.78-6.593-11.711c0.081-7.521,6.406-13.549,14.127-13.464
		c7.721,0.084,13.914,6.248,13.832,13.769C64.637,47.765,62.032,51.965,58.141,54.345z M27.286,69.87
		c-4.216,0.437-8.324,0.392-12.647-0.134c-0.91-8.337,0.494-17.723,9.267-21.227c-2.902-1.765-4.818-4.917-4.779-8.491
		c0.096-9.028,11.702-12.961,17.815-6.672c-6.263,5.889-4.583,16.909,1.382,21.016C32.631,56.418,28.076,63.793,27.286,69.87z"/>
	<path clip-path="url(#SVGID_2_)" fill="#022A3A" d="M27.585,69.654c-4.162,0.43-8.218,0.386-12.486-0.132
		c-0.898-8.198,0.488-17.427,9.149-20.873c-2.865-1.735-4.757-4.834-4.718-8.348c0.095-8.878,11.553-12.745,17.588-6.561
		c-6.184,5.791-4.524,16.626,1.364,20.665C32.862,56.427,28.364,63.68,27.585,69.654"/>
	<path clip-path="url(#SVGID_2_)" fill="#FFFFFF" d="M58.094,54.376c12.031,4.744,13.958,17.365,12.604,28.692
		c-10.494,1.69-29.985,1.69-40.056,0c-1.189-11.299,0.795-23.933,12.73-28.674c-3.978-2.405-6.605-6.7-6.551-11.571
		c0.08-7.43,6.364-13.386,14.036-13.303c7.671,0.084,13.824,6.174,13.743,13.604C64.549,47.875,61.96,52.024,58.094,54.376"/>
	<path clip-path="url(#SVGID_2_)" fill="none" stroke="#022A3A" stroke-width="1.4" stroke-miterlimit="10" d="M58.094,54.376
		c12.031,4.744,13.958,17.365,12.604,28.692c-10.494,1.69-29.985,1.69-40.056,0c-1.189-11.299,0.795-23.933,12.73-28.674
		c-3.978-2.405-6.605-6.7-6.551-11.571c0.08-7.43,6.364-13.386,14.036-13.303c7.671,0.084,13.824,6.174,13.743,13.604
		C64.549,47.875,61.96,52.024,58.094,54.376z"/>
	<path clip-path="url(#SVGID_2_)" fill="#022A3A" d="M73.9,69.654c4.191,0.377,8.223,0.333,12.414-0.131
		c0.897-8.198-0.489-17.427-9.15-20.873c2.865-1.736,4.757-4.834,4.719-8.349c-0.097-8.878-11.556-12.745-17.59-6.559
		c5.988,5.49,4.062,16.571-1.31,20.646C68.985,56.732,72.956,63.246,73.9,69.654"/>
</g>
</svg>
