<?xml version="1.0" encoding="utf-8"?>
<!-- Generator: Adobe Illustrator 17.0.2, SVG Export Plug-In . SVG Version: 6.00 Build 0)  -->
<!DOCTYPE svg PUBLIC "-//W3C//DTD SVG 1.1//EN" "http://www.w3.org/Graphics/SVG/1.1/DTD/svg11.dtd">
<svg version="1.1" id="Layer_1" xmlns="http://www.w3.org/2000/svg" xmlns:xlink="http://www.w3.org/1999/xlink" x="0px" y="0px"
	 width="101.333px" height="104px" viewBox="0 0 101.333 104" enable-background="new 0 0 101.333 104" xml:space="preserve">
<g>
	<defs>
		<rect id="SVGID_1_" x="1.079" y="1" width="99.254" height="101.43"/>
	</defs>
	<clipPath id="SVGID_2_">
		<use xlink:href="#SVGID_1_"  overflow="visible"/>
	</clipPath>
	<path clip-path="url(#SVGID_2_)" fill="#022A3A" d="M50.706,102.43c27.408,0,49.627-22.706,49.627-50.715S78.114,1,50.706,1
		S1.079,23.706,1.079,51.715S23.298,102.43,50.706,102.43"/>
	<path clip-path="url(#SVGID_2_)" fill="#FFFFFF" d="M77.862,58.615c0.39-0.341,2.891-2.769,3.237-3.158
		c2.999-2.782,4.898-6.784,4.898-11.252C85.997,35.807,79.332,29,71.115,29c-1.591,0-3.124,0.258-4.562,0.732
		c-0.947-9.802-9.04-17.462-18.879-17.462c-10.479,0-18.976,8.682-18.976,19.389c0,1.301,0.13,2.575,0.372,3.803h-3.534
		c-6.473,0-11.719,5.362-11.719,11.977c0,5.463,3.59,10.061,8.49,11.493L77.862,58.615z"/>
</g>
<polygon fill="#FFFFFF" points="57.199,44.786 50.675,44.786 50.675,70.044 35.598,70.044 35.598,44.786 29.074,44.786 43.1,29.981 
	"/>
<polygon fill="none" stroke="#FFFFFF" stroke-width="4.2" stroke-miterlimit="10" points="57.199,44.786 50.675,44.786 
	50.675,70.044 35.598,70.044 35.598,44.786 29.074,44.786 43.1,29.981 "/>
<polygon fill="#FFFFFF" points="46.95,72.939 53.474,72.939 53.474,47.681 68.551,47.681 68.551,72.939 75.075,72.939 
	61.049,87.744 "/>
<polygon fill="none" stroke="#FFFFFF" stroke-width="4.2" stroke-miterlimit="10" points="46.95,72.939 53.474,72.939 
	53.474,47.681 68.551,47.681 68.551,72.939 75.075,72.939 61.049,87.744 "/>
<polygon fill="#022A3A" points="57.199,44.786 50.675,44.786 50.675,70.044 35.598,70.044 35.598,44.786 29.074,44.786 43.1,29.981 
	"/>
<polygon fill="#022A3A" points="46.95,72.939 53.474,72.939 53.474,47.681 68.551,47.681 68.551,72.939 75.075,72.939 
	61.049,87.744 "/>
</svg>
