<?xml version="1.0" encoding="utf-8"?>
<!-- Generator: Adobe Illustrator 17.0.2, SVG Export Plug-In . SVG Version: 6.00 Build 0)  -->
<!DOCTYPE svg PUBLIC "-//W3C//DTD SVG 1.1//EN" "http://www.w3.org/Graphics/SVG/1.1/DTD/svg11.dtd">
<svg version="1.1" id="Layer_1" xmlns="http://www.w3.org/2000/svg" xmlns:xlink="http://www.w3.org/1999/xlink" x="0px" y="0px"
	 width="101.333px" height="104px" viewBox="0 0 101.333 104" enable-background="new 0 0 101.333 104" xml:space="preserve">
<g>
	<defs>
		<rect id="SVGID_1_" x="1.391" y="1.475" width="99.254" height="101.43"/>
	</defs>
	<clipPath id="SVGID_2_">
		<use xlink:href="#SVGID_1_"  overflow="visible"/>
	</clipPath>
	<path clip-path="url(#SVGID_2_)" fill="#022A3A" d="M51.018,102.905c27.408,0,49.627-22.706,49.627-50.715
		S78.426,1.475,51.018,1.475S1.391,24.181,1.391,52.19S23.61,102.905,51.018,102.905"/>
	<path clip-path="url(#SVGID_2_)" fill="#FFFFFF" d="M78.174,59.09c0.39-0.341,2.891-2.769,3.237-3.158
		c2.999-2.782,4.898-6.784,4.898-11.252c0-8.398-6.665-15.205-14.882-15.205c-1.591,0-3.124,0.258-4.562,0.732
		c-0.947-9.802-9.04-17.462-18.879-17.462c-10.479,0-18.976,8.682-18.976,19.389c0,1.301,0.13,2.575,0.372,3.803h-3.534
		c-6.473,0-11.719,5.362-11.719,11.977c0,5.463,3.59,10.061,8.49,11.493L78.174,59.09z"/>
</g>
<rect x="26.767" y="38.161" fill="#022A3A" width="49.093" height="50.657"/>
<path fill="#FFFFFF" d="M34.46,84.899h-3.624V66.624h3.624V84.899z M40.457,84.899h-3.624V66.624h3.624V84.899z M28.969,86.906
	h13.354V40.071H28.969V86.906z"/>
<path fill="#FFFFFF" d="M50.352,84.899h-3.624V66.624h3.624V84.899z M56.349,84.899h-3.624V66.624h3.624V84.899z M44.861,86.906
	h13.354V40.071H44.861V86.906z"/>
<path fill="#FFFFFF" d="M66.244,84.899H62.62V66.624h3.624V84.899z M72.241,84.899h-3.624V66.624h3.624V84.899z M60.753,86.906
	h13.354V40.071H60.753V86.906z"/>
<g>
	<defs>
		<rect id="SVGID_3_" x="1.391" y="1.475" width="99.254" height="101.43"/>
	</defs>
	<clipPath id="SVGID_4_">
		<use xlink:href="#SVGID_3_"  overflow="visible"/>
	</clipPath>
	<path clip-path="url(#SVGID_4_)" fill="#022A3A" d="M70.621,46.958c0,1.779-1.373,3.22-3.067,3.22s-3.066-1.441-3.066-3.22
		c0-1.778,1.372-3.22,3.066-3.22S70.621,45.18,70.621,46.958"/>
	<path clip-path="url(#SVGID_4_)" fill="#022A3A" d="M54.521,46.958c0,1.779-1.373,3.22-3.067,3.22s-3.066-1.441-3.066-3.22
		c0-1.778,1.372-3.22,3.066-3.22S54.521,45.18,54.521,46.958"/>
	<path clip-path="url(#SVGID_4_)" fill="#022A3A" d="M38.713,46.958c0,1.779-1.373,3.22-3.067,3.22s-3.066-1.441-3.066-3.22
		c0-1.778,1.372-3.22,3.066-3.22S38.713,45.18,38.713,46.958"/>
</g>
</svg>
