<?xml version="1.0" encoding="utf-8"?>
<!-- Generator: Adobe Illustrator 17.0.2, SVG Export Plug-In . SVG Version: 6.00 Build 0)  -->
<!DOCTYPE svg PUBLIC "-//W3C//DTD SVG 1.1//EN" "http://www.w3.org/Graphics/SVG/1.1/DTD/svg11.dtd">
<svg version="1.1" id="Layer_1" xmlns="http://www.w3.org/2000/svg" xmlns:xlink="http://www.w3.org/1999/xlink" x="0px" y="0px"
	 width="101.333px" height="104px" viewBox="0 0 101.333 104" enable-background="new 0 0 101.333 104" xml:space="preserve">
<g>
	<defs>
		<rect id="SVGID_1_" x="1" y="1.237" width="99.254" height="101.43"/>
	</defs>
	<clipPath id="SVGID_2_">
		<use xlink:href="#SVGID_1_"  overflow="visible"/>
	</clipPath>
	<path clip-path="url(#SVGID_2_)" fill="#022A3A" d="M50.627,102.667c27.408,0,49.627-22.706,49.627-50.715
		S78.035,1.237,50.627,1.237S1,23.943,1,51.952S23.219,102.667,50.627,102.667"/>
	<path clip-path="url(#SVGID_2_)" fill="#FFFFFF" d="M77.783,58.851c0.39-0.341,2.891-2.769,3.237-3.158
		c2.999-2.782,4.898-6.784,4.898-11.252c0-8.398-6.665-15.205-14.882-15.205c-1.591,0-3.124,0.258-4.562,0.732
		c-0.947-9.802-9.04-17.462-18.879-17.462c-10.479,0-18.976,8.682-18.976,19.389c0,1.301,0.13,2.575,0.372,3.803h-3.534
		c-6.473,0-11.719,5.362-11.719,11.977c0,5.463,3.59,10.061,8.49,11.493L77.783,58.851z"/>
	<path clip-path="url(#SVGID_2_)" fill="#022A3A" d="M47.763,61.079c-5.994-10.383-3.305-23.395,5.813-30.63
		c-4.964-0.144-10.029,1.041-14.646,3.707c-13.264,7.658-17.809,24.619-10.151,37.883S53.398,89.848,66.663,82.19
		c4.617-2.666,8.176-6.459,10.533-10.83C66.371,75.639,53.757,71.461,47.763,61.079"/>
	<path clip-path="url(#SVGID_2_)" fill="none" stroke="#FFFFFF" stroke-width="2.1" stroke-miterlimit="10" d="M47.763,61.079
		c-5.994-10.383-3.305-23.395,5.813-30.63c-4.964-0.144-10.029,1.041-14.646,3.707c-13.264,7.658-17.809,24.619-10.151,37.883
		S53.398,89.848,66.663,82.19c4.617-2.666,8.176-6.459,10.533-10.83C66.371,75.639,53.757,71.461,47.763,61.079z"/>
	<path clip-path="url(#SVGID_2_)" fill="#022A3A" d="M65.608,48.34l-3.865-0.562l-1.728-3.502c-0.055-0.111-0.168-0.181-0.292-0.181
		c-0.123,0-0.236,0.07-0.291,0.181l-1.728,3.502l-3.865,0.562c-0.123,0.018-0.224,0.104-0.262,0.221
		c-0.039,0.117-0.007,0.247,0.082,0.333l2.797,2.726l-0.66,3.849c-0.022,0.122,0.029,0.245,0.129,0.318
		c0.056,0.041,0.123,0.062,0.191,0.062c0.051,0,0.103-0.012,0.151-0.038l3.456-1.817l3.457,1.817c0.048,0.026,0.1,0.038,0.151,0.038
		c0.068,0,0.135-0.021,0.191-0.062c0.1-0.073,0.15-0.196,0.129-0.318l-0.66-3.849l2.797-2.726c0.088-0.086,0.12-0.216,0.082-0.333
		C65.832,48.444,65.729,48.358,65.608,48.34"/>
	<path clip-path="url(#SVGID_2_)" fill="#022A3A" d="M57.946,40.892c0.05,0.027,0.105,0.04,0.16,0.04
		c0.071,0,0.142-0.022,0.202-0.066c0.106-0.077,0.159-0.207,0.137-0.336l-0.363-2.117l1.537-1.498
		c0.094-0.092,0.128-0.228,0.087-0.353c-0.04-0.124-0.148-0.215-0.277-0.234l-2.125-0.308l-0.95-1.926
		c-0.058-0.117-0.178-0.192-0.309-0.192c-0.13,0-0.25,0.075-0.308,0.192l-0.95,1.926l-2.125,0.308
		c-0.13,0.019-0.237,0.11-0.278,0.234c-0.04,0.125-0.006,0.261,0.087,0.353l1.538,1.498l-0.363,2.117
		c-0.022,0.129,0.031,0.259,0.137,0.336c0.059,0.044,0.131,0.066,0.202,0.066c0.055,0,0.109-0.013,0.16-0.04l1.9-0.999
		L57.946,40.892z"/>
	<path clip-path="url(#SVGID_2_)" fill="#022A3A" d="M75.649,46.756c-0.04-0.125-0.148-0.215-0.277-0.234l-2.126-0.309l-0.95-1.925
		c-0.058-0.117-0.177-0.192-0.308-0.192c-0.131,0-0.251,0.075-0.308,0.192l-0.95,1.925l-2.125,0.309
		c-0.13,0.019-0.237,0.109-0.278,0.234c-0.04,0.125-0.007,0.261,0.087,0.353l1.538,1.498l-0.363,2.117
		c-0.023,0.129,0.031,0.259,0.137,0.336c0.059,0.043,0.13,0.066,0.202,0.066c0.054,0,0.109-0.014,0.16-0.04l1.9-0.999l1.901,0.999
		c0.05,0.026,0.105,0.04,0.16,0.04c0.071,0,0.142-0.023,0.202-0.066c0.105-0.077,0.159-0.207,0.137-0.336l-0.364-2.117l1.538-1.498
		C75.656,47.017,75.689,46.881,75.649,46.756"/>
</g>
</svg>
