<?xml version="1.0" encoding="utf-8"?>
<!-- Generator: Adobe Illustrator 17.0.2, SVG Export Plug-In . SVG Version: 6.00 Build 0)  -->
<!DOCTYPE svg PUBLIC "-//W3C//DTD SVG 1.1//EN" "http://www.w3.org/Graphics/SVG/1.1/DTD/svg11.dtd">
<svg version="1.1" id="Layer_1" xmlns="http://www.w3.org/2000/svg" xmlns:xlink="http://www.w3.org/1999/xlink" x="0px" y="0px"
	 width="101.333px" height="104px" viewBox="0 0 101.333 104" enable-background="new 0 0 101.333 104" xml:space="preserve">
<g>
	<defs>
		<rect id="SVGID_1_" x="1.079" y="1.439" width="99.254" height="101.43"/>
	</defs>
	<clipPath id="SVGID_2_">
		<use xlink:href="#SVGID_1_"  overflow="visible"/>
	</clipPath>
	<path clip-path="url(#SVGID_2_)" fill="#022A3A" d="M50.706,102.869c27.408,0,49.627-22.706,49.627-50.715
		S78.114,1.439,50.706,1.439S1.079,24.145,1.079,52.154S23.298,102.869,50.706,102.869"/>
	<path clip-path="url(#SVGID_2_)" fill="#FFFFFF" d="M51.197,23.6l4.005,3.178c5.124,4.062,10.463,6.123,15.872,6.123
		c3.476,0,5.776-0.896,5.795-0.905l8.048-3.573l0.582,7.824c0.028,0.379,0.648,9.418-2.804,20.453
		c-2.048,6.547-5.113,12.481-9.11,17.638c-5.06,6.533-11.607,11.803-19.457,15.667l-2.931,1.442l-2.932-1.442
		c-7.85-3.864-14.397-9.134-19.458-15.667c-3.996-5.157-7.061-11.091-9.11-17.638c-3.452-11.035-2.83-20.074-2.802-20.453
		l0.599-8.087l7.992,3.818c0.322,0.123,2.544,0.923,5.833,0.923c5.408,0,10.748-2.059,15.871-6.123L51.197,23.6z"/>
	<path clip-path="url(#SVGID_2_)" fill="#FFFFFF" d="M51.197,21.716l-0.937,0.742l-4.017,3.187
		c-4.873,3.866-9.912,5.826-14.978,5.826c-2.892,0-4.85-0.663-5.238-0.804l-7.955-3.802l-1.912-0.913l-0.141,1.889l-0.6,8.111
		c-0.03,0.389-0.663,9.655,2.855,20.904c2.094,6.693,5.23,12.764,9.321,18.045c5.194,6.705,11.916,12.118,19.978,16.086l2.939,1.446
		l0.685,0.337l0.683-0.337l2.94-1.446c8.062-3.968,14.784-9.381,19.977-16.087c4.092-5.28,7.228-11.351,9.322-18.044
		c3.514-11.237,2.885-20.514,2.856-20.903l-0.583-7.848l-0.136-1.828l-1.879,0.835l-8.035,3.568
		c-0.217,0.079-2.242,0.791-5.214,0.791c-5.064,0-10.104-1.96-14.979-5.826l-4.017-3.187L51.197,21.716z M51.197,23.345l4.016,3.187
		c5.138,4.074,10.491,6.141,15.915,6.141c3.485,0,5.791-0.898,5.811-0.907l8.069-3.585l0.584,7.847
		c0.028,0.38,0.649,9.446-2.812,20.513c-2.053,6.566-5.126,12.517-9.134,17.689c-5.074,6.551-11.639,11.837-19.51,15.712
		l-2.939,1.446l-2.94-1.446c-7.871-3.875-14.436-9.161-19.51-15.712c-4.008-5.172-7.081-11.123-9.135-17.689
		c-3.461-11.067-2.838-20.133-2.81-20.513l0.6-8.11l8.014,3.829c0.323,0.124,2.551,0.926,5.849,0.926
		c5.423,0,10.778-2.065,15.914-6.141L51.197,23.345z"/>
	<path clip-path="url(#SVGID_2_)" fill="none" stroke="#FFFFFF" stroke-width="0.7" stroke-miterlimit="10" d="M51.197,21.716
		l-0.937,0.742l-4.017,3.187c-4.873,3.866-9.912,5.826-14.978,5.826c-2.892,0-4.85-0.663-5.238-0.804l-7.955-3.802l-1.912-0.913
		l-0.141,1.889l-0.6,8.111c-0.03,0.389-0.663,9.655,2.855,20.904c2.094,6.693,5.23,12.764,9.321,18.045
		c5.194,6.705,11.916,12.118,19.978,16.086l2.939,1.446l0.685,0.337l0.683-0.337l2.94-1.446c8.062-3.968,14.784-9.381,19.977-16.087
		c4.092-5.28,7.228-11.351,9.322-18.044c3.514-11.237,2.885-20.514,2.856-20.903l-0.583-7.848l-0.136-1.828l-1.879,0.835
		l-8.035,3.568c-0.217,0.079-2.242,0.791-5.214,0.791c-5.064,0-10.104-1.96-14.979-5.826l-4.017-3.187L51.197,21.716z
		 M51.197,23.345l4.016,3.187c5.138,4.074,10.491,6.141,15.915,6.141c3.485,0,5.791-0.898,5.811-0.907l8.069-3.585l0.584,7.847
		c0.028,0.38,0.649,9.446-2.812,20.513c-2.053,6.566-5.126,12.517-9.134,17.689c-5.074,6.551-11.639,11.837-19.51,15.712
		l-2.939,1.446l-2.94-1.446c-7.871-3.875-14.436-9.161-19.51-15.712c-4.008-5.172-7.081-11.123-9.135-17.689
		c-3.461-11.067-2.838-20.133-2.81-20.513l0.6-8.11l8.014,3.829c0.323,0.124,2.551,0.926,5.849,0.926
		c5.423,0,10.778-2.065,15.914-6.141L51.197,23.345z"/>
	<path clip-path="url(#SVGID_2_)" fill="#022A3A" d="M51.197,57.6v24.496C41.014,76.65,33.791,68.419,29.662,57.6H51.197V34.119
		c7.744,5.39,14.989,6.581,19.877,6.581c2.018,0,3.787-0.195,5.257-0.454c-0.142,3.27-0.691,8.431-2.497,14.208
		c-0.337,1.075-0.711,2.118-1.104,3.146H51.197z M82.814,36.232l-0.318-4.277l-4.4,1.953c-0.026,0.012-2.738,1.162-7.022,1.162
		c-6.101,0-12.052-2.266-17.687-6.733l-2.19-1.739l-2.191,1.739c-1.609,1.276-3.246,2.367-4.903,3.282
		c-4.146,2.289-8.426,3.451-12.784,3.451c-4.111,0-6.835-1.085-7.034-1.166l-3.056-1.409l-1.328-0.613l-0.322,4.35
		c-0.024,0.319-0.483,7.018,1.65,15.851c0.302,1.244,0.652,2.528,1.064,3.844c0.176,0.565,0.37,1.118,0.562,1.673
		c1.952,5.637,4.695,10.771,8.185,15.276c4.825,6.228,11.068,11.252,18.554,14.936l1.603,0.789l1.602-0.789
		c2.551-1.255,4.954-2.67,7.208-4.231c4.364-3.021,8.164-6.599,11.346-10.705c3.49-4.505,6.232-9.639,8.185-15.276
		c0.191-0.555,0.386-1.108,0.562-1.673C83.436,45.261,82.84,36.597,82.814,36.232"/>
</g>
</svg>
