<?xml version="1.0" encoding="utf-8"?>
<!-- Generator: Adobe Illustrator 17.0.2, SVG Export Plug-In . SVG Version: 6.00 Build 0)  -->
<!DOCTYPE svg PUBLIC "-//W3C//DTD SVG 1.1//EN" "http://www.w3.org/Graphics/SVG/1.1/DTD/svg11.dtd">
<svg version="1.1" id="Layer_1" xmlns="http://www.w3.org/2000/svg" xmlns:xlink="http://www.w3.org/1999/xlink" x="0px" y="0px"
	 width="26.02px" height="25.832px" viewBox="0 0 26.02 25.832" enable-background="new 0 0 26.02 25.832" xml:space="preserve">
<g>
	<defs>
		<rect id="SVGID_1_" x="1.074" y="1.131" width="24" height="24"/>
	</defs>
	<clipPath id="SVGID_2_">
		<use xlink:href="#SVGID_1_"  overflow="visible"/>
	</clipPath>
	<path clip-path="url(#SVGID_2_)" fill="#6CAB36" d="M7.074,1.131c0,0-6,0-6,6v12c0,0,0,6,6,6h12c0,0,6,0,6-6v-12c0,0,0-6-6-6H7.074
		z"/>
	<path clip-path="url(#SVGID_2_)" fill="#FFFFFF" d="M13.068,10.456V8.291c-2.891-0.234-5.51,3.03-4.969,6.101
		c0.538,3.051,3.134,4.94,6.28,4.571c2.729-0.321,4.802-2.923,4.58-5.848c-0.058-0.765,0.056-1.164,0.905-1.216
		c0.835-0.05,1.201,0.264,1.209,1.1c0.031,3.149-1.242,5.604-4.004,7.128c-2.805,1.548-5.649,1.363-8.233-0.499
		c-2.507-1.807-3.595-4.373-3.101-7.447c0.561-3.493,2.997-5.811,6.52-6.42c0.244-0.042,0.482-0.112,0.797-0.187V3.131
		c1.557,1.165,2.935,2.195,4.448,3.326C16.064,7.752,14.687,8.995,13.068,10.456"/>
</g>
</svg>
