<?xml version="1.0" encoding="utf-8"?>
<!-- Generator: Adobe Illustrator 17.0.2, SVG Export Plug-In . SVG Version: 6.00 Build 0)  -->
<!DOCTYPE svg PUBLIC "-//W3C//DTD SVG 1.1//EN" "http://www.w3.org/Graphics/SVG/1.1/DTD/svg11.dtd">
<svg version="1.1" id="Layer_1" xmlns="http://www.w3.org/2000/svg" xmlns:xlink="http://www.w3.org/1999/xlink" x="0px" y="0px"
	 width="101.333px" height="104px" viewBox="0 0 101.333 104" enable-background="new 0 0 101.333 104" xml:space="preserve">
<g>
	<defs>
		<rect id="SVGID_1_" x="1" y="1.57" width="99.254" height="101.43"/>
	</defs>
	<clipPath id="SVGID_2_">
		<use xlink:href="#SVGID_1_"  overflow="visible"/>
	</clipPath>
	<path clip-path="url(#SVGID_2_)" fill="#022A3A" d="M50.627,103c27.408,0,49.627-22.706,49.627-50.715S78.035,1.57,50.627,1.57
		S1,24.276,1,52.285S23.219,103,50.627,103"/>
	<path clip-path="url(#SVGID_2_)" fill="#FFFFFF" d="M58.143,51.106c12.24,4.853,14.2,17.764,12.823,29.352
		c-10.677,1.729-30.506,1.729-40.752,0c-1.21-11.558,0.809-24.484,12.951-29.334c-4.046-2.46-6.719-6.853-6.665-11.837
		c0.082-7.601,6.475-13.694,14.28-13.609c7.805,0.085,14.064,6.316,13.982,13.917C64.71,44.456,62.076,48.7,58.143,51.106"/>
	<path clip-path="url(#SVGID_2_)" fill="none" stroke="#FFFFFF" stroke-width="5.67" stroke-miterlimit="10" d="M58.143,51.106
		c12.24,4.853,14.2,17.764,12.823,29.352c-10.677,1.729-30.506,1.729-40.752,0c-1.21-11.558,0.809-24.484,12.951-29.334
		c-4.046-2.46-6.719-6.853-6.665-11.837c0.082-7.601,6.475-13.694,14.28-13.609c7.805,0.085,14.064,6.316,13.982,13.917
		C64.71,44.456,62.076,48.7,58.143,51.106z"/>
	<path clip-path="url(#SVGID_2_)" fill="#FFFFFF" d="M58.221,51.089c12.368,4.884,14.349,17.88,12.957,29.544
		c-10.788,1.741-30.825,1.741-41.177,0c-1.224-11.634,0.816-24.644,13.085-29.526c-4.088-2.476-6.789-6.898-6.734-11.915
		c0.083-7.65,6.543-13.783,14.429-13.697s14.211,6.357,14.128,14.008C64.856,44.395,62.196,48.667,58.221,51.089"/>
	<path clip-path="url(#SVGID_2_)" fill="none" stroke="#022A3A" stroke-width="1.4" stroke-miterlimit="10" d="M58.221,51.089
		c12.368,4.884,14.349,17.88,12.957,29.544c-10.788,1.741-30.825,1.741-41.177,0c-1.224-11.634,0.816-24.644,13.085-29.526
		c-4.088-2.476-6.789-6.898-6.734-11.915c0.083-7.65,6.543-13.783,14.429-13.697s14.211,6.357,14.128,14.008
		C64.856,44.395,62.196,48.667,58.221,51.089z"/>
</g>
</svg>
