<?xml version="1.0" encoding="utf-8"?>
<!-- Generator: Adobe Illustrator 17.0.2, SVG Export Plug-In . SVG Version: 6.00 Build 0)  -->
<!DOCTYPE svg PUBLIC "-//W3C//DTD SVG 1.1//EN" "http://www.w3.org/Graphics/SVG/1.1/DTD/svg11.dtd">
<svg version="1.1" id="Layer_1" xmlns="http://www.w3.org/2000/svg" xmlns:xlink="http://www.w3.org/1999/xlink" x="0px" y="0px"
	 width="101.333px" height="104px" viewBox="0 0 101.333 104" enable-background="new 0 0 101.333 104" xml:space="preserve">
<g>
	<defs>
		<rect id="SVGID_1_" x="1" y="1.095" width="99.254" height="101.43"/>
	</defs>
	<clipPath id="SVGID_2_">
		<use xlink:href="#SVGID_1_"  overflow="visible"/>
	</clipPath>
	<path clip-path="url(#SVGID_2_)" fill="#022A3A" d="M50.627,102.525c27.408,0,49.627-22.706,49.627-50.715
		S78.035,1.095,50.627,1.095S1,23.801,1,51.81S23.219,102.525,50.627,102.525"/>
	<path clip-path="url(#SVGID_2_)" fill="#FFFFFF" d="M46.898,43.787l34.494,0.38c0.759,0.009,1.592,0.901,2.146,1.403l3.642,3.311
		c0.966,0.878,0.445,2.156-0.055,3.088l-3.913,7.268c-0.348,0.647-1.269,1.366-2.005,1.358l-3.009-0.033l-3.637-3.365l-3.86,3.282
		l-2.037-0.023l-3.636-3.364l-3.86,3.282l-2.038-0.023l-3.635-3.364l-3.861,3.282l-5.128-0.057c1.311-2.452,2.085-5.235,2.155-8.191
		c0.006-0.218,0.006-0.435,0.004-0.651l30.153,0.123c0.994,0.011,2.534-0.474,2.555-1.356c0.021-0.881-1.599-1.401-2.594-1.411
		l-30.433-0.549C48.051,46.634,47.56,45.163,46.898,43.787 M21.974,47.222c-2.488-0.028-4.552,1.966-4.611,4.454
		c-0.06,2.488,1.908,4.526,4.396,4.553s4.553-1.966,4.612-4.454C26.43,49.287,24.462,47.249,21.974,47.222 M29.959,35.774
		c8.859,0.097,15.869,7.356,15.657,16.214c-0.211,8.858-7.564,15.957-16.423,15.86c-8.859-0.098-15.869-7.357-15.657-16.214
		C13.747,42.776,21.1,35.676,29.959,35.774"/>
</g>
</svg>
