<?xml version="1.0" encoding="utf-8"?>
<!-- Generator: Adobe Illustrator 17.0.2, SVG Export Plug-In . SVG Version: 6.00 Build 0)  -->
<!DOCTYPE svg PUBLIC "-//W3C//DTD SVG 1.1//EN" "http://www.w3.org/Graphics/SVG/1.1/DTD/svg11.dtd">
<svg version="1.1" id="Layer_1" xmlns="http://www.w3.org/2000/svg" xmlns:xlink="http://www.w3.org/1999/xlink" x="0px" y="0px"
	 width="101.333px" height="104px" viewBox="0 0 101.333 104" enable-background="new 0 0 101.333 104" xml:space="preserve">
<g>
	<defs>
		<rect id="SVGID_1_" x="1.079" y="1" width="99.254" height="101.43"/>
	</defs>
	<clipPath id="SVGID_2_">
		<use xlink:href="#SVGID_1_"  overflow="visible"/>
	</clipPath>
	<path clip-path="url(#SVGID_2_)" fill="#022A3A" d="M50.706,102.43c27.408,0,49.627-22.706,49.627-50.715S78.114,1,50.706,1
		S1.079,23.706,1.079,51.715S23.298,102.43,50.706,102.43"/>
	<path clip-path="url(#SVGID_2_)" fill="#FFFFFF" d="M77.862,58.615c0.39-0.341,2.891-2.769,3.237-3.158
		c2.999-2.782,4.898-6.784,4.898-11.252C85.997,35.807,79.332,29,71.115,29c-1.591,0-3.124,0.258-4.562,0.732
		c-0.947-9.802-9.04-17.462-18.879-17.462c-10.479,0-18.976,8.682-18.976,19.389c0,1.301,0.13,2.575,0.372,3.803h-3.534
		c-6.473,0-11.719,5.362-11.719,11.977c0,5.463,3.59,10.061,8.49,11.493L77.862,58.615z"/>
</g>
<rect x="16.033" y="44.554" fill="#FFFFFF" width="68.04" height="39.123"/>
<rect x="18.435" y="41.044" fill="#022A3A" width="63.234" height="40.333"/>
<rect x="22.554" y="45.244" fill="#FFFFFF" width="54.996" height="31.865"/>
<g>
	<defs>
		<rect id="SVGID_3_" x="1.079" y="1" width="99.254" height="101.43"/>
	</defs>
	<clipPath id="SVGID_4_">
		<use xlink:href="#SVGID_3_"  overflow="visible"/>
	</clipPath>
	<path clip-path="url(#SVGID_4_)" fill="#022A3A" d="M73.169,58.683c0.058,0.134,0.136,0.25,0.237,0.348
		c0.1,0.098,0.218,0.175,0.354,0.23c0.136,0.056,0.285,0.083,0.447,0.083c0.158,0,0.305-0.027,0.441-0.083
		c0.136-0.055,0.256-0.132,0.358-0.23s0.182-0.214,0.239-0.348c0.058-0.134,0.087-0.278,0.087-0.431s-0.029-0.296-0.087-0.428
		c-0.057-0.132-0.137-0.247-0.239-0.345s-0.222-0.176-0.358-0.233c-0.136-0.058-0.283-0.086-0.441-0.086
		c-0.162,0-0.311,0.028-0.447,0.086c-0.136,0.057-0.254,0.135-0.354,0.233c-0.101,0.098-0.179,0.213-0.237,0.345
		c-0.057,0.132-0.086,0.275-0.086,0.428S73.112,58.549,73.169,58.683 M66.899,59.255h5.302v-1.431h-1.533v-7.883h-1.635
		l-2.901,2.434l0.626,0.83c0.043,0.055,0.108,0.108,0.195,0.157c0.088,0.049,0.187,0.073,0.297,0.073
		c0.064,0,0.13-0.012,0.198-0.035c0.068-0.023,0.137-0.063,0.205-0.118l1.054-0.876c-0.013,0.252-0.019,0.492-0.019,0.722v4.696
		h-1.789V59.255z M59.488,59.255h5.303v-1.431h-1.533v-7.883h-1.636l-2.9,2.434l0.626,0.83c0.042,0.055,0.107,0.108,0.195,0.157
		c0.087,0.049,0.186,0.073,0.297,0.073c0.064,0,0.13-0.012,0.198-0.035c0.068-0.023,0.136-0.063,0.204-0.118l1.054-0.876
		c-0.012,0.252-0.019,0.492-0.019,0.722v4.696h-1.789V59.255z M52.078,59.255h5.302v-1.431h-1.533v-7.883h-1.635l-2.901,2.434
		l0.626,0.83c0.043,0.055,0.108,0.108,0.195,0.157c0.087,0.049,0.186,0.073,0.297,0.073c0.064,0,0.13-0.012,0.198-0.035
		c0.068-0.023,0.137-0.063,0.205-0.118l1.054-0.876c-0.013,0.252-0.019,0.492-0.019,0.722v4.696h-1.789V59.255z M47.922,58.683
		c0.058,0.134,0.137,0.25,0.237,0.348s0.218,0.175,0.354,0.23c0.136,0.056,0.285,0.083,0.447,0.083c0.158,0,0.305-0.027,0.441-0.083
		c0.136-0.055,0.256-0.132,0.358-0.23c0.102-0.098,0.182-0.214,0.24-0.348c0.057-0.134,0.086-0.278,0.086-0.431
		s-0.029-0.296-0.086-0.428c-0.058-0.132-0.138-0.247-0.24-0.345c-0.102-0.098-0.222-0.176-0.358-0.233
		c-0.136-0.058-0.283-0.086-0.441-0.086c-0.162,0-0.311,0.028-0.447,0.086c-0.136,0.057-0.254,0.135-0.354,0.233
		s-0.179,0.213-0.237,0.345c-0.057,0.132-0.086,0.275-0.086,0.428S47.865,58.549,47.922,58.683 M41.652,59.255h5.303v-1.431h-1.534
		v-7.883h-1.635l-2.901,2.434l0.627,0.83c0.042,0.055,0.107,0.108,0.194,0.157c0.088,0.049,0.187,0.073,0.297,0.073
		c0.064,0,0.13-0.012,0.198-0.035c0.069-0.023,0.137-0.063,0.205-0.118l1.054-0.876c-0.013,0.252-0.019,0.492-0.019,0.722v4.696
		h-1.789V59.255z M34.242,59.255h5.302v-1.431h-1.533v-7.883h-1.636l-2.9,2.434l0.626,0.83c0.043,0.055,0.108,0.108,0.195,0.157
		c0.087,0.049,0.186,0.073,0.297,0.073c0.064,0,0.13-0.012,0.198-0.035c0.068-0.023,0.136-0.063,0.204-0.118l1.054-0.876
		c-0.012,0.252-0.019,0.492-0.019,0.722v4.696h-1.788V59.255z M26.831,59.255h5.302v-1.431H30.6v-7.883h-1.635l-2.901,2.434
		l0.626,0.83c0.043,0.055,0.108,0.108,0.195,0.157c0.088,0.049,0.187,0.073,0.297,0.073c0.064,0,0.13-0.012,0.198-0.035
		c0.068-0.023,0.137-0.063,0.205-0.118l1.054-0.876c-0.013,0.252-0.019,0.492-0.019,0.722v4.696h-1.789V59.255z"/>
	<path clip-path="url(#SVGID_4_)" fill="#022A3A" d="M66.899,72.85h5.302v-1.431h-1.533v-7.883h-1.635l-2.901,2.434l0.626,0.83
		c0.043,0.055,0.108,0.108,0.195,0.157c0.088,0.049,0.187,0.073,0.297,0.073c0.064,0,0.13-0.012,0.198-0.035
		c0.068-0.023,0.137-0.063,0.205-0.118l1.054-0.876c-0.013,0.252-0.019,0.492-0.019,0.722v4.696h-1.789V72.85z M59.488,72.85h5.303
		v-1.431h-1.533v-7.883h-1.636l-2.9,2.434l0.626,0.83c0.042,0.055,0.107,0.108,0.195,0.157c0.087,0.049,0.186,0.073,0.297,0.073
		c0.064,0,0.13-0.012,0.198-0.035c0.068-0.023,0.136-0.063,0.204-0.118l1.054-0.876c-0.012,0.252-0.019,0.492-0.019,0.722v4.696
		h-1.789V72.85z M52.078,72.85h5.302v-1.431h-1.533v-7.883h-1.635l-2.901,2.434l0.626,0.83c0.043,0.055,0.108,0.108,0.195,0.157
		c0.087,0.049,0.186,0.073,0.297,0.073c0.064,0,0.13-0.012,0.198-0.035c0.068-0.023,0.137-0.063,0.205-0.118l1.054-0.876
		c-0.013,0.252-0.019,0.492-0.019,0.722v4.696h-1.789V72.85z M47.922,72.278c0.058,0.134,0.137,0.25,0.237,0.348
		c0.1,0.098,0.218,0.175,0.354,0.23c0.136,0.056,0.285,0.083,0.447,0.083c0.158,0,0.305-0.027,0.441-0.083
		c0.136-0.055,0.256-0.132,0.358-0.23c0.102-0.098,0.182-0.214,0.24-0.348c0.057-0.134,0.086-0.278,0.086-0.431
		s-0.029-0.296-0.086-0.428c-0.058-0.132-0.138-0.247-0.24-0.345c-0.102-0.098-0.222-0.176-0.358-0.233
		c-0.136-0.058-0.283-0.086-0.441-0.086c-0.162,0-0.311,0.028-0.447,0.086c-0.136,0.057-0.254,0.135-0.354,0.233
		s-0.179,0.213-0.237,0.345c-0.057,0.132-0.086,0.275-0.086,0.428S47.865,72.144,47.922,72.278 M41.652,72.85h5.303v-1.431h-1.534
		v-7.883h-1.635l-2.901,2.434l0.627,0.83c0.042,0.055,0.107,0.108,0.194,0.157c0.088,0.049,0.187,0.073,0.297,0.073
		c0.064,0,0.13-0.012,0.198-0.035c0.069-0.023,0.137-0.063,0.205-0.118l1.054-0.876c-0.013,0.252-0.019,0.492-0.019,0.722v4.696
		h-1.789V72.85z M34.242,72.85h5.302v-1.431h-1.533v-7.883h-1.636l-2.9,2.434l0.626,0.83c0.043,0.055,0.108,0.108,0.195,0.157
		c0.087,0.049,0.186,0.073,0.297,0.073c0.064,0,0.13-0.012,0.198-0.035c0.068-0.023,0.136-0.063,0.204-0.118l1.054-0.876
		c-0.012,0.252-0.019,0.492-0.019,0.722v4.696h-1.788V72.85z M26.831,72.85h5.302v-1.431H30.6v-7.883h-1.635l-2.901,2.434
		l0.626,0.83c0.043,0.055,0.108,0.108,0.195,0.157c0.088,0.049,0.187,0.073,0.297,0.073c0.064,0,0.13-0.012,0.198-0.035
		c0.068-0.023,0.137-0.063,0.205-0.118l1.054-0.876c-0.013,0.252-0.019,0.492-0.019,0.722v4.696h-1.789V72.85z"/>
</g>
</svg>
