<?xml version="1.0" encoding="utf-8"?>
<!-- Generator: Adobe Illustrator 17.0.2, SVG Export Plug-In . SVG Version: 6.00 Build 0)  -->
<!DOCTYPE svg PUBLIC "-//W3C//DTD SVG 1.1//EN" "http://www.w3.org/Graphics/SVG/1.1/DTD/svg11.dtd">
<svg version="1.1" id="Layer_1" xmlns="http://www.w3.org/2000/svg" xmlns:xlink="http://www.w3.org/1999/xlink" x="0px" y="0px"
	 width="101.333px" height="104px" viewBox="0 0 101.333 104" enable-background="new 0 0 101.333 104" xml:space="preserve">
<g>
	<defs>
		<rect id="SVGID_1_" x="1" y="1.57" width="99.254" height="101.43"/>
	</defs>
	<clipPath id="SVGID_2_">
		<use xlink:href="#SVGID_1_"  overflow="visible"/>
	</clipPath>
	<path clip-path="url(#SVGID_2_)" fill="#022A3A" d="M50.627,103c27.408,0,49.627-22.706,49.627-50.715S78.035,1.57,50.627,1.57
		S1,24.276,1,52.285S23.219,103,50.627,103"/>
	<path clip-path="url(#SVGID_2_)" fill="#FFFFFF" d="M77.782,59.185c0.39-0.341,2.891-2.769,3.237-3.158
		c2.999-2.782,4.898-6.784,4.898-11.252c0-8.398-6.665-15.205-14.882-15.205c-1.591,0-3.124,0.258-4.562,0.732
		C65.526,20.5,57.433,12.84,47.594,12.84c-10.479,0-18.976,8.682-18.976,19.389c0,1.301,0.13,2.575,0.372,3.803h-3.534
		c-6.473,0-11.719,5.362-11.719,11.977c0,5.463,3.59,10.061,8.49,11.493L77.782,59.185z"/>
	<path clip-path="url(#SVGID_2_)" fill="#FFFFFF" d="M23.296,48.085c0,0-2.8,0-2.8,2.8v28c0,0,0,2.8,2.8,2.8h54.6c0,0,2.8,0,2.8-2.8
		v-28c0,0,0-2.8-2.8-2.8H23.296z"/>
	<path clip-path="url(#SVGID_2_)" fill="#022A3A" d="M58.471,46.981c-7.248,0-13.125,6.029-13.125,13.463
		c0,7.433,5.877,13.462,13.125,13.462s13.125-6.029,13.125-13.462C71.596,53.01,65.719,46.981,58.471,46.981 M29.596,48.776
		c-0.962,0-1.75,0.807-1.75,1.794c0,0.988,0.788,1.796,1.75,1.796h8.75c0.963,0,1.75-0.808,1.75-1.796
		c0-0.987-0.787-1.794-1.75-1.794H29.596z M58.471,52.366c-4.348,0-7.875,3.617-7.875,8.078c0,4.459,3.527,8.077,7.875,8.077
		s7.875-3.618,7.875-8.077C66.346,55.983,62.819,52.366,58.471,52.366 M26.096,43.391h3.5v-1.795c0-0.987,0.787-1.796,1.75-1.796
		h5.25c0.962,0,1.75,0.809,1.75,1.796v1.795h7.692l3.341-5.483c0.661-1.09,1.801-1.69,2.967-1.692l12.25-0.005
		c1.328,0,2.483,0.759,3.076,1.877l3.232,5.303h4.192c1.925,0,3.499,1.616,3.499,3.59v28.72c0,1.974-1.574,3.589-3.499,3.589h-49
		c-1.925,0-3.501-1.614-3.501-3.589v-28.72C22.595,45.007,24.171,43.391,26.096,43.391"/>
</g>
</svg>
